<svg id="Layer_1" xmlns="http://www.w3.org/2000/svg" viewBox="0 0 951 287.3"><path d="M146.4 190.7l-50.9 7.2 44.1 82.2-50.9 7.2-71.8-133.7L0 122l101.8-14.3 16.9 31.6-50.9 7.2 10.6 19.8 50.9-7.2 17.1 31.6zM257.3 85.9l-146.4 20.6L170.2 217c17.5 32.6 64.5 54.5 104.9 48.8 40.4-5.7 59-36.8 41.5-69.4L257.3 85.9zM367 160.8l2.1-.3c29-4.1 42.3-26.4 29.7-49.8s-46.3-39.1-75.3-35c-3.3.5-6.5 1.2-9.4 2.1L271 83.9l88.7 165.2 46.4-6.5 4.5-.6 103.7-14.6L368 162.6l-1-1.8zm428.7-58.3l-1-1.8 2.1-.3c29-4.1 42.3-26.4 29.7-49.8-12.6-23.4-46.3-39.1-75.3-35-3.3.5-6.5 1.2-9.4 2.1l-43.2 6.1L787.3 189l50.9-7.2L942 167.3l-146.3-64.8zM379.6 68.7l165.5 154.4-16.8-175.3-148.7 20.9zm304.1-42.8L537.4 46.5 596.7 157c17.5 32.6 64.5 54.5 104.9 48.8 40.4-5.7 59-36.8 41.5-69.4L683.7 25.9z" fill="#fff"/><path d="M155.4 175.7l-50.9 7.2 44.1 82.2-50.9 7.2-71.8-133.7L9 107l101.8-14.3 16.9 31.6-50.9 7.2 10.6 19.8 50.9-7.2 17.1 31.6zM266.3 70.9L119.9 91.4 179.2 202c17.5 32.6 64.5 54.5 104.9 48.8 40.4-5.7 59-36.8 41.5-69.4L266.3 70.9zM376 145.8l2.1-.3c29-4.1 42.3-26.4 29.7-49.8s-46.3-39.1-75.3-35c-3.3.5-6.5 1.2-9.4 2.1L280 68.9l88.7 165.2 46.4-6.5 4.5-.6 103.7-14.6L377 147.6l-1-1.8zm428.7-58.3l-1-1.8 2.1-.3c29-4.1 42.3-26.4 29.7-49.8-12.6-23.4-46.3-39.1-75.3-35-3.3.5-6.5 1.2-9.4 2.1l-43.2 6.1L796.3 174l50.9-7.2L951 152.3 804.7 87.5zM388.6 53.7l165.5 154.4-16.8-175.3-148.7 20.9zm304.1-42.8L546.4 31.5 605.7 142c17.5 32.6 64.5 54.5 104.9 48.8 40.4-5.7 59-36.8 41.5-69.4L692.7 10.9z" fill="#3c1d1f"/></svg>