<svg xmlns="http://www.w3.org/2000/svg" viewBox="0 0 974 286.5"><path d="M.5 0l17.3 4.3h20.6l17.3 7.6h19.5s7.6 2.2 20.6 4.3 34.7 3.2 34.7 3.2l-2.2 18.4v24.9l-1.1 11.9-21.7-3.2-31.4-4.3h-6.5l1.1 28.2h19.5l16.2 6.5 22.7 4.3v32.5l3.2 21.7-21.7-5.4H86.1l-18.4-3.2-2.2 26V221l3.2 44.4-3.2 18.4-16.2-3.2-48.7-4.3 4.3-20.6-.5-24.4L0 209.6l4.3-18.4-3.2-21.7 2.2-41.2-2.2-23.8 2.2-18.4V65.5l1.1-31.4L.5 0zM140 4.5l16.3 1 16.2 6.1h20.3l18.3 3 17.2 4.1h16.3l18.2 6.1 25.4 4.1h22.4V107l-2.1 17.3v56.8l2.1 20.3-4.1 16.2-2 18.3-8.2 14.2-20.3 16.2-14.2 8.2-10.1 2-14.2 5.1-21.3-5.1-20.3-7.1-19.3-11.2-12.2-17.2-14.2-20.3-4.1-9.2-4-20.3L140 175l1.1-37.5-1.1-18.3 1.1-19.3V62.4L140 45.1l-3-21.3zm180 5l16 4 22 3 13 1h12l18 6 17 11 14 17 8 18 1 18-2 18-3 11-6 11-7 7-12 9-10 6-19-3 17 24 35 43 26 25 8 15 13 13 12 13 5 7-18-3-29-2-8-1-17-5-17-3h-17l-15-4-15-1-7-1-27-6h-6l-2-19 2-18 1-28-1-18v-26l-2-19v-13l-2-12 5-21-2-21 1-21-1-24zm108.5-2.9l16.8 2.1h17.8l17.8 4.1 18.8 2.1 16.8 5.3h18.9l19.9 5.2 13.6 1.1h18.8l16.8 6.2-3.1 12.6-8.4 25.2-9.5 30.3-7.3 23.1-6.3 19.9-8.4 14.7-6.2 20.9-6.3 18.9-6.3 14.6-3.2 18.9-8.3 16.8-5.3 20.9-6.3 14.7-6.2-21-8.4-20.9-6.3-16.8-6.3-26.2-6.3-17.8-7.3-16.8-4.2-19.9-5.2-11.5-4.2-12.6-6.3-24-4.2-10.5-8.4-21-4.2-17.8-4.2-11.5-6.3-18.9zM614 6.5h17.2l16.3 7.1 24.3 3.1 17.3 2h15.2l13.2 2 17.3 5.1h20.3l16.2 4.1 12.2 1 1 46.7V107l-4.1 19.3 2.1 30.4v22.4l2 25.3-5.1 16.3-2 17.2-7.1 13.2-7.1 6.1-6.1 8.1-10.2 4.1-11.1 6.1-9.2 3-12.1 3.1-17.3-2.1-14.2-4-15.2-5.1-10.2-6.1-8.1-6.1-11.1-14.2-19.3-29.4-2.1-23.4-3-14.2v-46.7l-2-10.1 3-17.3V50.2l-3-24.4zm182-1l16 4 20 1 24 3 19 6 19 13 11 13 10 22v25l-3 16-9 16-12 11-16 10-19-3 17 24 37 42 24 26 11 18 15 14 14 18-24-6-23-1-9-1-18-5-15-2-20-1-16-5h-16l-12-2-17-5h-8l-1-19 1-19v-36l-1-44 1-17-2-19 4-21-4-18 2-33z" fill="#e0ec42"/></svg>