<svg id="Layer_1" data-name="Layer 1" xmlns="http://www.w3.org/2000/svg" viewBox="0 0 958.73 237"><path d="M0 1.02h57.21v229.85H0z"/><path d="M0 1.02h114.41v43.93H0zm0 71.51h114.41v43.93H0z"/><circle cx="206.86" cy="154.77" r="82.23"/><path d="M124.63 1.02H289.1v153.74H124.63zm179.79 0h57.21v229.85h-57.21z"/><circle cx="363.93" cy="58.99" r="58.99"/><path d="M359.07 117.99l119.02 112.88H356.52l2.55-112.88zM785.06 1.02h57.21v229.85h-57.21z"/><circle cx="844.57" cy="58.99" r="58.99"/><path d="M839.72 117.99l119.01 112.88H837.16l2.56-112.88zM426.5 1.02l86.32 229.85 80.7-229.85H426.5z"/><circle cx="685.97" cy="154.77" r="82.23"/><path d="M603.74 1.02h164.47v153.74H603.74z"/></svg>