<svg class="Logo--tilted" xmlns="http://www.w3.org/2000/svg" viewBox="0 0 447 284.9"><path d="M215.9 179.1l-1.9-2.2-4.4-7.2-6.6-6.8-6.3-7-6.2-7.1-6.3-7-5.8-7.5-5.5-7.6-.1-.5 9 1.2 7.3-4.6.2-.1c1.8-1.2 3.4-2.6 4.9-4.3l1.3-1.2 1-1.9c.9-1.4 1.6-2.9 2.2-4.5l.7-1.5.2-1.4c.6-2.3.9-4.7 1-7.2l.1-.6-.1-9.7-4.4-9.2-6.4-7.7-8-5.3-8.8-2.7h-5.2l-4.7-.3-11-1.6-8-2.2.8 9.6-.1 9-.7 8.9.9 8.1v1.8l-1.4 8.1.6 9.1-.3 9 .9 9.2.2 7.6v-.2 1.4-1.2l-.2.9.2 1.5v-.8 1-.2l-.2 8 .2 9.1-.8 8.9.6 8.7 8 1.4 8.3 1.7 6.9.1 1.4.2 1.3.2 7 2 8.3.3 8.3 1.3 8.3 2.3 8.3.5 8.3.5 8 1.6-5.6-7.2-5.7-4.7zm-14.7-17.2l.1.1-.2-.3.1.2zM171.6 127l.3.6-.3-.4v-.2zm17.3-4.2c0-.1.1-.1 0 0zm6.3-5.6l-1.1 1c.5-.6 1-1.3 1.5-2l-.4 1zm-50.5 43.7v-.3.6-.3zm56.1 26.6l-1.2-.4 2.6.4h-1.4zm79.4-4.6l-.1.7.1.8v-1.1zm.9-76.8l1.1-3.1h-.3v-.1l1 .2-7.9-2.4-8-.1-8-1.2-8-1.9h-7l-1.6-.2-7.3-2.6-8-.5-8-1.5-8-.2-7.5-1.1 2.7 8.4 3.1 8.9 2.2 9.1 3.7 8.7 2.6 9 2.5 9 3.1 6.9-.1-.3.2.6-.1-.3.2 1.1.6 1.4.2.7 1.6 7.8 3.7 8.7 2.9 8.9 2 9.2 3.5 8.8 3.5 8.8 2.4 8.7 3.5-7.3 1.6-8.7 4-7.4 1.5-8.7 3-7.9 2.7-8.1 2.6-8.1 4-7.4 2.5-8.2 2.6-8.1 2.6-8.1 2.7-8.1 2.5-8.1 1.2-5.2zm-23 67.5l-.3.6.5-1.5-.2.9zm16-46.5l-2.9 7.6-.1.1 3.7-10.9-.7 3.2zm166.8 149.7l-5.6-5.3-1.9-2.3-4.4-7.2-6.6-6.8-6.3-7-6.2-7.1-6.3-7-5.8-7.5-5.5-7.6-.1-.5 9 1.2 7.3-4.6.2-.2c1.8-1.2 3.4-2.6 4.8-4.2l1.4-1.2 1-2c.8-1.4 1.6-2.8 2.2-4.4l.7-1.5.2-1.4c.6-2.2.9-4.6 1-7.1l.1-.6-.1-9.7-4.4-9.2-6.4-7.6-8-5.3-8.8-2.7h-5.2l-4.8-.3-10.9-1.6-8-2.2.8 9.6-.1 9-.7 8.9.9 8.1v1.8l-1.4 8.1.6 9.1-.3 9 .9 9.2.2 7.6v-.2 1.2-1.1l-.2.9.2 1.5v-.7.8-.2l-.2 8 .2 9.1-.8 8.9.7 8.7 8 1.4 8.3 1.7 6.9.1 1.4.2 1.3.2 7 2 8.3.3 8.3 1.3 8.3 2.3 8.3.5 8.3.5 8 1.6-5.8-6.5zm-20.3-22.5l.2.2-.4-.5.2.3zM391 219.5l.4.6-.4-.4v-.2zm17.4-4.3zm6.3-5.5l-1.1 1c.5-.6 1-1.3 1.5-2l-.4 1zm-50.6 43.6v-.3.6-.3zm56.1 26.7l-1.2-.4 2.6.4h-1.4zM139.3 69.4l-.2-8.7-.2-8.7-.1-8.8-7.9-.9-4.8-.3-10.9-1.6-7.7-2.4-7.8-.1-7.8-1.2-7.8-1.8h-6.9l-1.5-.2-7.2-2.5-8-.5-.5 8.8.9 8.8.2 8.6v.4l-.3 8.5.2 8.7-.8 8.6.8 8.4.1-.6v2.8L61 94l-.3 7.6-.5 8.6 1.1 5.5c.2 1.8.5 3.6.9 5.4l.8 5.8 4.3 7.5 1.3 1.9c.6 1 1.2 1.9 1.9 2.8l1.6 2.4 5.3 6.9 7.1 4.4 7.5 2.8.3.1c1.6.6 3.2 1 4.8 1.4l2.5.7 7.6.5 7.2-1.5 2.3-1.1c2.3-.9 4.5-2.1 6.6-3.5l.4-.1.2-.3-.3.2c.1-.1.3-.2.4-.3l-.1.1 3.2-2.1 5.5-5.1 3.8-6.8 1-8.2 2.1-7.8-1.3-8.9.3-8.7-.1-8.7-.1-8.7 1.4-8.5-.4-8.9zm-1 35l-.2 8.5v.1-12l.2 3.4z"/><path d="M358.5 159.8l-.2-8.7-.2-8.7-.1-8.8-7.9-.9-4.8-.3-10.9-1.6-7.7-2.4-7.8-.1-7.8-1.2-7.8-1.8h-6.9l-1.6-.2-7.2-2.5-8-.4-.4 8.9.9 8.9.2 8.4v.7l-.3 8.3.2 8.7-.8 8.6.8 8.4.1-.6v2.8l-.1-.7-.3 7.6-.5 8.6 1.1 5.5c.2 1.8.5 3.6.9 5.4l.8 5.9 4.3 7.5 1.2 1.8c.6 1 1.2 1.9 1.9 2.8l1.6 2.4 5.3 6.9 7.1 4.4 7.5 2.8.3.1c1.6.5 3.2 1 4.8 1.3l2.5.7 7.6.5 7.2-1.5 2.3-1.1c2.3-.9 4.5-2.1 6.6-3.5l.4-.1.2-.3-.3.2c.1-.1.3-.2.4-.3l-.1.1 3.2-2.1 5.5-5.1 3.8-6.8 1-8.2 2.1-7.8-1.3-8.9.3-8.7-.1-8.7-.1-8.7 1.4-8.5-.3-9zm-1 35l-.2 8.5v.2-12.1l.2 3.4zM61 92.5l-.1.7.1.8v-1.1zm-6-72v-4.3.2-7 6.8l1-7.8-8.2-.3L40 6.9l-7.8-1.8h-6.9l-1.6-.2-7.2-2.5-7.8-.6L.4.5l.7 9.6.2 8.9v.4L1 28.2l.2 9.1-.8 8.9.8 9.2-.4 9-.5 9 .8 7.6v3l-1 7.5.8 9.2-.1 9-.6 9.3 9.8.9 9.3.7 9.1 1.6 1-7.8-.6-8.4-.3-8.3-.1-8.3-.3-8.3.5-8.2.6-7.6 8.5 1.5 8.9-.1 9.5 2.6-1-8.7.3-7.8.1-7.5-8.7-1-8.9-2.7-8.5-.7-.4-12.2 8.6 1.2 8.9 1.2 8.8 1-.3-5v-6.6zM28.2 35.6v-1.9l.1 1.1-.1.8zm0 52.6l-.2 1.2v-2.6l.2 1.4zm26.7-31.5v.2-.3.1z"/></svg>