<svg id="Layer_1" data-name="Layer 1" xmlns="http://www.w3.org/2000/svg" viewBox="0 0 698.75 146.67"><defs><style>.cls-1,.cls-2{stroke:#000}.cls-2{stroke-miterlimit:10}</style></defs><path class="cls-1" d="M18.5 144.5h-1V.5A.5.5 0 0 1 18 0h72a.5.5 0 0 1 .5.5v18h-1V1h-71v143.5z" transform="translate(.5 .5)"/><path class="cls-1" d="M63.5 73.5h-45v-1h45v1zm-27 72H.5v-1h36v1zm-18-144H.5v-1h18v1z"/><path class="cls-2" d="M35.5 1h2v71.67h-2zM41 1h1.8v71.67H41zm5.5 0h1.6v71.67h-1.6zM52 1h1.4v71.67H52zm5.5 0h1.2v71.67h-1.2zM63 1h1v71.67h-1z"/><path class="cls-1" d="M18.5 1h18v144h-18zm191.02 99.25h-1v-99h1v99z"/><path class="cls-1" d="M227.02 1.75h-36v-1h36v1zm-107.5 98.5h-1v-99h1v99z"/><path class="cls-1" d="M137.02 1.75h-36v-1h36v1z"/><path class="cls-1" d="M163.52 145.25A45.55 45.55 0 0 1 118 99.75h1a44.5 44.5 0 0 0 89 0h1a45.55 45.55 0 0 1-45.5 45.5z" transform="translate(.5 .5)"/><path class="cls-1" d="M191.52 99.75a28 28 0 0 1-56 0h-17a45 45 0 0 0 90 0zm99.23-26.17v-1a35.5 35.5 0 0 0 0-71v-1a36.5 36.5 0 0 1 0 73z" transform="translate(.5 .5)"/><path class="cls-1" d="M291.25 2.08h-36v-1h36v1zm0 72h-36v-1h36v1z"/><path class="cls-1" d="M255.75 145.58h-1v-144h1v144z"/><path class="cls-1" d="M273.25 146.08h-36v-1h36v1zm-18-144h-18v-1h18v1zm71.65 143.85l-72-72 .7-.71 72 72-.7.71z"/><path class="cls-1" d="M345.25 146.08h-36v-1h36v1zm-90-144.5h17.67v144h-17.67z"/><path class="cls-1" d="M391.52 145.25a.5.5 0 0 1-.47-.33l-54-144 .95-.35 53.54 142.75L445.05.57l.93.35-54 144a.48.48 0 0 1-.46.33z" transform="translate(.5 .5)"/><path class="cls-1" d="M356.02 1.75h-36v-1h36v1zm108 0h-18v-1h18v1z"/><path class="cls-2" transform="rotate(-20.42 379.507 59.84)" d="M376.93-3.29h2v128.52h-2z"/><path class="cls-2" transform="rotate(-16.98 383.915 59.465)" d="M381.1-1.99h1.91v125.75h-1.91z"/><path class="cls-2" transform="rotate(-13.4 388.465 58.924)" d="M385.27-.93h1.82v123.45h-1.82z"/><path class="cls-2" transform="rotate(-9.69 393.674 58.025)" d="M389.44-.12h1.73v121.66h-1.73z"/><path class="cls-2" transform="rotate(-5.9 399.381 55.992)" d="M393.61.43h1.64v120.38h-1.64z"/><path class="cls-2" transform="rotate(-2.04 412.123 46.666)" d="M397.78.71h1.55v119.64h-1.55z"/><path class="cls-2" transform="rotate(-88.15 403.193 60.428)" d="M342.95 59.72h119.46v1.45H342.95z"/><path class="cls-2" transform="matrix(.1 -.99 .99 .1 306.48 459.56)" d="M346.89 59.68h119.82v1.36H346.89z"/><path class="cls-2" transform="rotate(-80.47 411.445 60.236)" d="M350.56 59.63h120.73v1.27H350.56z"/><path class="cls-2" transform="rotate(-76.63 415.61 60.115)" d="M353.96 59.59h122.17v1.18H353.96z"/><path class="cls-2" transform="rotate(-73.03 419.735 60.02)" d="M357.11 59.55h124.13v1.09H357.11z"/><path class="cls-2" transform="rotate(-69.4 423.932 59.884)" d="M360 59.51h126.58v1H360z"/><path class="cls-1" d="M338.02 1.25h18l44.83 120.44-8.83 23.56-54-144zm224.5 99h-1v-99h1v99z"/><path class="cls-1" d="M580.02 1.75h-36v-1h36v1zm-107.5 98.5h-1v-99h1v99z"/><path class="cls-1" d="M490.02 1.75h-36v-1h36v1z"/><path class="cls-1" d="M516.52 145.25A45.55 45.55 0 0 1 471 99.75h1a44.5 44.5 0 0 0 89 0h1a45.55 45.55 0 0 1-45.5 45.5z" transform="translate(.5 .5)"/><path class="cls-1" d="M544.52 99.75a28 28 0 0 1-56 0h-17a45 45 0 0 0 90 0zm99.23-26.17v-1a35.5 35.5 0 0 0 0-71v-1a36.5 36.5 0 0 1 0 73z" transform="translate(.5 .5)"/><path class="cls-1" d="M644.25 2.08h-36v-1h36v1zm0 72h-36v-1h36v1z"/><path class="cls-1" d="M608.75 145.58h-1v-144h1v144z"/><path class="cls-1" d="M626.25 146.08h-36v-1h36v1zm-18-144h-18v-1h18v1zm71.65 143.85l-72-72 .7-.71 72 72-.7.71z"/><path class="cls-1" d="M698.25 146.08h-36v-1h36v1zm-90-144.5h17.67v144h-17.67z"/></svg>