<svg xmlns="http://www.w3.org/2000/svg" viewBox="0 0 957 609.5"><path d="M.5 0l16 4h19l16 7h18s7 2 19 4 32 3 32 3l-2 17v23l-1 11-20-3-29-4h-6l1 26h18l15 6 21 4v30l3 20-20-5h-21l-17-3-2 24v40l3 41-3 17-15-3-45-4 4-19-.5-22.5-4-20 4-17-3-20 2-38-2-22 2-17v-19l1-29L.5 0zM130 67.5l16 1 16 6h20l18 3 17 4h16l18 6 25 4h22v77l-2 17v56l2 20-4 16-2 18-8 14-20 16-14 8-10 2-14 5-21-5-20-7-19-11-12-17-14-20-4-9-4-20-2-16 1-37-1-18 1-19v-37l-1-17-3-21zm178 65l16 4 22 3 13 1h12l18 6 17 11 14 17 8 18 1 18-2 18-3 11-6 11-7 7-12 9-10 6-19-3 17 24 35 43 26 25 8 15 13 13 12 13 5 7-18-3-29-2-8-1-17-5-17-3h-17l-15-4-15-1-7-1-27-6h-6l-2-19 2-18 1-28-1-18v-26l-2-19v-13l-2-12 5-21-2-21 1-21-1-24zm128 63l16 2h17l17 4 18 2 16 5h18l19 5 13 1h18l16 6-3 12-8 24-9 29-7 22-6 19-8 14-6 20-6 18-6 14-3 18-8 16-5 20-6 14-6-20-8-20-6-16-6-25-6-17-7-16-4-19-5-11-4-12-6-23-4-10-8-20-4-17-4-11-6-18zm163 66h17l16 7 24 3 17 2h15l13 2 17 5h20l16 4 12 1 1 46v29l-4 19 2 30v22l2 25-5 16-2 17-7 13-7 6-6 8-10 4-11 6-9 3-12 3-17-2-14-4-15-5-10-6-8-6-11-14-19-29-2-23-3-14v-46l-2-10 3-17v-52l-3-24zm180 69l16 4 20 1 24 3 19 6 19 13 11 13 10 22v25l-3 16-9 16-12 11-16 10-19-3 17 24 37 42 24 26 11 18 15 14 14 18-24-6-23-1-9-1-18-5-15-2-20-1-16-5h-16l-12-2-17-5h-8l-1-19 1-19v-36l-1-44 1-17-2-19 4-21-4-18 2-33z" fill="#727272"/></svg>