<svg id="speckles" xmlns="http://www.w3.org/2000/svg" viewBox="0 0 622.5 601.5"><style>.Speckle--green{fill:#e1ed45}.Speckle--purple{fill:#372b6a}.Speckle--orange{fill:#f36200}.Speckle--lightBlue{fill:#98d2e0}.Speckle--yellow{fill:#faf300}.Speckle--lavender{fill:#372b6a}.Speckle--blue{fill:#0c12f0}.Speckle--darkPurple{fill:#361e1b}</style><path class="Speckle--green" d="M238 379.1c1.6-1.2 2.6-2.5 4.5-3 3.4-.8 5.4 1.5 5.8 4 .3 1.6.3 3.3.2 4.9-.1 2-1.5 3.4-2.9 4.6-1.5 1.2-3.1 1.7-5.2 1.4-2.6-.4-4.1-2.1-4.4-4.3-.4-2.9-.1-5.7 2-7.6z"/><path class="Speckle--purple" d="M246 479.5c0 .2.1.6 0 .7-1 1.2-1.7 2.6-2.6 3.8-.6.7-1.7 1.2-2.7 1.4-2.1.5-4.2.2-6.2-.5s-3.1-2.4-2.9-4.6c.2-3.3 2-5.6 4.7-7.3 1.7-1 4.5-.6 5.8.9 1.6 1.7 3.1 3.4 3.9 5.6z"/><path class="Speckle--orange" d="M283.6 229.1c-2.2-2.2-2.2-6.4.1-8.5 2.4-2.1 5.6-2.3 8.2-.1 2 1.6 2.1 6.6.2 8.6-1.7 2-6.6 2-8.5 0z"/><path class="Speckle--lightBlue" d="M207.2 297.9c-.6-.5-.9-.8-1.3-1.1-1-.8-1.8-1.7-1.6-3.2.2-1.7.6-3.2 2.2-4.1 1-.6 2-.7 3-.5 1.6.3 3.2 1.1 3.9 2.7.8 1.8.2 3.7-1.1 5.2-.4.5-1.2.8-1.8.9-1.1.1-2.1.1-3.3.1z"/><path class="Speckle--yellow" d="M245 345.9c-.4-1.3-.9-2.4-1.2-3.6-.4-1.4.2-2.5 1.3-3.4 1-.8 2.1-.8 3.3-.4 1.9.8 3 2.1 3.2 4.2.2 1.7-.9 2.8-2.6 2.9-1.4.1-2.6.2-4 .3z"/><path class="Speckle--lavender" d="M259 322.8c1.1 1.1 1.2 2.6.1 3.7-1.1 1.1-2.8 1-4-.2-.9-1-.8-2.6.2-3.7 1.1-1.1 2.6-1 3.7.2z"/><path class="Speckle--purple" d="M389.4 354.3c-1.6-1.6-1.3-3.7.5-4.6 1.2-.6 3.1.2 3.8 1.5.6 1-.1 2.4-1.4 3.1-1.1.6-2.2.6-2.9 0z"/><path class="Speckle--yellow" d="M298.5 355.8c-.7-.7-.7-1.9-.1-2.5.8-.9 2.4-.9 3.1 0 .7.8.6 2.2-.1 2.9-.8.5-2.2.4-2.9-.4z"/><path class="Speckle--purple" d="M180.9 378.3c-.9.9-2.2.9-3.1-.1-.7-.7-.6-1.7.1-2.5.9-.9 2.2-.8 3.1.1.7.7.6 1.8-.1 2.5z"/><path class="Speckle--yellow" d="M416.5 322.6c.9.1 1.6-.1 2 .2.6.3 1.1.9 1.4 1.5.4.9-.1 1.9-1.1 2.2-.8.3-1.9-.2-2.2-1.2-.1-.4 0-.9 0-1.4 0-.3-.1-.7-.1-1.3z"/><path class="Speckle--purple" d="M96.1 304.8c.7-.8 2-.9 2.8-.2.7.6.8 1.9.1 2.5-.7.7-2.2.8-2.9.2-.6-.5-.6-1.8 0-2.5z"/><path class="Speckle--lightBlue" d="M412 214.7c-.8-.7-.8-2.4-.1-3.1.4-.4 1.7-.4 2.2.1.7.7.9 2 .3 2.8-.4.7-1.8.8-2.4.2z"/><path class="Speckle--orange" d="M343.1 312.8c-.7-.6-.7-1.7.1-2.4.6-.5 1.4-.5 2.2 0 .8.6 1 1.7.3 2.4-.8.6-1.9.6-2.6 0z"/><path class="Speckle--blue" d="M487.9 245.3c-.6-.6-.6-1.7 0-2.1.6-.5 1.7-.5 2.2 0 .6.5.7 1.6.2 2.2-.5.6-1.7.6-2.4-.1z"/><path class="Speckle--yellow" d="M334.9 176.6c-.5-.7-.4-1.5.3-2.1.7-.6 1.7-.4 2.3.5.5.7.4 1.6-.2 2.1-.7.6-1.8.4-2.4-.5z"/><path class="Speckle--darkPurple" d="M354.9 284.1c-.5-.4-.5-1.2-.1-1.8.4-.6 1.3-.7 1.8-.3.5.5.8 1.1.4 1.8s-1.5.8-2.1.3z"/><path class="Speckle--yellow" d="M338.9 219c.1-.4.2-1.1.5-1.6.4-.5 1.3-.4 1.8.1s.5 1.4 0 1.9c-.5.6-1.6.5-2.3-.4z"/><path class="Speckle--purple" d="M386.8 276.7c.1-.3 0-.9.2-1.3.5-.7 1.6-.6 2 .1.3.6.2 1.1-.3 1.5-.5.6-1.2.5-1.9-.3z"/><path class="Speckle--blue" d="M140.8 264.2c-.7-.9-.6-1.8.1-2.3.5-.4 1.1-.3 1.5.1.6.6.7 1.7 0 2.1-.5.2-1.2.1-1.6.1z"/><path class="Speckle--orange" d="M402.2 409.5c-.6.8-1.5.8-2 .4-.6-.5-.6-1.3-.1-1.8s1.5-.7 1.8-.1c.3.4.2 1.1.3 1.5z"/><path class="Speckle--blue" d="M207.8 400.7c-.8-.2-1.4-.2-1.8-.5-.5-.4-.3-1.4.2-1.8.4-.3 1.3-.3 1.5.2.2.6.1 1.2.1 2.1z"/><path class="Speckle--lightBlue" d="M274 272c-.5-.6-.4-1.4.1-1.8.5-.4 1.5-.3 1.8.3.3.5.3 1.1-.1 1.5-.5.5-1.3.5-1.8 0z"/><path class="Speckle--orange" d="M153.7 307.5c.8-.7 1.9-.7 2.3 0 .4.5.4 1.1-.1 1.6-.6.6-1.7.5-2.1-.2-.2-.5-.1-1.1-.1-1.4z"/><path class="Speckle--darkPurple" d="M333.9 216.1c0-.7-.1-1.3.1-1.7.3-.5 1-.4 1.5-.1.6.4.6 1.5.1 1.7-.5.2-1 .1-1.7.1z"/><path class="Speckle--purple" d="M220 352.8c.9.1 1.6 0 2.2.3.5.3.4 1.4 0 1.9s-1.5.6-1.8 0c-.3-.6-.2-1.3-.4-2.2z"/><path class="Speckle--orange" d="M405.4 252c.2-.8.2-1.4.4-1.8.3-.4 1.2-.2 1.5.2.4.5.4 1.2-.2 1.5-.3.3-.9.1-1.7.1z"/><path class="Speckle--darkPurple" d="M473.4 304.2c.8-.6 1.7-.5 2 .2.3.5.3 1.1-.2 1.6-.5.4-1.5.3-1.8-.4-.1-.5 0-1.1 0-1.4z"/><path class="Speckle--blue" d="M356.2 237c.4.1 1.1.1 1.6.4.2.2.1 1.1-.2 1.5-.4.6-1.3.4-1.7-.2-.4-.5-.5-1.1.3-1.7z"/><path class="Speckle--purple" d="M337.6 303.6c-.9-.2-1.6-.2-2.1-.5s-.3-1.4.3-1.8c.6-.4 1.5-.3 1.7.4.2.5.1 1.1.1 1.9z"/><path class="Speckle--green" d="M363.7 253.2c.8.1 1.4.1 1.8.4.5.3.7.9.3 1.5-.4.6-1.4.6-1.8 0-.2-.5-.1-1.1-.3-1.9z"/><path class="Speckle--purple" d="M388.8 63c0-.9-.2-1.6 0-2.1.3-.4 1-.4 1.5 0 .6.5.8 1.4.2 1.8-.4.3-.9.2-1.7.3zm78 327.9c0 .7.1 1.3-.1 1.7-.3.6-.9.6-1.4.3-.5-.3-.7-1.5-.3-1.7.5-.3 1.1-.2 1.8-.3zm-88.3-88.5c.6-.4 1.2-.7 1.9-.3.5.3.7 1.1.4 1.5-.3.5-1.1.6-1.5.1-.4-.4-.6-1-.8-1.5v.2z"/><path class="Speckle--orange" d="M338.6 279.7c0 .8.1 1.3-.1 1.8-.3.6-1.3.6-1.7 0-.4-.5-.4-1.2.1-1.5.3-.3.9-.2 1.7-.3z"/><path class="Speckle--yellow" d="M390 213.3c.7.2 1.2.2 1.5.4.4.5.4 1.1-.2 1.5-.3.2-1.1.1-1.2-.1-.2-.5-.1-1-.1-1.8z"/><path class="Speckle--green" d="M323.8 276.5c0-.7-.1-1.1 0-1.5.2-.5 1.2-.6 1.4-.2.2.3.2.9 0 1.2-.2.3-.8.3-1.4.5z"/><path class="Speckle--yellow" d="M430.9 405.3c0-.3-.1-1 .1-1.3.4-.5 1.1-.5 1.5.1.2.3.2.9.1 1.2-.3.5-1 .6-1.7 0z"/><path class="Speckle--darkPurple" d="M391.7 378c.1-.5.1-.9.2-1.1.4-.5 1.1-.5 1.5-.1.2.2.1 1.1 0 1.2-.5.1-1 0-1.7 0z"/><path class="Speckle--green" d="M454.3 428.1c-.7-.1-1.2 0-1.5-.2-.2-.2-.3-.8-.2-1.1.2-.3.7-.3 1.1-.4.2.4.3.9.6 1.7z"/><path class="Speckle--blue" d="M548.7 329.8c-.8-.2-1.4-.2-1.7-.5-.2-.2-.2-.9 0-1.2.4-.4 1.1-.3 1.5.2.1.2 0 .7.2 1.5z"/><path class="Speckle--yellow" d="M305.5 257c-.6-.2-1.1-.2-1.4-.4-.5-.3-.4-1.2.1-1.5.5-.3 1.3-.1 1.5.4.1.4-.1.9-.2 1.5z"/><path class="Speckle--lavender" d="M393.4 264.9c-.6.6-1.4.5-1.6 0-.1-.3-.1-.7.1-.9.3-.6 1.2-.7 1.4-.2.1.4.1.9.1 1.1z"/><path class="Speckle--purple" d="M410.2 205.5c-.7-.1-1.2 0-1.5-.2-.5-.3-.5-1.2 0-1.5.3-.1.9-.1 1.2.2.2.3.2.9.3 1.5z"/><path class="Speckle--green" d="M316.8 346.8c-.2 1.3-.2 1.9-.4 2.4-.1.2-.6.4-.8.4-.2-.1-.5-.6-.4-.7.3-.6.7-1.1 1.6-2.1z"/><path class="Speckle--darkPurple" d="M398.2 329c0-.7-.1-1.3.1-1.5.2-.2.8-.3 1.1-.1.5.2.5.8.1 1.1-.2.3-.7.3-1.3.5z"/><path class="Speckle--purple" d="M118.8 471.6c0-.3-.1-.9.1-1.3.1-.2.8-.2 1.2-.1.5.2.6.7.3 1.1-.3.6-1 .8-1.6.3z"/><path class="Speckle--blue" d="M378.5 302.3c-.5.1-1 .4-1.6.4-.2 0-.6-.3-.7-.6-.1-.2.1-.7.3-.8.2-.2.7-.2.9 0 .4.3.8.8 1.1 1.2v-.2z"/><path class="Speckle--yellow" d="M426.6 257.4c-.7-.1-1.3 0-1.5-.2-.2-.2-.3-.8-.2-1.1.2-.4.8-.5 1.1-.1.3.3.4.7.6 1.4z"/><path class="Speckle--lavender" d="M325.8 405c.6.2 1.2.2 1.3.5.2.3 0 .8-.1 1.1-.4 0-.9 0-1.1-.2-.2-.2 0-.7-.1-1.4z"/><path class="Speckle--purple" d="M80.3 401c-.3.4-.5.8-.8 1.1-.3.3-.8.6-1.1.1-.1-.2.2-.8.4-1.1.5-.5 1-.6 1.5-.1zm20.8 8c.3.2.8.4.7.6-.1.6-.3 1.2-.6 2.2-1-1.3-.3-2 0-2.8h-.1z"/><path class="Speckle--purple" d="M80.3 401c.4-.9.7-1.9 2.1-2.2-.4 1.2-1.3 1.7-2.1 2.2z"/><path class="Speckle--orange" d="M562 170c0-.7-.1-1.3 0-1.5.2-.2.8-.2 1.1 0 .2.1.3.7.2.9-.2.2-.7.3-1.3.6z"/><path class="Speckle--purple" d="M75.8 380.7c.1.3.2.6.1.7-.3.3-.7.5-1.1.6-.1 0-.4-.5-.6-.7.3-.2.5-.4.8-.5.3-.1.6-.1.8-.1z"/><path class="Speckle--yellow" d="M284.7 309.5c.1-.8.1-1.3.3-1.7.1-.1.8-.2.8-.1.2.5.3 1 .3 1.5 0 0-.6.1-1.4.3z"/><path class="Speckle--green" d="M161.4 253.3c.1-.6 0-1 .1-1.1.3-.1.7-.1 1.1-.1 0 .3.1.7 0 .8-.2.2-.6.2-1.2.4z"/><path class="Speckle--lavender" d="M354 370.4c0-.8-.2-1.3 0-1.5.2-.2.8-.2 1.1 0 .2.1.3.7.2.9-.2.2-.6.3-1.3.6z"/><path class="Speckle--darkPurple" d="M300.3 362c.6.1 1 .1 1.2.2.4.4.3.9-.1 1.1-.2.1-.8.1-.9-.1-.3-.3-.2-.7-.2-1.2z"/><path class="Speckle--purple" d="M236.8 514.4c.3-.8.6-1.5 1.6-1.5.2 0 .4.2.4.3 0 .2-.1.5-.2.6-.5.3-1.2.4-1.8.6zm51-249.6c-.4-.2-.7-.3-.9-.5-.1-.1 0-.6 0-.6.3 0 .7-.1.9.1.2.1 0 .5 0 1z"/><path class="Speckle--darkPurple" d="M289.6 238.6c-.4-.2-.7-.3-1-.5-.1 0 .1-.5.1-.5.4.1.7.2 1.1.3 0 .1-.1.3-.2.7z"/><path class="Speckle--lightBlue" d="M341.8 363c0-.4 0-.9.1-1 .2-.2.6 0 .9 0 0 .3.1.8 0 .9-.1.2-.5.1-1 .1z"/><path class="Speckle--darkPurple" d="M362.1 233.8c-.4-.1-.8 0-1-.1-.2-.2-.1-.6-.1-.9.3 0 .7-.1.9.1.2 0 .1.4.2.9zm-59.2 62.6v-1.1c.4-.1.8-.1 1.1 0 .1 0 .1.7 0 .8-.2.2-.6.2-1.1.3z"/><path class="Speckle--purple" d="M419.8 227c-.4 0-.8.1-.9-.1-.2-.2-.3-.5-.4-.8.4-.1.8-.2 1.2-.1 0 0 0 .5.1 1z"/><path class="Speckle--lavender" d="M400.4 314.4c0 .5 0 1-.1 1.3-.1.1-.8.2-.9 0-.2-.3-.2-.8-.2-1.2.3 0 .6-.1 1.2-.1z"/><path class="Speckle--purple" d="M211.4 86.2v-1h1.1c0 .3.1.7-.1.9-.2.2-.6.1-1 .1z"/><path class="Speckle--green" d="M404.7 340.8c.1-.4 0-.8.2-1 .2-.2.6-.3.9-.2.4.1.4.9 0 1.1-.3.2-.6.1-1.1.1zm-191.9-4.5c.1-.5.1-.8.2-1 .1-.1.5-.1.5-.1.1.2.2.5.2.8-.1.1-.4.2-.9.3z"/><path class="Speckle--darkPurple" d="M231.3 304.2c-.1-.3-.1-.5-.2-.8.3-.1.6-.2.8-.1.1 0 .2.5.2.6-.2.1-.5.2-.8.3z"/><path class="Speckle--yellow" d="M497.1 221.8c0-.2 0-.4.1-.6.3.1.5.1.8.2-.1.2-.1.5-.3.6-.1 0-.4-.1-.6-.2z"/><path class="Speckle--green" d="M297.1 260.7h-.6c.1-.3.1-.5.2-.8.2.1.5.1.6.3.1 0-.1.3-.2.5z"/><path class="Speckle--lightBlue" d="M438.1 306.8c0-.5 0-.8.1-1 .1-.1.5-.3.6-.2.2.2.4.6.3.8-.1.1-.5.2-1 .4zm-155.4-96.5c.1-.5.1-.8.2-1.1.2 0 .4 0 .6.1.1.1.2.4.2.6-.3.1-.5.2-1 .4z"/><path class="Speckle--green" d="M419.5 329.4c-.1-.3-.2-.5-.2-.7.3-.1.6-.1.9-.1.1 0 .2.5.2.6-.3 0-.6.1-.9.2z"/><path class="Speckle--blue" d="M378.8 377.3c0-.4-.1-.7-.1-1 .3 0 .7-.2.8 0 .2.1.2.5.2.8-.2 0-.5.1-.9.2z"/><path class="Speckle--yellow" d="M334.9 326.6c.4.1.7.1.9.2.4.3.3.8-.1 1-.2.1-.7-.1-.8-.3-.1-.1 0-.5 0-.9z"/><path class="Speckle--purple" d="M382.2 278.8c-.5 0-.8.1-1.1 0-.1 0-.2-.5-.2-.6.2-.2.6-.4.8-.4.2.2.3.6.5 1z"/><path class="Speckle--darkPurple" d="M353.6 203.3c-.1.5-.1.8-.2 1 0 0-.4 0-.5-.1-.1-.1-.2-.4-.2-.5.1-.2.4-.3.9-.4z"/><path class="Speckle--purple" d="M547.9 230.3c-.3.1-.5.1-.7.2-.1-.3-.2-.6-.1-.8 0-.1.4-.2.6-.2 0 .2.1.5.2.8z"/><path class="Speckle--lightBlue" d="M378 195.6c-.5-.1-.9 0-1-.1-.2-.2-.1-.6-.1-.9.3 0 .6-.1.8.1.2.1.2.4.3.9z"/><path class="Speckle--blue" d="M404.9 179.8c-.4.1-.6.1-.8.2-.1-.3-.1-.6-.2-.9.2 0 .5-.2.6-.1.2.2.3.5.4.8z"/><path class="Speckle--green" d="M265.9 354.5c0-.2.1-.4.1-.6.3.1.5.2.8.3-.1.2-.2.4-.4.5-.1 0-.4-.2-.5-.2z"/><path class="Speckle--purple" d="M607.1 266.8h-.6c0-.3.1-.5.1-.8.2.1.4.1.5.2.1.2 0 .4 0 .6zM345.9 522.3c.2-.4.2-.9.4-.9.2-.1.5.1.8.3.1 0 0 .5-.1.6h-1.1zm20.9-32.1c0-.4-.1-.8 0-1 0-.1.5-.2.5-.2.2.2.3.5.5.8-.3 0-.6.2-1 .4z"/><path class="Speckle--lightBlue" d="M270.4 353.1c-.5 0-.9.1-1 0-.2-.2-.2-.7-.1-.8.1-.2.6-.2.8-.1.1.1.1.5.3.9z"/><path class="Speckle--purple" d="M354.7 267.6c-.1-.3-.3-.7-.2-.7l.9-.3c.1.3.2.6.2.9-.3 0-.6 0-.9.1z"/><path class="Speckle--lavender" d="M395.4 246.5c.2-.4.3-.7.5-.9.3.1.6.2.8.4.1.1-.1.5-.2.5-.3.2-.6.1-1.1 0z"/><path class="Speckle--purple" d="M314.4 473.4c0 .4.1.8 0 1 0 .1-.5.2-.5.2-.2-.2-.3-.5-.4-.8.2-.1.4-.2.9-.4z"/><path class="Speckle--green" d="M346.8 208.8c0-.2.1-.4.1-.5.2 0 .5.1.7.1-.1.2-.1.4-.3.5-.1.1-.3 0-.5-.1z"/><path class="Speckle--purple" d="M77.3 281.4c0 .2-.1.4-.1.6-.3-.1-.5-.1-.8-.2.1-.2.1-.5.3-.5.2 0 .4.1.6.1zm178.4-174.9v-.6c.2.1.5.1.7.2 0 .2-.1.3-.1.5-.3 0-.4 0-.6-.1z"/><path class="Speckle--darkPurple" d="M150.2 227c0-.2.1-.3.1-.5.2.1.5.2.7.2-.1.2-.2.4-.3.5-.1.1-.3-.1-.5-.2z"/><path class="Speckle--purple" d="M337.5 112.2c.1-.2.1-.4.2-.6.2.1.5.2.7.3-.1.2-.2.5-.3.5-.2 0-.4-.1-.6-.2zM182.2 303c-.1-.3-.2-.5-.3-.7.3-.1.5-.2.8-.1.1 0 .2.4.2.5-.2.1-.5.2-.7.3zm-68.3 110.1l-.4-.4s.1-.2.1-.3l.4.4s0 .1-.1.3z"/><path class="Speckle--darkPurple" d="M378.3 386.4c-.3.1-.5.2-.7.3-.1-.3-.2-.5-.3-.8.2-.1.4-.2.5-.1.2.1.3.3.5.6z"/><path class="Speckle--purple" d="M423.3 345.5c0 .2.2.4.1.5-.1.2-.3.2-.5.3-.1-.2-.2-.4-.1-.6 0-.1.3-.2.5-.2z"/><path class="Speckle--green" d="M455.9 318.5c.1-.2.1-.4.2-.6.2.1.5.1.6.3.1.1-.1.4-.2.5-.2 0-.4-.1-.6-.2z"/><path class="Speckle--purple" d="M527 278.5c0-.1-.1-.2-.1-.3h.6v.3c-.2-.1-.4-.1-.5 0zM413.8 463.2c0-.1.1-.2.1-.3.1 0 .2.1.3.1 0 .1-.1.2-.1.3-.1 0-.2-.1-.3-.1zM622 255.9c-.1-.2-.2-.4-.2-.6.2-.1.4-.2.6-.2.1 0 .2.4.1.5-.1.2-.3.2-.5.3zM436.8 446.2c.2.1.4.2.6.2-.1.2-.2.4-.3.5-.1.1-.4-.1-.5-.2.1-.1.2-.3.2-.5zm-53.7 94c-.1-.2-.1-.4-.2-.6.3 0 .5 0 .8.1.1.1.1.4.1.6-.3-.1-.5-.1-.7-.1zm224.2-208.9v-.5c.3.1.5.1.8.2-.1.2-.1.4-.3.5 0 0-.3-.1-.5-.2zm-294-50.5c0-.2-.1-.4-.1-.6h.6l.1.3c-.2.2-.4.2-.6.3zm-6.6 43.1l-.6-.3c.1-.2.1-.4.3-.5.1-.1.5.1.5.2 0 .2-.2.4-.2.6z"/><path class="Speckle--darkPurple" d="M294.6 409.2c0-.2 0-.4.1-.6.2 0 .5.1.7.1-.1.2-.1.5-.2.6-.1.1-.4 0-.6-.1z"/><path class="Speckle--green" d="M293.7 415.8h-.6c0-.2 0-.4.1-.5 0 0 .3-.1.3 0 .1.1.1.3.2.5z"/><path class="Speckle--purple" d="M364.5 369.6c0-.2-.1-.4-.1-.6.3 0 .6.1.9.1-.1.2-.1.5-.2.6-.1.1-.4-.1-.6-.1zm43.3-40.5c.1.3.1.5.2.7-.3 0-.6.2-.8.1-.1 0-.2-.4-.2-.6.2 0 .5-.1.8-.2zm13.6 8.8c-.2-.1-.4-.1-.5-.2-.1-.1 0-.3 0-.5.2.1.4.1.5.2.1.1 0 .3 0 .5zm-64.3 62.4l.2-.2.1.3zm-25.8 21.4c-.1 0-.2 0-.2-.1v-.2c.1 0 .2 0 .2.1v.2z"/><path class="Speckle--green" d="M486.1 214.6c0-.1 0-.2.1-.3.1 0 .2.1.4.1-.1.1-.1.2-.2.2-.1.1-.2.1-.3 0z"/><path class="Speckle--purple" d="M431.4 265.8c-.2-.1-.3-.1-.5-.2v-.3c.2.1.4.2.5.3.1-.1.1.1 0 .2zM213.3 480.4c-.2 0-.4.1-.5.1-.1-.2-.1-.4-.1-.5l.3-.1c.1.1.2.3.3.5zm245.4-247.2l.2-.1-.1.2zM352.1 338.9c0-.1.1-.2.1-.3.2.1.4.1.5.3v.3l-.6-.3zm38.8-39.6l.3.2-.2.1z"/><path class="Speckle--green" d="M455.4 229.5c.2 0 .4 0 .5.1.1.1 0 .3 0 .5h-.3c-.1-.2-.1-.4-.2-.6z"/><path class="Speckle--purple" d="M284.9 389.5c0-.1-.1-.2-.1-.2.1 0 .2-.2.3-.1.1 0 .1.1.2.2-.2 0-.3.1-.4.1z"/><path class="Speckle--lightBlue" d="M276.3 390c0-.1-.1-.2-.1-.2.1-.1.2-.1.3-.2 0 .1.1.2.1.2-.1.1-.2.2-.3.2z"/><path class="Speckle--purple" d="M476.3 184.9c0 .1.1.2.1.3-.1 0-.2.1-.3.1l-.1-.2c.1-.1.2-.2.3-.2zm12-13.5h.6v.5s-.3.1-.3 0c-.2-.1-.2-.3-.3-.5zM339.9 381.8c0-.1 0-.1-.1-.2.1 0 .2.1.3.1 0 0-.1 0-.2.1zm24-35.3c.2 0 .3.1.5.1-.1.2-.1.4-.2.5-.1.1-.3 0-.5-.1 0-.1.1-.3.2-.5zm88.4-91.9l-.2.1.1-.3zM319 385c.1-.1.1-.3.2-.4.1.1.3.2.4.4 0 0 0 .2-.1.2-.2 0-.4-.1-.5-.2zm195.6-15.1c-.1-.2-.1-.4-.2-.6h.3c.1.2.1.4.2.5-.1.1-.2.1-.3.1zM402 485.2l-.2.2c-.1-.2-.2-.3-.3-.5h.3c.1.1.1.3.2.3z"/><path class="Speckle--yellow" d="M505 397.7c0-.2-.1-.4 0-.5.1-.1.4-.1.5-.1v.3c-.1.2-.3.2-.5.3z"/><path class="Speckle--purple" d="M410.2 510c.1 0 .2-.1.2-.1v.4h-.3c0-.1.1-.2.1-.3zm76.4-69.2c0-.1.1-.2.1-.2.1 0 .2.1.3.2 0 0-.1.1-.1.2-.1-.2-.2-.2-.3-.2zm-25 56.2v-.3c.2.1.4.1.6.2v.3c-.2-.1-.4-.2-.6-.2zm64.2-46c0-.1 0-.2.1-.3.1 0 .2.1.4.1-.1.1-.1.2-.2.2-.1.1-.3 0-.3 0zm-66.3 75.2c.1-.2.1-.4.3-.5h.3c-.1.2-.1.4-.3.5h-.3zM356.4 415.1c-.2-.1-.3-.1-.5-.3 0 0 0-.2.1-.3h.3c0 .2 0 .4.1.6zm36.5-28.3c.1-.1.1-.3.2-.4.1.1.3.2.4.3l-.1.2c-.2 0-.3 0-.5-.1z"/><path class="Speckle--green" d="M422.3 375.4c.1-.2.1-.4.3-.5h.3c-.1.2-.2.4-.3.5 0 .1-.2.1-.3 0z"/><path class="Speckle--purple" d="M392.7 434.7c0 .1.1.1.1.2-.1 0-.2-.1-.3-.1.1 0 .1-.1.2-.1zm150-138.8c.1 0 .3-.1.3 0 .1.2.2.3.2.5-.2-.1-.4-.1-.5-.2-.1 0 0-.2 0-.3zm-169 195c0-.1-.1-.2-.1-.2h.4v.3c-.1-.1-.2-.1-.3-.1zm17.9-16.3l-.2-.1.3-.1zm17.4-16.9c-.1 0-.3.1-.3 0-.1-.2-.1-.4-.1-.5.2.1.4.1.5.2-.1 0-.1.2-.1.3zM76.1 378.6c0 .1 0 .2-.1.2h-.3c.1-.1.1-.3.2-.4l.2.2zm197.8-194.4c-.1 0-.1.1-.2.1s-.2-.1-.2-.1c.1-.1.2-.2.3-.2.1.1.1.2.1.2z"/><path class="Speckle--lavender" d="M249.8 210c0 .1-.1.2-.1.3-.1-.1-.2-.1-.3-.2.1-.1.2-.1.2-.2.1 0 .2 0 .2.1z"/><path class="Speckle--darkPurple" d="M203.1 257.9c-.2-.1-.4-.2-.5-.3 0 0 0-.3.1-.3.1-.1.3 0 .3 0 0 .2 0 .4.1.6z"/><path class="Speckle--purple" d="M78.6 385.1c0-.1-.1-.2-.1-.2.1-.1.2-.1.3-.2 0 .1.1.2.1.2-.1.1-.2.1-.3.2zm54.4-35.3h-.5v-.5s.3-.1.3 0c.1.1.1.3.2.5zM85.4 408c0-.1-.1-.2-.1-.2.1 0 .2.1.4.1-.1 0-.2 0-.3.1z"/><path class="Speckle--darkPurple" d="M250.5 247c-.2-.1-.3-.1-.5-.2 0 0 0-.2.1-.3h.3c0 .1.1.3.1.5z"/><path class="Speckle--purple" d="M160.7 342.9c.1 0 .2.1.3.1 0 0-.1.1-.1.2-.1 0-.2-.1-.2-.2-.1.1-.1 0 0-.1zM101.2 409l1.2-1.5h-.1c-.1.7-.4 1.2-1.1 1.5-.1 0 0 0 0 0zM310.8 62c-.2-.1-.3-.1-.5-.3v-.3c.2.1.3.1.5.3v.3zM97.2 299.2c0 .1-.1.2-.1.2-.1-.1-.2-.2-.3-.2.1-.1.2-.1.2-.1s.1.1.2.1zM321.5 77.9c.1-.2.1-.4.2-.5h.3c.1.1.1.3 0 .3-.1.1-.3.1-.5.2z"/><path class="Speckle--green" d="M214 194.1c.1-.1.2-.3.3-.4.1.1.3.3.3.4 0 0-.1.2-.1.3-.1-.2-.3-.3-.5-.3z"/><path class="Speckle--purple" d="M96.3 318.1l.1.2-.2-.1zm-68.6 75.3c0-.1-.1-.2-.1-.2 0-.1.2-.2.2-.1.1 0 .1.2.2.2-.1 0-.2.1-.3.1z"/><path class="Speckle--lightBlue" d="M159.8 272.2c0 .1-.1.2-.1.2-.1-.1-.2-.1-.3-.2.1-.1.1-.1.2-.1s.2.1.2.1z"/><path class="Speckle--orange" d="M267.2 174.7c-.2 0-.4 0-.6-.2-.1-.1-.1-.3-.1-.5.2 0 .4 0 .5.1.2.1.1.4.2.6z"/><path class="Speckle--green" d="M394.9 200.3c0-.1-.1-.3 0-.3.2-.1.3-.1.5-.2-.1.2-.1.4-.2.5h-.3z"/><path class="Speckle--lightBlue" d="M265.4 340.9h.3c0 .1-.1.3-.1.4-.1-.1-.2-.1-.2-.2-.1 0 0-.1 0-.2z"/><path class="Speckle--green" d="M296.3 311.7c-.2-.1-.4-.1-.5-.2-.1-.1 0-.3.1-.5.2.1.4.1.5.2 0 .1-.1.3-.1.5z"/><path class="Speckle--purple" d="M360.5 252l-.1.1c-.1 0-.2-.1-.2-.1.1-.1.2-.1.3-.2v.2zM231.6 383.4c0-.1.1-.2.1-.2.1 0 .2.1.2.1l-.1.2c-.1 0-.2-.1-.2-.1zm140.7-139.9c0-.1-.1-.2-.1-.3h.4v.3h-.3z"/><path class="Speckle--blue" d="M460.7 156.9v-.5c.2.1.3.1.5.2 0 0 0 .3-.1.3-.1.1-.2 0-.4 0z"/><path class="Speckle--purple" d="M289.9 328.9l.3.1-.2.1zm157.5-135c0-.1-.1-.2-.1-.2h.4v.3c-.1-.1-.2-.1-.3-.1zm-81.1 96.2l-.1.3-.1-.2zm16.1-14c0-.2 0-.4.1-.6.1-.1.3 0 .5 0v.3l-.6.3zm-146.1-2.7l-.2-.1.2-.1z"/><path class="Speckle--blue" d="M212.1 322.4c.1-.2.1-.4.2-.5.1-.1.3 0 .5.1-.1.2-.1.4-.2.5 0 .1-.3 0-.5-.1z"/><path class="Speckle--purple" d="M266.8 273c-.1 0-.1.1-.2.1s-.1-.1-.2-.2c.1-.1.2-.1.3-.2.1.1.1.2.1.3z"/><path class="Speckle--lightBlue" d="M328.6 214.7c0-.2.1-.3.1-.5.2.1.3.2.5.3v.3c-.2 0-.4 0-.6-.1z"/><path class="Speckle--purple" d="M299.5 245.2l-.2-.1.3-.1zm-19.1 22c0 .1-.1.2-.1.3-.1-.1-.2-.1-.3-.2.1-.1.2-.1.3-.2 0 0 0 .1.1.1zM119 443.6c-.2-.1-.3-.1-.5-.2v-.3c.2.1.4.1.5.3v.2zM310.9 271c0-.1-.1-.2-.1-.3.1 0 .3.1.4.1 0 .1 0 .2-.1.2h-.2zm39.6-33.6c0-.1.1-.2.1-.3.1.1.2.2.4.3-.1.1-.2.2-.3.2l-.2-.2zm4.2-2.8c0-.2-.1-.5-.1-.5.2-.1.4-.1.6-.2v.3c-.1.2-.3.2-.5.4zm-60.6 62.3c0-.2 0-.3.1-.5.2.1.4.1.5.3 0 0 0 .3-.1.3-.1-.1-.3-.1-.5-.1z"/><path class="Speckle--green" d="M498 162.5c-1 2.2-1.5 4.2-3.3 5.8-3.3 2.8-6.7 1.3-8.6-1.2-1.2-1.6-2.1-3.4-2.9-5.2-1-2.3-.3-4.5.6-6.6 1-2.2 2.4-3.6 4.9-4.4 3.1-1 5.6 0 7.2 2.3 2 2.7 3.4 6 2.1 9.3z"/><path class="Speckle--purple" d="M258.3 214.6c-.1-.2-.5-.5-.4-.7.5-1.9.3-3.8.7-5.6.2-1.1 1.2-2.2 2.2-3.1 2-1.7 4.4-2.6 7-3 2.6-.4 4.7.9 5.8 3.4 1.6 3.7.9 7.3-1 10.6-1.2 2.1-4.6 3.2-6.8 2.3-2.8-.9-5.5-2-7.5-3.9z"/><path class="Speckle--orange" d="M412.1 357.6c3.6 1.2 6 5.8 4.6 9.3-1.4 3.6-4.9 5.6-9 4.8-3.1-.6-5.9-6-5.1-9.3.9-3.1 6.3-5.8 9.5-4.8z"/><path class="Speckle--lightBlue" d="M447.7 484.4c.9.2 1.5.3 2 .5 1.6.3 3 .9 3.6 2.6.7 1.9 1.1 3.8 0 5.7-.7 1.2-1.8 1.9-3 2.3-2 .5-4.1.6-5.7-.8-1.9-1.6-2.3-3.9-1.7-6.3.2-.8.8-1.5 1.5-2 .9-.7 2.1-1.3 3.3-2z"/><path class="Speckle--yellow" d="M388.8 208.3c1.2 1.1 2.4 2.1 3.4 3.3 1.2 1.3 1.2 2.8.5 4.4-.6 1.4-1.8 2.1-3.4 2.2-2.5.2-4.5-.7-5.8-2.7-1.1-1.7-.6-3.6 1.2-4.7 1.3-.8 2.6-1.6 4.1-2.5z"/><path class="Speckle--lavender" d="M386.4 241.5c-1.8-.6-2.7-2.2-2.2-3.9.6-1.8 2.6-2.7 4.5-2 1.6.5 2.4 2.4 1.8 4.2-.5 1.6-2.2 2.3-4.1 1.7z"/><path class="Speckle--purple" d="M226.1 280.2c2.6.9 3.5 3.3 2 5.3-1 1.3-3.5 1.5-5 .5-1.2-.8-1.3-2.7-.2-4.2.9-1.3 2.2-1.9 3.2-1.6z"/><path class="Speckle--yellow" d="M324.7 227.5c1.1.4 1.9 1.7 1.6 2.7-.4 1.4-2.1 2.3-3.4 1.8-1.2-.5-1.9-2.1-1.5-3.2.4-1.1 2-1.7 3.3-1.3z"/><path class="Speckle--purple" d="M440.7 136.9c.5-1.5 1.9-2.2 3.4-1.6 1.1.4 1.7 1.5 1.3 2.8-.4 1.4-2 2.2-3.4 1.6-1.2-.4-1.7-1.6-1.3-2.8z"/><path class="Speckle--yellow" d="M214.3 330.1c-1 .4-1.7 1-2.3.9-.8 0-1.7-.3-2.3-.8-1-.7-.9-2.1 0-3 .7-.8 2.3-.8 3.1 0 .4.4.5 1 .8 1.5.1.3.3.7.7 1.4z"/><path class="Speckle--purple" d="M574.6 169.6c-.3 1.3-1.7 2.1-3 1.8-1.1-.3-1.9-1.6-1.6-2.7.4-1.1 2-2.1 3.1-1.8 1 .2 1.8 1.6 1.5 2.7z"/><path class="Speckle--lightBlue" d="M279.8 445.4c1.2.3 2.2 2.2 1.8 3.3-.3.7-1.7 1.4-2.5 1.2-1.2-.3-2.1-1.7-1.9-2.9.2-.9 1.6-1.8 2.6-1.6z"/><path class="Speckle--orange" d="M300.1 299.6c1.1.3 1.7 1.5 1.3 2.7-.3.9-1.3 1.4-2.4 1.2-1.3-.2-2-1.3-1.6-2.4.3-1.2 1.5-1.8 2.7-1.5z"/><path class="Speckle--blue" d="M179.6 454.7c1 .3 1.5 1.5 1.2 2.4-.4.9-1.6 1.5-2.4 1.3-.9-.2-1.6-1.4-1.4-2.3.2-1.1 1.5-1.8 2.6-1.4z"/><path class="Speckle--yellow" d="M385.5 443.9c1 .5 1.3 1.4.9 2.5-.4 1-1.7 1.4-2.8.8-.9-.5-1.3-1.5-.9-2.5s1.6-1.4 2.8-.8z"/><path class="Speckle--darkPurple" d="M303.3 337.6c.8.2 1.2 1 1.1 1.9-.2.9-1 1.5-1.8 1.3-.8-.3-1.5-.8-1.4-1.8.1-.9 1.1-1.6 2.1-1.4z"/><path class="Speckle--yellow" d="M357.3 399.7c.1.5.4 1.3.4 2-.1.8-1.2 1.2-2.1.9-.8-.3-1.3-1.3-1.1-2 .3-.8 1.6-1.4 2.8-.9z"/><path class="Speckle--purple" d="M272.5 363.5c.1.4.5 1 .5 1.6-.1 1-1.5 1.5-2.3 1-.7-.4-.8-1.1-.6-1.8.4-.9 1.3-1.2 2.4-.8z"/><path class="Speckle--blue" d="M548.6 239.2c1.3.5 1.7 1.7 1.2 2.6-.4.7-1 1-1.8.7-1-.3-1.7-1.5-1.1-2.3.4-.6 1.2-.8 1.7-1z"/><path class="Speckle--orange" d="M181.1 227c.2-1.2 1.1-1.7 2-1.5.9.2 1.4 1.1 1.2 1.9-.3.9-1.2 1.6-1.9 1.1-.6-.3-1-1.1-1.3-1.5z"/><path class="Speckle--blue" d="M398.7 127.5c1-.2 1.6-.6 2.2-.4.8.2 1.1 1.4.8 2.1-.3.6-1.3 1-1.7.6-.6-.6-.8-1.3-1.3-2.3z"/><path class="Speckle--lightBlue" d="M398.5 305.4c.8.3 1.2 1.3.9 2-.4.7-1.5 1.1-2.1.7-.6-.4-1-1-.7-1.8.2-.8 1.1-1.2 1.9-.9z"/><path class="Speckle--orange" d="M510.2 199c-.4 1.2-1.7 1.8-2.6 1.3-.7-.3-1-1-.8-1.8.3-.9 1.5-1.5 2.4-1 .5.4.7 1.2 1 1.5z"/><path class="Speckle--darkPurple" d="M364.4 400.1c.4.8.8 1.4.8 1.9-.1.8-.9 1-1.6.9-.8-.1-1.5-1.3-1.1-1.8.5-.4 1.2-.6 1.9-1z"/><path class="Speckle--purple" d="M412.2 186.8c-1.1.4-1.8.9-2.5.9s-1.2-1.3-1-2.1c.2-.8 1.3-1.5 2-1 .5.4.8 1.2 1.5 2.2z"/><path class="Speckle--orange" d="M266 401c.3 1 .6 1.6.5 2.2 0 .6-1.2.9-1.8.6-.7-.4-1.1-1.1-.7-1.8.4-.4 1.2-.6 2-1z"/><path class="Speckle--darkPurple" d="M162.5 382.1c-.5 1.1-1.6 1.4-2.3 1-.6-.4-1-1-.7-1.8.2-.7 1.4-1.1 2.1-.6.5.3.6 1 .9 1.4z"/><path class="Speckle--blue" d="M328.3 389.8c-.5.1-1.3.5-2 .4-.3-.1-.7-1.1-.6-1.7.1-.8 1.2-1.2 2-.7.7.3 1.1.9.6 2z"/><path class="Speckle--purple" d="M311.2 306.5c1.1-.3 1.9-.7 2.6-.6.8 0 1.1 1.3.7 2.1-.4.8-1.5 1.1-2.1.5-.5-.4-.7-1.1-1.2-2z"/><path class="Speckle--green" d="M311 376.3c-1 .3-1.6.6-2.1.6-.8-.1-1.3-.6-1.2-1.5.1-.8 1.2-1.4 1.9-1 .5.4.8 1.1 1.4 1.9z"/><path class="Speckle--purple" d="M390.4 598.3c.5.9 1.2 1.6 1.1 2.3 0 .6-.9 1-1.7.8-.9-.2-1.6-1.1-1.2-1.8.3-.5 1-.7 1.8-1.3zM120.9 283.6c-.4-.8-.9-1.4-.9-1.9 0-.8.7-1.1 1.4-1.1.8.1 1.6 1.2 1.3 1.8-.3.4-1 .7-1.8 1.2zm146.3 47.2c-.4.7-.9 1.5-1.9 1.4-.7-.1-1.4-.8-1.3-1.4.1-.7.8-1.3 1.6-1 .6.3 1.2.7 1.8 1.1l-.2-.1z"/><path class="Speckle--orange" d="M323.6 333.2c-.4-.9-.8-1.4-.9-2-.1-.8 1.1-1.3 1.8-1 .7.3 1.1 1.1.8 1.7-.2.5-.9.8-1.7 1.3z"/><path class="Speckle--yellow" d="M304.7 434.7c-.9.2-1.4.5-1.8.4-.7-.3-1.1-1-.6-1.7.2-.4 1.1-.7 1.3-.6.4.4.6 1 1.1 1.9z"/><path class="Speckle--green" d="M341.6 328.4c.4.7.7 1.2.8 1.6.1.7-.9 1.3-1.4 1-.4-.3-.7-.9-.6-1.3 0-.4.6-.7 1.2-1.3z"/><path class="Speckle--yellow" d="M152.1 247.8c.2.4.7 1 .6 1.5-.1.8-.9 1.1-1.7.8-.4-.2-.7-.8-.7-1.3 0-.9.7-1.3 1.8-1z"/><path class="Speckle--darkPurple" d="M210.3 255.6c.2.7.5 1 .4 1.3-.2.8-.9 1.2-1.6.9-.3-.1-.7-1.2-.6-1.3.4-.4 1.1-.6 1.8-.9z"/><path class="Speckle--green" d="M113.8 236c.8-.3 1.3-.7 1.7-.6.4.1.8.7.8 1.1 0 .4-.6.7-1 1.1-.4-.5-.8-.9-1.5-1.6z"/><path class="Speckle--blue" d="M65.8 396.4c1-.2 1.6-.5 2.2-.4.3.1.8.9.7 1.2-.2.7-1 1-1.7.6-.4-.1-.7-.7-1.2-1.4z"/><path class="Speckle--yellow" d="M372.5 339.4c.7-.2 1.3-.4 1.7-.4.7.1 1.1 1.1.7 1.7-.4.6-1.4.9-1.8.4-.3-.3-.3-.9-.6-1.7z"/><path class="Speckle--lavender" d="M271.9 380.1c.3-.9 1.3-1.4 1.8-.9.3.2.5.7.5 1-.1.8-.9 1.4-1.5 1-.4-.2-.6-.8-.8-1.1z"/><path class="Speckle--purple" d="M286.9 454.5c.8-.3 1.3-.7 1.8-.7.7 0 1.2 1.1.8 1.6-.3.3-1 .6-1.4.5-.5-.1-.7-.7-1.2-1.4z"/><path class="Speckle--green" d="M309.8 247.6c-.5-1.6-.8-2.2-.9-2.8 0-.3.4-.8.6-.8.3 0 .9.4.9.5 0 .8-.3 1.5-.6 3.1z"/><path class="Speckle--darkPurple" d="M230.7 312.7c.4.8.8 1.3.7 1.7-.1.4-.7.7-1.2.8-.6 0-1-.5-.8-1.1.3-.5.7-.8 1.3-1.4z"/><path class="Speckle--purple" d="M456.2 0c.2.4.6 1 .6 1.5 0 .3-.8.7-1.3.8-.6.1-1-.4-1-1.1.1-.7.7-1.3 1.7-1.2z"/><path class="Speckle--blue" d="M267.3 331c.5-.5.9-1 1.5-1.3.2-.1.9 0 1.1.2.2.2.3.8.2 1.1-.1.3-.6.6-.9.5-.7-.1-1.3-.4-1.9-.7-.1 0 0 .2 0 .2z"/><path class="Speckle--yellow" d="M239.8 407c.9-.3 1.4-.7 1.7-.6.4.1.8.7.8 1.1 0 .6-.6.9-1.1.7-.4-.1-.7-.6-1.4-1.2z"/><path class="Speckle--lavender" d="M267.2 189.1c-.8.1-1.4.4-1.7.2-.3-.2-.4-.8-.5-1.3.5-.2 1-.6 1.4-.4.2.1.4.7.8 1.5z"/><path class="Speckle--purple" d="M537.9 55.6c.1-.5.1-1.1.2-1.6.2-.5.6-1.1 1.1-.7.3.2.2 1 .1 1.4-.1.8-.6 1.2-1.4.9zm-27.2 2.9c-.4-.1-1.1 0-1.1-.2-.3-.7-.3-1.5-.6-2.7 1.8.8 1.5 2 1.6 3l.1-.1z"/><path class="Speckle--purple" d="M537.9 55.5c.1 1.2.3 2.4-1 3.6-.3-1.5.5-2.5 1.1-3.5-.1 0-.1-.1-.1-.1z"/><path class="Speckle--orange" d="M140.9 578.6c.4.8.9 1.3.8 1.6-.1.3-.8.6-1.2.7-.2 0-.7-.6-.7-.9.1-.4.6-.7 1.1-1.4z"/><path class="Speckle--purple" d="M554.2 75.2c-.2-.3-.6-.5-.5-.7.2-.5.4-.9.8-1.2.1-.1.7.3 1 .5-.2.3-.4.7-.6 1-.1.2-.4.3-.7.4z"/><path class="Speckle--yellow" d="M365.7 270.4c.3 1 .6 1.5.6 2.1 0 .2-.8.7-.8.6-.4-.4-.9-.9-1.1-1.4-.1-.2.6-.7 1.3-1.3z"/><path class="Speckle--green" d="M532.1 262.7c.3.7.6 1.2.5 1.3-.3.3-.8.5-1.2.7-.2-.3-.6-.7-.5-.9.3-.4.7-.7 1.2-1.1z"/><path class="Speckle--lavender" d="M255.8 242.7c.4.8.9 1.4.8 1.7-.1.4-.8.6-1.2.7-.2 0-.7-.6-.7-.8.1-.5.5-.8 1.1-1.6z"/><path class="Speckle--darkPurple" d="M319.3 221.7c-.7.2-1.1.5-1.4.4-.6-.2-.8-.8-.5-1.3.2-.3.8-.5 1-.4.4.3.5.8.9 1.3z"/><path class="Speckle--purple" d="M258.2 214.6c.1 1 .1 2-1 2.5-.2.1-.6 0-.7-.1-.1-.2-.2-.6-.1-.7.6-.6 1.3-1.1 1.8-1.7.1 0 0 0 0 0zM387.5 321c.6 0 .9-.1 1.3 0 .2.1.4.7.3.7-.3.2-.7.5-1 .4-.3 0-.4-.5-.6-1.1z"/><path class="Speckle--darkPurple" d="M400.2 350.7h1.4c.1 0 .2.6.2.6-.4.1-.9.2-1.4.4 0-.3-.1-.5-.2-1z"/><path class="Speckle--lightBlue" d="M273.3 243.9c.2.5.5.9.4 1.2-.1.3-.6.4-1 .6-.2-.4-.6-.8-.5-1.1 0-.3.6-.4 1.1-.7z"/><path class="Speckle--darkPurple" d="M323.7 396.6c.5-.2.9-.5 1.2-.4.3.1.4.6.6.9-.3.2-.7.5-1 .4-.3.1-.5-.4-.8-.9zM353.2 295c.3.6.6 1.1.6 1.2-.3.3-.8.5-1.2.7-.1 0-.6-.7-.5-.9.2-.4.7-.7 1.1-1z"/><path class="Speckle--purple" d="M264.4 436.5c.4-.2.8-.5 1.1-.5.3.1.6.4.9.7-.4.3-.8.6-1.2.8-.1 0-.5-.6-.8-1z"/><path class="Speckle--lavender" d="M236.6 330c-.3-.6-.6-1-.6-1.5 0-.2.8-.7 1-.6.4.3.6.8.9 1.2-.4.3-.7.5-1.3.9z"/><path class="Speckle--purple" d="M571.3 473.4c.2.4.4.7.6 1.1l-1.2.6c-.1-.3-.5-.7-.4-1 .1-.3.6-.5 1-.7z"/><path class="Speckle--green" d="M216.9 303.5c.2.5.4.9.3 1.1-.1.3-.5.6-.8.7-.5.1-.9-.8-.6-1.2.2-.2.6-.3 1.1-.6zm212.4-102.8c.2.6.3.9.3 1.2 0 .1-.5.4-.5.4-.3-.2-.5-.5-.7-.7.2-.3.5-.5.9-.9z"/><path class="Speckle--darkPurple" d="M427.1 246.3c.3.3.5.5.6.7-.3.2-.5.5-.8.6-.1 0-.6-.4-.5-.5.2-.3.5-.6.7-.8z"/><path class="Speckle--yellow" d="M182.7 485.5c.1.2.2.5.3.7-.3.1-.6.2-1 .3 0-.3-.1-.6 0-.8.1-.1.5-.1.7-.2z"/><path class="Speckle--green" d="M379.6 330.7c.2-.1.4-.2.7-.3.1.3.2.6.3 1-.3 0-.6.2-.8.1-.2-.1-.2-.5-.2-.8z"/><path class="Speckle--lightBlue" d="M199.5 359.4c.3.6.5.9.5 1.2 0 .2-.4.6-.5.6-.3-.2-.8-.4-.8-.7 0-.2.4-.5.8-1.1zm224.2 18.3c.2.6.3 1 .4 1.3-.2.1-.5.2-.7.2-.2-.1-.4-.3-.6-.5.2-.3.4-.5.9-1z"/><path class="Speckle--green" d="M207.2 324.3l.7.7c-.3.2-.6.5-.9.6-.1 0-.5-.5-.5-.5.2-.3.5-.5.7-.8z"/><path class="Speckle--blue" d="M224.8 249.1c.3.4.5.7.7 1-.3.2-.6.5-.9.5-.3 0-.5-.5-.7-.7.3-.2.5-.5.9-.8z"/><path class="Speckle--yellow" d="M301.3 279.9c-.5.1-.8.3-1.1.2-.6-.2-.8-.7-.4-1.2.2-.2.8-.3 1-.1.2.1.2.6.5 1.1z"/><path class="Speckle--purple" d="M276.3 358.7c.5-.3.8-.5 1.2-.6.1 0 .5.4.5.5-.1.3-.4.8-.6.8-.3 0-.6-.4-1.1-.7z"/><path class="Speckle--darkPurple" d="M350.1 425.2c-.2-.6-.3-.9-.3-1.2 0 0 .4-.2.6-.2.2.1.4.3.5.5-.1.2-.4.5-.8.9z"/><path class="Speckle--purple" d="M122.5 504.8c.3-.3.5-.4.7-.6.2.3.5.5.6.8 0 .1-.3.4-.5.6l-.8-.8z"/><path class="Speckle--lightBlue" d="M327.7 447.4c.5-.2.9-.5 1.2-.4.3.1.4.6.6.9-.3.1-.7.5-.9.4-.3-.1-.5-.5-.9-.9z"/><path class="Speckle--blue" d="M307.2 479.7c.3-.3.5-.5.7-.6.2.3.5.6.7.8-.2.1-.4.4-.6.4-.3-.1-.5-.4-.8-.6z"/><path class="Speckle--green" d="M361.1 210.6c.1.2.1.5.2.7-.3 0-.7.1-1 .1 0-.3 0-.6.1-.8.1 0 .5.1.7 0z"/><path class="Speckle--purple" d="M37.2 498c.2-.1.4-.2.6-.4.1.3.2.6.4 1-.2 0-.5.1-.7 0-.2 0-.2-.3-.3-.6zM179.3 72.1c.1.6.3 1.1.1 1.2-.2.2-.7.2-1 .1-.1 0-.3-.6-.2-.7.3-.2.6-.3 1.1-.6zm-4.7 46.9c.3.5.5.8.6 1.1 0 .1-.4.5-.5.5-.3-.1-.6-.4-.9-.6.2-.3.4-.6.8-1z"/><path class="Speckle--lightBlue" d="M357 214.6c.5-.3.9-.6 1.1-.6.3.1.6.6.6.9 0 .3-.6.6-.9.6-.2 0-.5-.5-.8-.9z"/><path class="Speckle--purple" d="M312.8 355.5c.3.3.7.6.6.6-.2.3-.5.6-.8.9-.2-.3-.5-.5-.7-.8.3-.2.6-.4.9-.7z"/><path class="Speckle--lavender" d="M280.1 401.4v1.2c-.4 0-.8.1-1.1 0-.1 0-.2-.6-.1-.7.3-.2.6-.3 1.2-.5z"/><path class="Speckle--purple" d="M241.3 107.8c-.3-.5-.5-.8-.6-1.1 0-.1.4-.5.5-.5.3.1.6.4.9.6-.2.3-.4.6-.8 1z"/><path class="Speckle--green" d="M354.4 415.3c.1.2.1.4.2.6-.3.1-.6.2-.9.2 0-.2-.1-.5 0-.7.2 0 .5 0 .7-.1z"/><path class="Speckle--purple" d="M608.3 184.6c-.1-.2-.2-.5-.2-.7l.9-.3c0 .2.1.6 0 .7-.2.3-.5.3-.7.3zm-96.8 291.5c.1.2.2.4.4.6-.3.1-.6.1-.9.2 0-.2-.1-.4-.1-.6.1-.2.3-.2.6-.2z"/><path class="Speckle--darkPurple" d="M559.2 285.1c.1.2.1.4.2.6-.3.1-.6.1-.9.2 0-.2 0-.6.1-.7 0-.2.3-.1.6-.1z"/><path class="Speckle--purple" d="M418.9 515.8c.1.3.1.5.2.8h-1c0-.2-.1-.6.1-.7.1-.2.4-.1.7-.1zm62.6-295.9c.3.3.5.5.7.6-.3.2-.5.5-.8.6-.1 0-.4-.3-.6-.5.3-.2.5-.4.7-.7zm12.9-158.6c.2.1.5.1.7.2.1 0 0 .2.1.3-.2-.1-.5-.1-.7-.2-.1 0-.1-.2-.1-.3z"/><path class="Speckle--darkPurple" d="M220.3 238.9c.3-.3.4-.5.6-.7l.7.7c-.2.2-.4.5-.5.4-.3 0-.5-.3-.8-.4z"/><path class="Speckle--purple" d="M194.1 308.9c-.2-.2-.4-.3-.4-.5s.3-.4.4-.6c.2.2.5.4.5.5-.1.2-.4.4-.5.6z"/><path class="Speckle--green" d="M173.6 356.7c0 .2.1.5.1.7-.3 0-.6.1-.8 0-.1-.1-.1-.5-.1-.7h.8z"/><path class="Speckle--purple" d="M118.3 440.3l.3.3c-.2.1-.4.2-.7.3l-.2-.3c.2 0 .4-.1.6-.3zm20-265.5c0 .1.1.3 0 .4-.1.1-.2 0-.4 0 0-.1-.1-.3 0-.4h.4zM27.1 518.4c.2.2.4.3.6.5-.2.2-.3.4-.6.5-.1 0-.4-.3-.4-.4 0-.3.2-.4.4-.6zm95.6-312.1c-.3 0-.5 0-.8.1 0-.3-.1-.6 0-.8.1-.1.4-.1.7-.1 0 .3 0 .5.1.8zm6-132.9c.2.2.4.3.6.5-.3.1-.6.3-.9.3-.1 0-.3-.4-.4-.6.2-.1.5-.1.7-.2zM.8 427.7l.3.6c-.3.1-.7.1-1 .2 0-.2-.1-.6 0-.7.1-.1.4-.1.7-.1zm349.8-109.9c.1.2.3.4.4.6l-.6.3c-.1 0-.3-.2-.2-.3.1-.2.2-.4.4-.6zM333.7 267c.3 0 .5 0 .8-.1 0 .2.1.5 0 .7-.1.1-.6.2-.6.1-.2-.1-.2-.4-.2-.7z"/><path class="Speckle--darkPurple" d="M298.9 166.9l.3.6-.9.3c0-.3-.2-.6-.1-.7.1-.1.5-.1.7-.2z"/><path class="Speckle--green" d="M296.3 159.2c.2-.1.4-.2.6-.4.1.2.2.4.2.7 0 .1-.3.2-.3.2-.2-.1-.4-.3-.5-.5z"/><path class="Speckle--purple" d="M244.7 249.5c.1.2.3.4.4.6-.3.1-.7.2-1 .4 0-.3-.2-.6-.1-.7.1-.2.5-.2.7-.3zM220.2 318l-.6-.6c.3-.2.5-.5.8-.6.1 0 .4.3.6.5-.3.2-.6.5-.8.7zm-19.8-1.9c.2 0 .5-.1.7 0 .1.1.2.4.2.6-.2 0-.5.1-.7 0-.2-.1-.2-.4-.2-.6zm35.3-104.3l-.1.3-.3-.3zm16.1-37.9h.3c.1 0 .1.2.2.2-.1 0-.2.1-.3 0-.1 0-.1-.1-.2-.2z"/><path class="Speckle--green" d="M198.8 487.2c0 .1.1.2.1.3-.2 0-.3.1-.5.1 0-.1 0-.3.1-.3.1-.1.2-.1.3-.1z"/><path class="Speckle--purple" d="M229.9 400.6h.7c.1 0 .1.2.1.3h-.7c-.1.1-.1-.2-.1-.3zm118-357.2c.2-.1.4-.4.5-.3.2.1.3.3.4.5 0 0-.2.3-.3.2-.2-.1-.3-.2-.6-.4zM218.4 451.5l-.2.2v-.3zm57.2-175.4c0 .1.1.3.1.4h-.7c-.1 0-.1-.2-.2-.4h.8zm-20.3 65.1l-.3-.1.1-.2z"/><path class="Speckle--green" d="M224.1 453.7c-.2.1-.5.3-.6.2-.1 0-.2-.4-.3-.6.1-.1.3-.2.4-.1.1.2.3.3.5.5z"/><path class="Speckle--purple" d="M320.7 183c.1.1.2.1.3.2-.1.1-.1.3-.2.3s-.2-.1-.3-.2c0-.1.1-.2.2-.3z"/><path class="Speckle--lightBlue" d="M329.7 177.7c.1.1.2.1.2.2s-.1.2-.2.3c-.1-.1-.3-.2-.2-.2 0-.1.1-.2.2-.3z"/><path class="Speckle--purple" d="M226.2 514.2c-.1-.1-.2-.2-.3-.2l.3-.3.2.2c0 .1-.1.2-.2.3zm-5.5 21.5l-.6.3c-.1-.2-.2-.4-.2-.6 0 0 .2-.2.3-.2.1.2.3.4.5.5zm44.1-313.3l.2.2c-.1 0-.2 0-.4.1.1-.2.1-.3.2-.3zm-6.4 52c-.2 0-.4.1-.6.1 0-.2-.1-.5 0-.6.1-.1.4-.1.6-.2v.7zm-45.1 150.2l.3-.3-.1.4zM285.9 207v.5c-.2-.1-.4-.1-.6-.2-.1 0-.1-.2-.1-.3.2.1.5 0 .7 0zM80.5 333.4c.2.2.4.3.5.5-.1.1-.3.2-.4.1-.2-.1-.4-.3-.5-.5.1 0 .3 0 .4-.1zm58.4-189.3c0-.1.1-.2.1-.3.2.1.4.2.5.4-.1.1-.2.2-.3.2-.1-.1-.2-.3-.3-.3z"/><path class="Speckle--yellow" d="M75.4 297.6c.1.2.3.5.3.6-.1.2-.4.3-.5.4-.1-.1-.2-.3-.2-.4 0-.2.2-.4.4-.6z"/><path class="Speckle--purple" d="M116 121.6c-.1.1-.1.2-.2.3-.1-.1-.2-.3-.2-.4 0 0 .2-.1.3-.2 0 0 .1.2.1.3zM71.3 240.2v.3h-.4v-.3h.4zm-4.2-75.5c.1.1.1.2.2.4-.2 0-.5.1-.7.1 0 0-.1-.2-.1-.4.1 0 .3-.1.6-.1zM22.7 251c0 .1.1.2.1.3-.2 0-.3.1-.5.1 0-.1 0-.3.1-.3.1-.1.2-.1.3-.1zM53 131.6v.7c0 .1-.2.1-.3.2v-.7c0-.1.2-.1.3-.2zm175.1 63.5h.7l.1.3c0 .1-.3.2-.3.2-.2-.1-.3-.3-.5-.5zm-24 51.5v.6c-.2 0-.4-.1-.6-.1-.1 0-.1-.3-.1-.3.2-.2.4-.2.7-.2z"/><path class="Speckle--green" d="M178.3 275.5v.7c0 .1-.2.1-.3.1v-.7c-.1 0 .2 0 .3-.1z"/><path class="Speckle--purple" d="M177.4 194.1l-.2-.2c.1 0 .3 0 .4-.1-.1.2-.2.2-.2.3zm-86 236c-.1.1-.3.2-.3.2-.2-.1-.4-.3-.5-.4.2 0 .5-.1.7-.1-.1 0 0 .2.1.3zM166.6 122c.1.1.2.1.3.2-.1.1-.3.1-.4.2 0 0-.1-.2-.2-.3.1 0 .2-.1.3-.1zm-10.4 27.8l.3.1-.2.3zm-9.5 28.3c.1-.1.3-.2.3-.2.2.1.3.3.5.5-.2 0-.5.1-.7.1 0 0-.1-.3-.1-.4zM555 77.7c0-.1-.1-.2 0-.3 0-.1.2-.1.2-.2 0 .2 0 .3.1.5h-.3zM447.8 401.3c0-.1 0-.2.1-.2h.3c-.1.1-.1.3-.2.4 0-.1-.1-.1-.2-.2z"/><path class="Speckle--lavender" d="M459.8 359.6v-.3h.5c-.1.1-.1.2-.2.3-.1.1-.2 0-.3 0z"/><path class="Speckle--darkPurple" d="M484 281h.7c.1 0 .2.3.1.4 0 .1-.3.2-.4.2-.1-.2-.2-.4-.4-.6z"/><path class="Speckle--purple" d="M548.7 72c.1.1.2.1.2.2s-.1.2-.2.3l-.2-.2c.1-.1.2-.2.2-.3zm-39.6 69.2c.2-.1.4-.2.5-.3l.3.6-.3.2-.5-.5zm19.3-90.4l.2.2c-.1 0-.3.1-.4.1.1-.1.1-.2.2-.3z"/><path class="Speckle--darkPurple" d="M438.3 319.5h.6c.1 0 .1.2.1.3 0 .1-.3.2-.3.2-.2-.1-.3-.3-.4-.5z"/><path class="Speckle--purple" d="M482.6 164.2h-.4v-.3h.3c.2.1.1.3.1.3zm28-105.6c-.1.8-.3 1.6-.4 2.3l.1-.1c-.4-.8-.3-1.6.3-2.2.1-.1 0 0 0 0zm-34.4 497h.7c.1 0 .1.2.2.3h-.7c-.1.1-.1-.2-.2-.3zm100.4-379.2v-.3c.2 0 .3.1.5.1-.1.1-.1.2-.2.3-.1-.1-.2-.1-.3-.1zm-121 367.9c0 .2.1.4.1.7 0 .1-.2.2-.3.1-.1 0-.2-.3-.2-.3 0-.2.2-.3.4-.5z"/><path class="Speckle--green" d="M507.9 356.9c0 .2-.1.4-.1.6-.2-.1-.4-.1-.6-.2-.1 0 0-.2 0-.3.2 0 .4-.1.7-.1z"/><path class="Speckle--purple" d="M567 155.2l-.3-.2h.3zm32.6-120.8c.1.1.3.1.3.2s-.1.3-.2.3-.2-.1-.3-.2c.1-.1.1-.2.2-.3z"/><path class="Speckle--lightBlue" d="M523.3 241v-.3h.4c-.1.1-.1.2-.2.3 0 .1-.2 0-.2 0z"/><path class="Speckle--orange" d="M460.6 408c.2-.1.5-.2.7-.2.2 0 .3.3.4.5-.2.1-.5.2-.6.2-.2 0-.3-.3-.5-.5z"/><path class="Speckle--green" d="M306.6 451.6c.1.1.2.3.2.3-.1.2-.3.4-.4.5 0-.2-.1-.4-.1-.7 0 .1.2 0 .3-.1z"/><path class="Speckle--lightBlue" d="M369.2 225.2c-.1 0-.2.1-.4.1 0-.2-.1-.4-.1-.6.1 0 .3 0 .4.1.1.1.1.3.1.4z"/><path class="Speckle--green" d="M351.8 274.5c.3 0 .5-.1.7 0 .1 0 .1.4.2.6-.2 0-.5.1-.7 0-.1-.1-.1-.4-.2-.6z"/><path class="Speckle--purple" d="M315.1 375.8c0-.1.1-.2.1-.2h.3c-.1.1-.1.3-.2.4l-.2-.2zm67.3-216v.3c-.1.1-.2 0-.3 0v-.3c.1-.1.2 0 .3 0zm-75.3 231.9c.1.1.2.2.3.2-.2.1-.3.2-.5.3 0-.1-.2-.2-.1-.3 0-.1.2-.1.3-.2z"/><path class="Speckle--blue" d="M259 536c.1.2.1.4.2.5-.2 0-.5.1-.7 0l-.1-.3c.2 0 .4-.1.6-.2z"/><path class="Speckle--purple" d="M349.2 252.1h-.4l.1-.2zm-96.4 236.1c.1.1.2.1.3.2-.1.1-.3.2-.4.2-.1-.1-.1-.2-.2-.3 0 0 .2-.1.3-.1zm34.6-150.8v-.4l.3.2zm-9.7 24.4c.1.2.3.5.2.7 0 .1-.4.2-.6.3l-.2-.3c.2-.3.4-.5.6-.7zM439 282.7h.2l-.1.2z"/><path class="Speckle--blue" d="M437.8 215.5c0 .2.1.5.1.7-.1.1-.4.1-.6.2 0-.2-.1-.5-.1-.7.1-.1.4-.1.6-.2z"/><path class="Speckle--purple" d="M405.8 300.3c0-.1.1-.2.1-.3h.3c-.1.1-.1.3-.2.4 0 0-.1-.1-.2-.1z"/><path class="Speckle--lightBlue" d="M371 398.7c.1.2.1.4.2.6-.2 0-.5 0-.7-.1-.1 0-.1-.2-.1-.4.1 0 .3-.1.6-.1z"/><path class="Speckle--purple" d="M385.7 348.9l.2.1-.2.3zm8.5-34.7v-.4h.5c-.1.1-.1.2-.2.3-.1.2-.2.1-.3.1zm77.5-283.5h.7c.1 0 .1.2.1.3h-.7c-.1 0-.1-.2-.1-.3zm-113 296.5c.1.1.2.1.3.2-.2 0-.3.1-.5.1 0-.1-.1-.2-.1-.3h.3zm-24.5 59v.4c-.2 0-.4-.1-.6-.1.1-.1.1-.3.2-.3.2-.1.3-.1.4 0zm-2.9 5.4c.1.2.4.4.3.5-.1.2-.4.4-.6.5-.1-.1-.2-.3-.2-.4.2-.1.4-.3.5-.6zm31.3-102.1c.1.2.1.4.2.6h-.7s-.1-.3-.1-.4c.2-.1.4-.2.6-.2z"/></svg>