<svg id="Layer_1" data-name="Layer 1" xmlns="http://www.w3.org/2000/svg" viewBox="0 0 958.73 237"><title>logo-02</title><rect y="1.02" width="57.21" height="229.85"/><rect y="1.02" width="114.41" height="43.93"/><rect y="72.53" width="114.41" height="43.93"/><circle cx="206.86" cy="154.77" r="82.23"/><rect x="124.63" y="1.02" width="164.47" height="153.74"/><rect x="304.42" y="1.02" width="57.21" height="229.85"/><circle cx="363.93" cy="58.99" r="58.99"/><polygon points="359.07 117.99 478.09 230.87 356.52 230.87 359.07 117.99"/><rect x="785.06" y="1.02" width="57.21" height="229.85"/><circle cx="844.57" cy="58.99" r="58.99"/><polygon points="839.72 117.99 958.73 230.87 837.16 230.87 839.72 117.99"/><polygon points="426.5 1.02 512.82 230.87 593.52 1.02 426.5 1.02"/><circle cx="685.97" cy="154.77" r="82.23"/><rect x="603.74" y="1.02" width="164.47" height="153.74"/></svg>