<svg id="Layer_1" data-name="Layer 1" xmlns="http://www.w3.org/2000/svg" viewBox="0 0 698.75 146.67"><defs><style>.cls-1,.cls-2{stroke:#000;}.cls-2{stroke-miterlimit:10;}</style></defs><title>logo</title><path class="cls-1" d="M18.5,144.5h-1V.5A.5.5,0,0,1,18,0H90a.5.5,0,0,1,.5.5v18h-1V1h-71V144.5Z" transform="translate(0.5 0.5)"/><polygon class="cls-1" points="63.5 73.5 18.5 73.5 18.5 72.5 63.5 72.5 63.5 73.5 63.5 73.5"/><polygon class="cls-1" points="36.5 145.5 0.5 145.5 0.5 144.5 36.5 144.5 36.5 145.5 36.5 145.5"/><polygon class="cls-1" points="18.5 1.5 0.5 1.5 0.5 0.5 18.5 0.5 18.5 1.5 18.5 1.5"/><rect class="cls-2" x="35.5" y="1" width="2" height="71.67"/><rect class="cls-2" x="41" y="1" width="1.8" height="71.67"/><rect class="cls-2" x="46.5" y="1" width="1.6" height="71.67"/><rect class="cls-2" x="52" y="1" width="1.4" height="71.67"/><rect class="cls-2" x="57.5" y="1" width="1.2" height="71.67"/><rect class="cls-2" x="63" y="1" width="1" height="71.67"/><rect class="cls-1" x="18.5" y="1" width="18" height="144"/><polygon class="cls-1" points="209.52 100.25 208.52 100.25 208.52 1.25 209.52 1.25 209.52 100.25 209.52 100.25"/><polygon class="cls-1" points="227.02 1.75 191.02 1.75 191.02 0.75 227.02 0.75 227.02 1.75 227.02 1.75"/><polygon class="cls-1" points="119.52 100.25 118.52 100.25 118.52 1.25 119.52 1.25 119.52 100.25 119.52 100.25"/><polygon class="cls-1" points="137.02 1.75 101.02 1.75 101.02 0.75 137.02 0.75 137.02 1.75 137.02 1.75"/><path class="cls-1" d="M163.52,145.25A45.55,45.55,0,0,1,118,99.75h1a44.5,44.5,0,0,0,89,0h1a45.55,45.55,0,0,1-45.5,45.5Z" transform="translate(0.5 0.5)"/><path class="cls-1" d="M191.52,99.75a28,28,0,0,1-56,0h-17a45,45,0,0,0,90,0Z" transform="translate(0.5 0.5)"/><path class="cls-1" d="M290.75,73.58v-1a35.5,35.5,0,0,0,0-71v-1a36.5,36.5,0,0,1,0,73Z" transform="translate(0.5 0.5)"/><polygon class="cls-1" points="291.25 2.08 255.25 2.08 255.25 1.08 291.25 1.08 291.25 2.08 291.25 2.08"/><polygon class="cls-1" points="291.25 74.08 255.25 74.08 255.25 73.08 291.25 73.08 291.25 74.08 291.25 74.08"/><polygon class="cls-1" points="255.75 145.58 254.75 145.58 254.75 1.58 255.75 1.58 255.75 145.58 255.75 145.58"/><polygon class="cls-1" points="273.25 146.08 237.25 146.08 237.25 145.08 273.25 145.08 273.25 146.08 273.25 146.08"/><polygon class="cls-1" points="255.25 2.08 237.25 2.08 237.25 1.08 255.25 1.08 255.25 2.08 255.25 2.08"/><polygon class="cls-1" points="326.9 145.93 254.9 73.93 255.6 73.22 327.6 145.22 326.9 145.93 326.9 145.93"/><polygon class="cls-1" points="345.25 146.08 309.25 146.08 309.25 145.08 345.25 145.08 345.25 146.08 345.25 146.08"/><rect class="cls-1" x="255.25" y="1.58" width="17.67" height="144"/><path class="cls-1" d="M391.52,145.25a.5.5,0,0,1-.47-.33l-54-144L338,.57l53.54,142.75L445.05.57l.93.35-54,144a.48.48,0,0,1-.46.33Z" transform="translate(0.5 0.5)"/><polygon class="cls-1" points="356.02 1.75 320.02 1.75 320.02 0.75 356.02 0.75 356.02 1.75 356.02 1.75"/><polygon class="cls-1" points="464.02 1.75 446.02 1.75 446.02 0.75 464.02 0.75 464.02 1.75 464.02 1.75"/><rect class="cls-2" x="376.93" y="-3.29" width="2" height="128.52" transform="translate(2.97 136.17) rotate(-20.42)"/><rect class="cls-2" x="381.1" y="-1.99" width="1.91" height="125.75" transform="translate(-0.63 114.71) rotate(-16.98)"/><rect class="cls-2" x="385.27" y="-0.93" width="1.82" height="123.45" transform="translate(-3.08 91.63) rotate(-13.4)"/><rect class="cls-2" x="389.44" y="-0.12" width="1.73" height="121.66" transform="translate(-4.15 67.09) rotate(-9.69)"/><rect class="cls-2" x="393.61" y="0.43" width="1.64" height="120.38" transform="translate(-3.64 41.35) rotate(-5.9)"/><rect class="cls-2" x="397.78" y="0.71" width="1.55" height="119.64" transform="translate(-1.4 14.7) rotate(-2.04)"/><rect class="cls-2" x="342.95" y="59.72" width="119.46" height="1.45" transform="translate(329.78 461.46) rotate(-88.15)"/><rect class="cls-2" x="346.89" y="59.68" width="119.82" height="1.36" transform="matrix(0.1, -0.99, 0.99, 0.1, 306.48, 459.56)"/><rect class="cls-2" x="350.56" y="59.63" width="120.73" height="1.27" transform="translate(283.92 456.03) rotate(-80.47)"/><rect class="cls-2" x="353.96" y="59.59" width="122.17" height="1.18" transform="translate(261.02 450.56) rotate(-76.63)"/><rect class="cls-2" x="357.11" y="59.55" width="124.13" height="1.09" transform="translate(239.82 443.96) rotate(-73.03)"/><rect class="cls-2" x="360" y="59.51" width="126.58" height="1" transform="translate(218.72 435.64) rotate(-69.4)"/><polygon class="cls-1" points="338.02 1.25 356.02 1.25 400.85 121.69 392.02 145.25 338.02 1.25"/><polygon class="cls-1" points="562.52 100.25 561.52 100.25 561.52 1.25 562.52 1.25 562.52 100.25 562.52 100.25"/><polygon class="cls-1" points="580.02 1.75 544.02 1.75 544.02 0.75 580.02 0.75 580.02 1.75 580.02 1.75"/><polygon class="cls-1" points="472.52 100.25 471.52 100.25 471.52 1.25 472.52 1.25 472.52 100.25 472.52 100.25"/><polygon class="cls-1" points="490.02 1.75 454.02 1.75 454.02 0.75 490.02 0.75 490.02 1.75 490.02 1.75"/><path class="cls-1" d="M516.52,145.25A45.55,45.55,0,0,1,471,99.75h1a44.5,44.5,0,0,0,89,0h1a45.55,45.55,0,0,1-45.5,45.5Z" transform="translate(0.5 0.5)"/><path class="cls-1" d="M544.52,99.75a28,28,0,0,1-56,0h-17a45,45,0,0,0,90,0Z" transform="translate(0.5 0.5)"/><path class="cls-1" d="M643.75,73.58v-1a35.5,35.5,0,0,0,0-71v-1a36.5,36.5,0,0,1,0,73Z" transform="translate(0.5 0.5)"/><polygon class="cls-1" points="644.25 2.08 608.25 2.08 608.25 1.08 644.25 1.08 644.25 2.08 644.25 2.08"/><polygon class="cls-1" points="644.25 74.08 608.25 74.08 608.25 73.08 644.25 73.08 644.25 74.08 644.25 74.08"/><polygon class="cls-1" points="608.75 145.58 607.75 145.58 607.75 1.58 608.75 1.58 608.75 145.58 608.75 145.58"/><polygon class="cls-1" points="626.25 146.08 590.25 146.08 590.25 145.08 626.25 145.08 626.25 146.08 626.25 146.08"/><polygon class="cls-1" points="608.25 2.08 590.25 2.08 590.25 1.08 608.25 1.08 608.25 2.08 608.25 2.08"/><polygon class="cls-1" points="679.9 145.93 607.9 73.93 608.6 73.22 680.6 145.22 679.9 145.93 679.9 145.93"/><polygon class="cls-1" points="698.25 146.08 662.25 146.08 662.25 145.08 698.25 145.08 698.25 146.08 698.25 146.08"/><rect class="cls-1" x="608.25" y="1.58" width="17.67" height="144"/></svg>