<svg class="Logo--tilted" xmlns="http://www.w3.org/2000/svg" viewBox="0 0 447 284.9">
<g>
  <path d="M215.9,179.1l-1.9-2.2l-4.4-7.2l-6.6-6.8l-6.3-7l-6.2-7.1l-6.3-7l-5.8-7.5l-5.5-7.6l-0.1-0.5l9,1.2l7.3-4.6l0.2-0.1
  c1.8-1.2,3.4-2.6,4.9-4.3l1.3-1.2l1-1.9c0.9-1.4,1.6-2.9,2.2-4.5l0.7-1.5l0.2-1.4c0.6-2.3,0.9-4.7,1-7.2l0.1-0.6l-0.1-9.7l-4.4-9.2
  l-6.4-7.7l-8-5.3l-8.8-2.7l-5.2,0l-4.7-0.3l-11-1.6l-8-2.2l0.8,9.6l-0.1,9l-0.7,8.9l0.9,8.1l0,1.8l-1.4,8.1l0.6,9.1l-0.3,9l0.9,9.2
  l0.2,7.6l0-0.2l0,1.4l0-1.2l-0.2,0.9l0.2,1.5l0-0.8l0,1l0-0.2l-0.2,8l0.2,9.1l-0.8,8.9l0.6,8.7l8,1.4l8.3,1.7l6.9,0.1l1.4,0.2
  l1.3,0.2l7,2l8.3,0.3l8.3,1.3l8.3,2.3l8.3,0.5l8.3,0.5l8,1.6l-5.6-7.2L215.9,179.1z M201.2,161.9l0.1,0.1l-0.2-0.3L201.2,161.9z
   M171.6,127l0.3,0.6l-0.3-0.4L171.6,127z M188.9,122.8L188.9,122.8C188.9,122.7,189,122.7,188.9,122.8L188.9,122.8z M195.2,117.2
  l-1.1,1c0.5-0.6,1-1.3,1.5-2L195.2,117.2z M144.7,160.9l0-0.3l0,0.6L144.7,160.9z M200.8,187.5l-1.2-0.4l2.6,0.4L200.8,187.5z"/>
  <polygon points="280.2,182.9 280.1,183.6 280.2,184.4 280.2,183.3 	"/>
  <path d="M281.1,106.1l1.1-3.1l-0.3,0l0-0.1l1,0.2l-7.9-2.4l-8-0.1l-8-1.2l-8-1.9l-7,0l-1.6-0.2l-7.3-2.6l-8-0.5l-8-1.5l-8-0.2
  l-7.5-1.1l2.7,8.4l3.1,8.9l2.2,9.1l3.7,8.7l2.6,9l2.5,9l3.1,6.9l-0.1-0.3l0.2,0.6l-0.1-0.3l0.2,1.1l0.6,1.4l0.2,0.7l1.6,7.8
  l3.7,8.7l2.9,8.9l2,9.2l3.5,8.8l3.5,8.8l2.4,8.7l3.5-7.3l1.6-8.7l4-7.4l1.5-8.7l3-7.9l2.7-8.1l2.6-8.1l4-7.4l2.5-8.2l2.6-8.1
  l2.6-8.1l2.7-8.1l2.5-8.1L281.1,106.1z M258.1,173.6l-0.3,0.6l0.5-1.5L258.1,173.6z M274.1,127.1l-2.9,7.6l-0.1,0.1l3.7-10.9
  L274.1,127.1z"/>
  <path d="M440.9,276.8l-5.6-5.3l-1.9-2.3l-4.4-7.2l-6.6-6.8l-6.3-7l-6.2-7.1l-6.3-7l-5.8-7.5l-5.5-7.6l-0.1-0.5l9,1.2l7.3-4.6
  l0.2-0.2c1.8-1.2,3.4-2.6,4.8-4.2l1.4-1.2l1-2c0.8-1.4,1.6-2.8,2.2-4.4l0.7-1.5l0.2-1.4c0.6-2.2,0.9-4.6,1-7.1l0.1-0.6l-0.1-9.7
  l-4.4-9.2l-6.4-7.6l-8-5.3l-8.8-2.7l-5.2,0l-4.8-0.3l-10.9-1.6l-8-2.2l0.8,9.6l-0.1,9l-0.7,8.9l0.9,8.1l0,1.8l-1.4,8.1l0.6,9.1
  l-0.3,9l0.9,9.2l0.2,7.6l0-0.2l0,1.2l0-1.1l-0.2,0.9l0.2,1.5l0-0.7l0,0.8l0-0.2l-0.2,8l0.2,9.1l-0.8,8.9l0.7,8.7l8,1.4l8.3,1.7
  l6.9,0.1l1.4,0.2l1.3,0.2l7,2l8.3,0.3l8.3,1.3l8.3,2.3l8.3,0.5l8.3,0.5l8,1.6L440.9,276.8z M420.6,254.3l0.2,0.2l-0.4-0.5
  L420.6,254.3z M391,219.5l0.4,0.6l-0.4-0.4L391,219.5z M408.4,215.2L408.4,215.2C408.4,215.2,408.4,215.2,408.4,215.2L408.4,215.2z
   M414.7,209.7l-1.1,1c0.5-0.6,1-1.3,1.5-2L414.7,209.7z M364.1,253.3l0-0.3l0,0.6L364.1,253.3z M420.2,280l-1.2-0.4l2.6,0.4
  L420.2,280z"/>
  <path d="M139.3,69.4l-0.2-8.7l-0.2-8.7l-0.1-8.8l-7.9-0.9l-4.8-0.3l-10.9-1.6l-7.7-2.4l-7.8-0.1l-7.8-1.2l-7.8-1.8l-6.9,0l-1.5-0.2
  l-7.2-2.5l-8-0.5L60,40.5l0.9,8.8l0.2,8.6l0,0.4l-0.3,8.5l0.2,8.7l-0.8,8.6l0.8,8.4l0.1-0.6l0,2.8L61,94l-0.3,7.6l-0.5,8.6l1.1,5.5
  c0.2,1.8,0.5,3.6,0.9,5.4l0.8,5.8l4.3,7.5l1.3,1.9c0.6,1,1.2,1.9,1.9,2.8l1.6,2.4l5.3,6.9l7.1,4.4l7.5,2.8l0.3,0.1
  c1.6,0.6,3.2,1,4.8,1.4l2.5,0.7l7.6,0.5l7.2-1.5l2.3-1.1c2.3-0.9,4.5-2.1,6.6-3.5l0.4-0.1l0.2-0.3l-0.3,0.2
  c0.1-0.1,0.3-0.2,0.4-0.3l-0.1,0.1l3.2-2.1l5.5-5.1l3.8-6.8l1-8.2l2.1-7.8l-1.3-8.9l0.3-8.7l-0.1-8.7l-0.1-8.7l1.4-8.5L139.3,69.4z
   M138.3,104.4l-0.2,8.5l0,0.1l0-12L138.3,104.4z"/>
  <path d="M358.5,159.8l-0.2-8.7l-0.2-8.7l-0.1-8.8l-7.9-0.9l-4.8-0.3l-10.9-1.6l-7.7-2.4l-7.8-0.1l-7.8-1.2l-7.8-1.8l-6.9,0
  l-1.6-0.2l-7.2-2.5l-8-0.4l-0.4,8.9l0.9,8.9l0.2,8.4l0,0.7l-0.3,8.3l0.2,8.7l-0.8,8.6l0.8,8.4l0.1-0.6l0,2.8l-0.1-0.7l-0.3,7.6
  l-0.5,8.6l1.1,5.5c0.2,1.8,0.5,3.6,0.9,5.4l0.8,5.9l4.3,7.5l1.2,1.8c0.6,1,1.2,1.9,1.9,2.8l1.6,2.4l5.3,6.9l7.1,4.4l7.5,2.8
  l0.3,0.1c1.6,0.5,3.2,1,4.8,1.3l2.5,0.7l7.6,0.5l7.2-1.5l2.3-1.1c2.3-0.9,4.5-2.1,6.6-3.5l0.4-0.1l0.2-0.3l-0.3,0.2
  c0.1-0.1,0.3-0.2,0.4-0.3l-0.1,0.1l3.2-2.1l5.5-5.1l3.8-6.8l1-8.2l2.1-7.8l-1.3-8.9l0.3-8.7l-0.1-8.7l-0.1-8.7l1.4-8.5L358.5,159.8
  z M357.5,194.8l-0.2,8.5l0,0.2l0-12.1L357.5,194.8z"/>
  <polygon points="61,92.5 60.9,93.2 61,94 61,92.9 	"/>
  <path d="M55,20.5l0-4.3l0,0.2l0-7l0,0l0,6.8l1-7.8l-8.2-0.3l-7.8-1.2l-7.8-1.8l-6.9,0l-1.6-0.2l-7.2-2.5L8.7,1.8L0.4,0.5l0.7,9.6
  l0.2,8.9l0,0.4l-0.3,8.8l0.2,9.1l-0.8,8.9l0.8,9.2l-0.4,9l-0.5,9l0.8,7.6l0,3l-1,7.5l0.8,9.2l-0.1,9L0.2,119l9.8,0.9l9.3,0.7
  l9.1,1.6l1-7.8l-0.6-8.4l-0.3-8.3l-0.1-8.3l-0.3-8.3l0.5-8.2l0.6-7.6l8.5,1.5l8.9-0.1l9.5,2.6l-1-8.7l0.3-7.8l0.1-7.5l-8.7-1
  l-8.9-2.7l-8.5-0.7L29,28.7l8.6,1.2l8.9,1.2l8.8,1L55,27.1l0-6.4L55,20.5z M28.2,35.6l0-1.9l0.1,1.1L28.2,35.6z M28.2,88.2
  l-0.2,1.2l0-2.6L28.2,88.2z M54.9,56.7l0,0.2l0-0.3L54.9,56.7z"/>
</g>
</svg>
