<?xml version="1.0" encoding="utf-8"?>
<svg version="1.1" xmlns="http://www.w3.org/2000/svg" xmlns:xlink="http://www.w3.org/1999/xlink" viewBox="0 0 957 609.5" xml:space="preserve">
  <style>
    .st0{fill:#727272;}
  </style>
  <g>
    <path class="st0" d="M0.5,0l16,4h19l16,7h18c0,0,7,2,19,4s32,3,32,3l-2,17v23l-1,11l-20-3l-29-4h-6l1,26h18l15,6l21,4v30l3,20
    l-20-5h-21l-17-3l-2,24v40l3,41l-3,17l-15-3l-45-4l4-19L4,213.5l-4-20l4-17l-3-20l2-38l-2-22l2-17v-19l1-29L0.5,0z"/>
    <polygon class="st0" points="130,67.5 146,68.5 162,74.5 182,74.5 200,77.5 217,81.5 233,81.5 251,87.5 276,91.5 292,91.5
    298,91.5 298,168.5 296,185.5 296,212.5 296,241.5 298,261.5 294,277.5 292,295.5 284,309.5 264,325.5 250,333.5 240,335.5
    226,340.5 205,335.5 185,328.5 166,317.5 154,300.5 140,280.5 136,271.5 132,251.5 130,235.5 131,198.5 130,180.5 131,161.5
    131,124.5 130,107.5 127,86.5"/>
    <polygon class="st0" points="308,132.5 324,136.5 346,139.5 359,140.5 371,140.5 389,146.5 406,157.5 420,174.5 428,192.5
    429,210.5 427,228.5 424,239.5 418,250.5 411,257.5 399,266.5 389,272.5 370,269.5 387,293.5 422,336.5 448,361.5 456,376.5
    469,389.5 481,402.5 486,409.5 468,406.5 439,404.5 431,403.5 414,398.5 397,395.5 380,395.5 365,391.5 350,390.5 343,389.5
    316,383.5 310,383.5 308,364.5 310,346.5 311,318.5 310,300.5 310,274.5 308,255.5 308,242.5 306,230.5 311,209.5 309,188.5
    310,167.5 309,143.5"/>
    <polygon class="st0" points="436,195.5 452,197.5 469,197.5 486,201.5 504,203.5 520,208.5 538,208.5 557,213.5 570,214.5
    588,214.5 604,220.5 601,232.5 593,256.5 584,285.5 577,307.5 571,326.5 563,340.5 557,360.5 551,378.5 545,392.5 542,410.5
    534,426.5 529,446.5 523,460.5 517,440.5 509,420.5 503,404.5 497,379.5 491,362.5 484,346.5 480,327.5 475,316.5 471,304.5
    465,281.5 461,271.5 453,251.5 449,234.5 445,223.5 439,205.5"/>
    <polygon class="st0" points="599,261.5 616,261.5 632,268.5 656,271.5 673,273.5 688,273.5 701,275.5 718,280.5 738,280.5
    754,284.5 766,285.5 767,331.5 767,360.5 763,379.5 765,409.5 765,431.5 767,456.5 762,472.5 760,489.5 753,502.5 746,508.5
    740,516.5 730,520.5 719,526.5 710,529.5 698,532.5 681,530.5 667,526.5 652,521.5 642,515.5 634,509.5 623,495.5 604,466.5
    602,443.5 599,429.5 599,401.5 599,383.5 597,373.5 600,356.5 600,328.5 600,304.5 597,280.5"/>
    <polygon class="st0" points="779,330.5 795,334.5 815,335.5 839,338.5 858,344.5 877,357.5 888,370.5 898,392.5 898,417.5
    895,433.5 886,449.5 874,460.5 858,470.5 839,467.5 856,491.5 893,533.5 917,559.5 928,577.5 943,591.5 957,609.5 933,603.5
    910,602.5 901,601.5 883,596.5 868,594.5 848,593.5 832,588.5 816,588.5 804,586.5 787,581.5 779,581.5 778,562.5 779,543.5
    779,507.5 778,463.5 779,446.5 777,427.5 781,406.5 777,388.5 779,355.5"/>
  </g>
</svg>
