<?xml version="1.0" encoding="utf-8"?>
<svg version="1.1" xmlns="http://www.w3.org/2000/svg" xmlns:xlink="http://www.w3.org/1999/xlink" viewBox="0 0 974 286.5" xml:space="preserve">
  <style>
    .st0{fill:#E0EC42;}
  </style>
  <g>
    <path class="st0" d="M0.5,0l17.3,4.3h20.6l17.3,7.6h19.5c0,0,7.6,2.2,20.6,4.3s34.7,3.2,34.7,3.2l-2.2,18.4v24.9l-1.1,11.9
    l-21.7-3.2l-31.4-4.3h-6.5l1.1,28.2h19.5l16.2,6.5l22.7,4.3v32.5l3.2,21.7l-21.7-5.4H86.1l-18.4-3.2l-2.2,26v43.3l3.2,44.4
    l-3.2,18.4l-16.2-3.2l-48.7-4.3l4.3-20.6l-0.5-24.4L0,209.6l4.3-18.4l-3.2-21.7l2.2-41.2l-2.2-23.8l2.2-18.4V65.5l1.1-31.4L0.5,0z"
    />
    <polygon class="st0" points="140,4.5 156.3,5.5 172.5,11.6 192.8,11.6 211.1,14.6 228.3,18.7 244.6,18.7 262.8,24.8 288.2,28.9
    304.5,28.9 310.6,28.9 310.6,107 308.5,124.3 308.5,151.7 308.5,181.1 310.6,201.4 306.5,217.6 304.5,235.9 296.3,250.1 276,266.3
    261.8,274.5 251.7,276.5 237.5,281.6 216.2,276.5 195.9,269.4 176.6,258.2 164.4,241 150.2,220.7 146.1,211.5 142.1,191.2 140,175
    141.1,137.5 140,119.2 141.1,99.9 141.1,62.4 140,45.1 137,23.8"/>
    <polygon class="st0" points="320,9.5 336,13.5 358,16.5 371,17.5 383,17.5 401,23.5 418,34.5 432,51.5 440,69.5 441,87.5
    439,105.5 436,116.5 430,127.5 423,134.5 411,143.5 401,149.5 382,146.5 399,170.5 434,213.5 460,238.5 468,253.5 481,266.5
    493,279.5 498,286.5 480,283.5 451,281.5 443,280.5 426,275.5 409,272.5 392,272.5 377,268.5 362,267.5 355,266.5 328,260.5
    322,260.5 320,241.5 322,223.5 323,195.5 322,177.5 322,151.5 320,132.5 320,119.5 318,107.5 323,86.5 321,65.5 322,44.5 321,20.5
    "/>
    <polygon class="st0" points="428.5,6.6 445.3,8.7 463.1,8.7 480.9,12.8 499.7,14.9 516.5,20.2 535.4,20.2 555.3,25.4 568.9,26.5
    587.7,26.5 604.5,32.7 601.4,45.3 593,70.5 583.5,100.8 576.2,123.9 569.9,143.8 561.5,158.5 555.3,179.4 549,198.3 542.7,212.9
    539.5,231.8 531.2,248.6 525.9,269.5 519.6,284.2 513.4,263.2 505,242.3 498.7,225.5 492.4,199.3 486.1,181.5 478.8,164.7
    474.6,144.8 469.4,133.3 465.2,120.7 458.9,96.7 454.7,86.2 446.3,65.2 442.1,47.4 437.9,35.9 431.6,17"/>
    <polygon class="st0" points="614,6.5 631.2,6.5 647.5,13.6 671.8,16.7 689.1,18.7 704.3,18.7 717.5,20.7 734.8,25.8 755.1,25.8
    771.3,29.9 783.5,30.9 784.5,77.6 784.5,107 780.4,126.3 782.5,156.7 782.5,179.1 784.5,204.4 779.4,220.7 777.4,237.9
    770.3,251.1 763.2,257.2 757.1,265.3 746.9,269.4 735.8,275.5 726.6,278.5 714.5,281.6 697.2,279.5 683,275.5 667.8,270.4
    657.6,264.3 649.5,258.2 638.4,244 619.1,214.6 617,191.2 614,177 614,148.6 614,130.3 612,120.2 615,102.9 615,74.5 615,50.2
    612,25.8"/>
    <polygon class="st0" points="796,5.5 812,9.5 832,10.5 856,13.5 875,19.5 894,32.5 905,45.5 915,67.5 915,92.5 912,108.5
    903,124.5 891,135.5 875,145.5 856,142.5 873,166.5 910,208.5 934,234.5 945,252.5 960,266.5 974,284.5 950,278.5 927,277.5
    918,276.5 900,271.5 885,269.5 865,268.5 849,263.5 833,263.5 821,261.5 804,256.5 796,256.5 795,237.5 796,218.5 796,182.5
    795,138.5 796,121.5 794,102.5 798,81.5 794,63.5 796,30.5"/>
  </g>
</svg>
