<?xml version="1.0" encoding="utf-8"?>
<!-- Generator: Adobe Illustrator 22.0.1, SVG Export Plug-In . SVG Version: 6.00 Build 0)  -->
<svg version="1.1" id="Layer_1" xmlns="http://www.w3.org/2000/svg" xmlns:xlink="http://www.w3.org/1999/xlink" x="0px" y="0px"
	 viewBox="0 0 951 287.3" style="enable-background:new 0 0 951 287.3;" xml:space="preserve">
<style type="text/css">
	.st0{fill:#FFFFFF;}
	.st1{fill:#3C1D1F;}
</style>
<g>
	<path class="st0" d="M146.4,190.7l-50.9,7.2l44.1,82.2l-50.9,7.2L16.9,153.6l0,0L0,122l101.8-14.3l16.9,31.6l-50.9,7.2l10.6,19.8
		l50.9-7.2L146.4,190.7z M257.3,85.9l-146.4,20.6L170.2,217c17.5,32.6,64.5,54.5,104.9,48.8c40.4-5.7,59-36.8,41.5-69.4L257.3,85.9z
		 M367,160.8c0.7-0.1,1.4-0.2,2.1-0.3c29-4.1,42.3-26.4,29.7-49.8s-46.3-39.1-75.3-35c-3.3,0.5-6.5,1.2-9.4,2.1L271,83.9l88.7,165.2
		l46.4-6.5v0l4.5-0.6l103.7-14.6l-146.3-64.8L367,160.8z M795.7,102.5l-1-1.8c0.7-0.1,1.4-0.2,2.1-0.3c29-4.1,42.3-26.4,29.7-49.8
		c-12.6-23.4-46.3-39.1-75.3-35c-3.3,0.5-6.5,1.2-9.4,2.1l-43.2,6.1l88.7,165.2l50.9-7.2L942,167.3L795.7,102.5z M379.6,68.7
		l165.5,154.4L528.3,47.8L379.6,68.7z M683.7,25.9L537.4,46.5L596.7,157c17.5,32.6,64.5,54.5,104.9,48.8c40.4-5.7,59-36.8,41.5-69.4
		L683.7,25.9z"/>
	<path class="st1" d="M155.4,175.7l-50.9,7.2l44.1,82.2l-50.9,7.2L25.9,138.6l0,0L9,107l101.8-14.3l16.9,31.6l-50.9,7.2l10.6,19.8
		l50.9-7.2L155.4,175.7z M266.3,70.9L119.9,91.4L179.2,202c17.5,32.6,64.5,54.5,104.9,48.8c40.4-5.7,59-36.8,41.5-69.4L266.3,70.9z
		 M376,145.8c0.7-0.1,1.4-0.2,2.1-0.3c29-4.1,42.3-26.4,29.7-49.8s-46.3-39.1-75.3-35c-3.3,0.5-6.5,1.2-9.4,2.1L280,68.9l88.7,165.2
		l46.4-6.5v0l4.5-0.6l103.7-14.6l-146.3-64.8L376,145.8z M804.7,87.5l-1-1.8c0.7-0.1,1.4-0.2,2.1-0.3c29-4.1,42.3-26.4,29.7-49.8
		c-12.6-23.4-46.3-39.1-75.3-35c-3.3,0.5-6.5,1.2-9.4,2.1l-43.2,6.1l88.7,165.2l50.9-7.2L951,152.3L804.7,87.5z M388.6,53.7
		l165.5,154.4L537.3,32.8L388.6,53.7z M692.7,10.9L546.4,31.5L605.7,142c17.5,32.6,64.5,54.5,104.9,48.8c40.4-5.7,59-36.8,41.5-69.4
		L692.7,10.9z"/>
</g>
</svg>
