<svg id="speckles" xmlns="http://www.w3.org/2000/svg" viewBox="0 0 622.5 601.5">
<style type="text/css">
  .Speckle--green{fill:#E1ED45;}
  .Speckle--purple{fill:#372B6A;}
  .Speckle--orange{fill:#F36200;}
  .Speckle--lightBlue{fill:#98D2E0;}
  .Speckle--yellow{fill:#FAF300;}
  .Speckle--lavender{fill:#372B6A;}
  .Speckle--blue{fill:#0C12F0;}
  .Speckle--darkPurple{fill:#361E1B;}
</style>
<path class="Speckle--green" d="M238,379.1c1.6-1.2,2.6-2.5,4.5-3c3.4-0.8,5.4,1.5,5.8,4c0.3,1.6,0.3,3.3,0.2,4.9c-0.1,2-1.5,3.4-2.9,4.6
  c-1.5,1.2-3.1,1.7-5.2,1.4c-2.6-0.4-4.1-2.1-4.4-4.3C235.6,383.8,235.9,381,238,379.1z"/>
<path class="Speckle--purple" d="M246,479.5c0,0.2,0.1,0.6,0,0.7c-1,1.2-1.7,2.6-2.6,3.8c-0.6,0.7-1.7,1.2-2.7,1.4c-2.1,0.5-4.2,0.2-6.2-0.5
  c-2-0.7-3.1-2.4-2.9-4.6c0.2-3.3,2-5.6,4.7-7.3c1.7-1,4.5-0.6,5.8,0.9C243.7,475.6,245.2,477.3,246,479.5L246,479.5z"/>
<path class="Speckle--orange" d="M283.6,229.1c-2.2-2.2-2.2-6.4,0.1-8.5c2.4-2.1,5.6-2.3,8.2-0.1c2,1.6,2.1,6.6,0.2,8.6
  C290.4,231.1,285.5,231.1,283.6,229.1z"/>
<path class="Speckle--lightBlue" d="M207.2,297.9c-0.6-0.5-0.9-0.8-1.3-1.1c-1-0.8-1.8-1.7-1.6-3.2c0.2-1.7,0.6-3.2,2.2-4.1c1-0.6,2-0.7,3-0.5
  c1.6,0.3,3.2,1.1,3.9,2.7c0.8,1.8,0.2,3.7-1.1,5.2c-0.4,0.5-1.2,0.8-1.8,0.9C209.4,297.9,208.4,297.9,207.2,297.9z"/>
<path class="Speckle--yellow" d="M245,345.9c-0.4-1.3-0.9-2.4-1.2-3.6c-0.4-1.4,0.2-2.5,1.3-3.4c1-0.8,2.1-0.8,3.3-0.4c1.9,0.8,3,2.1,3.2,4.2
  c0.2,1.7-0.9,2.8-2.6,2.9C247.6,345.7,246.4,345.8,245,345.9z"/>
<path class="Speckle--lavender" d="M259,322.8c1.1,1.1,1.2,2.6,0.1,3.7c-1.1,1.1-2.8,1-4-0.2c-0.9-1-0.8-2.6,0.2-3.7
  C256.4,321.5,257.9,321.6,259,322.8z"/>
<path class="Speckle--purple" d="M389.4,354.3c-1.6-1.6-1.3-3.7,0.5-4.6c1.2-0.6,3.1,0.2,3.8,1.5c0.6,1-0.1,2.4-1.4,3.1
  C391.2,354.9,390.1,354.9,389.4,354.3z"/>
<path class="Speckle--yellow" d="M298.5,355.8c-0.7-0.7-0.7-1.9-0.1-2.5c0.8-0.9,2.4-0.9,3.1,0c0.7,0.8,0.6,2.2-0.1,2.9
  C300.6,356.7,299.2,356.6,298.5,355.8z"/>
<path class="Speckle--purple" d="M180.9,378.3c-0.9,0.9-2.2,0.9-3.1-0.1c-0.7-0.7-0.6-1.7,0.1-2.5c0.9-0.9,2.2-0.8,3.1,0.1
  C181.7,376.5,181.6,377.6,180.9,378.3z"/>
<path class="Speckle--yellow" d="M416.5,322.6c0.9,0.1,1.6-0.1,2,0.2c0.6,0.3,1.1,0.9,1.4,1.5c0.4,0.9-0.1,1.9-1.1,2.2c-0.8,0.3-1.9-0.2-2.2-1.2
  c-0.1-0.4,0-0.9,0-1.4C416.6,323.6,416.5,323.2,416.5,322.6z"/>
<path class="Speckle--purple" d="M96.1,304.8c0.7-0.8,2-0.9,2.8-0.2c0.7,0.6,0.8,1.9,0.1,2.5c-0.7,0.7-2.2,0.8-2.9,0.2
  C95.5,306.8,95.5,305.5,96.1,304.8z"/>
<path class="Speckle--lightBlue" d="M412,214.7c-0.8-0.7-0.8-2.4-0.1-3.1c0.4-0.4,1.7-0.4,2.2,0.1c0.7,0.7,0.9,2,0.3,2.8
  C414,215.2,412.6,215.3,412,214.7z"/>
<path class="Speckle--orange" d="M343.1,312.8c-0.7-0.6-0.7-1.7,0.1-2.4c0.6-0.5,1.4-0.5,2.2,0c0.8,0.6,1,1.7,0.3,2.4
  C344.9,313.4,343.8,313.4,343.1,312.8z"/>
<path class="Speckle--blue" d="M487.9,245.3c-0.6-0.6-0.6-1.7,0-2.1c0.6-0.5,1.7-0.5,2.2,0c0.6,0.5,0.7,1.6,0.2,2.2
  C489.8,246,488.6,246,487.9,245.3z"/>
<path class="Speckle--yellow" d="M334.9,176.6c-0.5-0.7-0.4-1.5,0.3-2.1c0.7-0.6,1.7-0.4,2.3,0.5c0.5,0.7,0.4,1.6-0.2,2.1
  C336.6,177.7,335.5,177.5,334.9,176.6z"/>
<path class="Speckle--darkPurple" d="M354.9,284.1c-0.5-0.4-0.5-1.2-0.1-1.8c0.4-0.6,1.3-0.7,1.8-0.3c0.5,0.5,0.8,1.1,0.4,1.8
  C356.6,284.5,355.5,284.6,354.9,284.1z"/>
<path class="Speckle--yellow" d="M338.9,219c0.1-0.4,0.2-1.1,0.5-1.6c0.4-0.5,1.3-0.4,1.8,0.1c0.5,0.5,0.5,1.4,0,1.9
  C340.7,220,339.6,219.9,338.9,219z"/>
<path class="Speckle--purple" d="M386.8,276.7c0.1-0.3,0-0.9,0.2-1.3c0.5-0.7,1.6-0.6,2,0.1c0.3,0.6,0.2,1.1-0.3,1.5
  C388.2,277.6,387.5,277.5,386.8,276.7z"/>
<path class="Speckle--blue" d="M140.8,264.2c-0.7-0.9-0.6-1.8,0.1-2.3c0.5-0.4,1.1-0.3,1.5,0.1c0.6,0.6,0.7,1.7,0,2.1
  C141.9,264.3,141.2,264.2,140.8,264.2z"/>
<path class="Speckle--orange" d="M402.2,409.5c-0.6,0.8-1.5,0.8-2,0.4c-0.6-0.5-0.6-1.3-0.1-1.8c0.5-0.5,1.5-0.7,1.8-0.1
  C402.2,408.4,402.1,409.1,402.2,409.5z"/>
<path class="Speckle--blue" d="M207.8,400.7c-0.8-0.2-1.4-0.2-1.8-0.5c-0.5-0.4-0.3-1.4,0.2-1.8c0.4-0.3,1.3-0.3,1.5,0.2
  C207.9,399.2,207.8,399.8,207.8,400.7z"/>
<path class="Speckle--lightBlue" d="M274,272c-0.5-0.6-0.4-1.4,0.1-1.8c0.5-0.4,1.5-0.3,1.8,0.3c0.3,0.5,0.3,1.1-0.1,1.5
  C275.3,272.5,274.5,272.5,274,272z"/>
<path class="Speckle--orange" d="M153.7,307.5c0.8-0.7,1.9-0.7,2.3,0c0.4,0.5,0.4,1.1-0.1,1.6c-0.6,0.6-1.7,0.5-2.1-0.2
  C153.6,308.4,153.7,307.8,153.7,307.5z"/>
<path class="Speckle--darkPurple" d="M333.9,216.1c0-0.7-0.1-1.3,0.1-1.7c0.3-0.5,1-0.4,1.5-0.1c0.6,0.4,0.6,1.5,0.1,1.7
  C335.1,216.2,334.6,216.1,333.9,216.1z"/>
<path class="Speckle--purple" d="M220,352.8c0.9,0.1,1.6,0,2.2,0.3c0.5,0.3,0.4,1.4,0,1.9c-0.4,0.5-1.5,0.6-1.8,0
  C220.1,354.4,220.2,353.7,220,352.8z"/>
<path class="Speckle--orange" d="M405.4,252c0.2-0.8,0.2-1.4,0.4-1.8c0.3-0.4,1.2-0.2,1.5,0.2c0.4,0.5,0.4,1.2-0.2,1.5
  C406.8,252.2,406.2,252,405.4,252z"/>
<path class="Speckle--darkPurple" d="M473.4,304.2c0.8-0.6,1.7-0.5,2,0.2c0.3,0.5,0.3,1.1-0.2,1.6c-0.5,0.4-1.5,0.3-1.8-0.4
  C473.3,305.1,473.4,304.5,473.4,304.2z"/>
<path class="Speckle--blue" d="M356.2,237c0.4,0.1,1.1,0.1,1.6,0.4c0.2,0.2,0.1,1.1-0.2,1.5c-0.4,0.6-1.3,0.4-1.7-0.2
  C355.5,238.2,355.4,237.6,356.2,237z"/>
<path class="Speckle--purple" d="M337.6,303.6c-0.9-0.2-1.6-0.2-2.1-0.5c-0.5-0.3-0.3-1.4,0.3-1.8c0.6-0.4,1.5-0.3,1.7,0.4
  C337.7,302.2,337.6,302.8,337.6,303.6z"/>
<path class="Speckle--green" d="M363.7,253.2c0.8,0.1,1.4,0.1,1.8,0.4c0.5,0.3,0.7,0.9,0.3,1.5c-0.4,0.6-1.4,0.6-1.8,0
  C363.8,254.6,363.9,254,363.7,253.2z"/>
<path class="Speckle--purple" d="M388.8,63c0-0.9-0.2-1.6,0-2.1c0.3-0.4,1-0.4,1.5,0c0.6,0.5,0.8,1.4,0.2,1.8C390.1,63,389.6,62.9,388.8,63z"/>
<path class="Speckle--purple" d="M466.8,390.9c0,0.7,0.1,1.3-0.1,1.7c-0.3,0.6-0.9,0.6-1.4,0.3c-0.5-0.3-0.7-1.5-0.3-1.7
  C465.5,390.9,466.1,391,466.8,390.9z"/>
<path class="Speckle--purple" d="M378.5,302.4c0.6-0.4,1.2-0.7,1.9-0.3c0.5,0.3,0.7,1.1,0.4,1.5c-0.3,0.5-1.1,0.6-1.5,0.1
  c-0.4-0.4-0.6-1-0.8-1.5L378.5,302.4z"/>
<path class="Speckle--orange" d="M338.6,279.7c0,0.8,0.1,1.3-0.1,1.8c-0.3,0.6-1.3,0.6-1.7,0c-0.4-0.5-0.4-1.2,0.1-1.5
  C337.2,279.7,337.8,279.8,338.6,279.7z"/>
<path class="Speckle--yellow" d="M390,213.3c0.7,0.2,1.2,0.2,1.5,0.4c0.4,0.5,0.4,1.1-0.2,1.5c-0.3,0.2-1.1,0.1-1.2-0.1
  C389.9,214.6,390,214.1,390,213.3z"/>
<path class="Speckle--green" d="M323.8,276.5c0-0.7-0.1-1.1,0-1.5c0.2-0.5,1.2-0.6,1.4-0.2c0.2,0.3,0.2,0.9,0,1.2
  C325,276.3,324.4,276.3,323.8,276.5z"/>
<path class="Speckle--yellow" d="M430.9,405.3c0-0.3-0.1-1,0.1-1.3c0.4-0.5,1.1-0.5,1.5,0.1c0.2,0.3,0.2,0.9,0.1,1.2
  C432.3,405.8,431.6,405.9,430.9,405.3z"/>
<path class="Speckle--darkPurple" d="M391.7,378c0.1-0.5,0.1-0.9,0.2-1.1c0.4-0.5,1.1-0.5,1.5-0.1c0.2,0.2,0.1,1.1,0,1.2
  C392.9,378.1,392.4,378,391.7,378z"/>
<path class="Speckle--green" d="M454.3,428.1c-0.7-0.1-1.2,0-1.5-0.2c-0.2-0.2-0.3-0.8-0.2-1.1c0.2-0.3,0.7-0.3,1.1-0.4
  C453.9,426.8,454,427.3,454.3,428.1z"/>
<path class="Speckle--blue" d="M548.7,329.8c-0.8-0.2-1.4-0.2-1.7-0.5c-0.2-0.2-0.2-0.9,0-1.2c0.4-0.4,1.1-0.3,1.5,0.2
  C548.6,328.5,548.5,329,548.7,329.8z"/>
<path class="Speckle--yellow" d="M305.5,257c-0.6-0.2-1.1-0.2-1.4-0.4c-0.5-0.3-0.4-1.2,0.1-1.5c0.5-0.3,1.3-0.1,1.5,0.4
  C305.8,255.9,305.6,256.4,305.5,257z"/>
<path class="Speckle--lavender" d="M393.4,264.9c-0.6,0.6-1.4,0.5-1.6,0c-0.1-0.3-0.1-0.7,0.1-0.9c0.3-0.6,1.2-0.7,1.4-0.2
  C393.4,264.2,393.4,264.7,393.4,264.9z"/>
<path class="Speckle--purple" d="M410.2,205.5c-0.7-0.1-1.2,0-1.5-0.2c-0.5-0.3-0.5-1.2,0-1.5c0.3-0.1,0.9-0.1,1.2,0.2
  C410.1,204.3,410.1,204.9,410.2,205.5z"/>
<path class="Speckle--green" d="M316.8,346.8c-0.2,1.3-0.2,1.9-0.4,2.4c-0.1,0.2-0.6,0.4-0.8,0.4c-0.2-0.1-0.5-0.6-0.4-0.7
  C315.5,348.3,315.9,347.8,316.8,346.8z"/>
<path class="Speckle--darkPurple" d="M398.2,329c0-0.7-0.1-1.3,0.1-1.5c0.2-0.2,0.8-0.3,1.1-0.1c0.5,0.2,0.5,0.8,0.1,1.1
  C399.3,328.8,398.8,328.8,398.2,329z"/>
<path class="Speckle--purple" d="M118.8,471.6c0-0.3-0.1-0.9,0.1-1.3c0.1-0.2,0.8-0.2,1.2-0.1c0.5,0.2,0.6,0.7,0.3,1.1
  C120.1,471.9,119.4,472.1,118.8,471.6z"/>
<path class="Speckle--blue" d="M378.5,302.3c-0.5,0.1-1,0.4-1.6,0.4c-0.2,0-0.6-0.3-0.7-0.6c-0.1-0.2,0.1-0.7,0.3-0.8c0.2-0.2,0.7-0.2,0.9,0
  c0.4,0.3,0.8,0.8,1.1,1.2C378.5,302.4,378.5,302.3,378.5,302.3z"/>
<path class="Speckle--yellow" d="M426.6,257.4c-0.7-0.1-1.3,0-1.5-0.2c-0.2-0.2-0.3-0.8-0.2-1.1c0.2-0.4,0.8-0.5,1.1-0.1
  C426.3,256.3,426.4,256.7,426.6,257.4z"/>
<path class="Speckle--lavender" d="M325.8,405c0.6,0.2,1.2,0.2,1.3,0.5c0.2,0.3,0,0.8-0.1,1.1c-0.4,0-0.9,0-1.1-0.2
  C325.7,406.2,325.9,405.7,325.8,405z"/>
<path class="Speckle--purple" d="M80.3,401c-0.3,0.4-0.5,0.8-0.8,1.1c-0.3,0.3-0.8,0.6-1.1,0.1c-0.1-0.2,0.2-0.8,0.4-1.1
  C79.3,400.6,79.8,400.5,80.3,401L80.3,401z"/>
<path class="Speckle--purple" d="M101.1,409c0.3,0.2,0.8,0.4,0.7,0.6c-0.1,0.6-0.3,1.2-0.6,2.2c-1-1.3-0.3-2,0-2.8L101.1,409z"/>
<path class="Speckle--purple" d="M80.3,401c0.4-0.9,0.7-1.9,2.1-2.2C82,400,81.1,400.5,80.3,401C80.3,401,80.3,401,80.3,401z"/>
<path class="Speckle--orange" d="M562,170c0-0.7-0.1-1.3,0-1.5c0.2-0.2,0.8-0.2,1.1,0c0.2,0.1,0.3,0.7,0.2,0.9C563.1,169.6,562.6,169.7,562,170z
  "/>
<path class="Speckle--purple" d="M75.8,380.7c0.1,0.3,0.2,0.6,0.1,0.7c-0.3,0.3-0.7,0.5-1.1,0.6c-0.1,0-0.4-0.5-0.6-0.7c0.3-0.2,0.5-0.4,0.8-0.5
  C75.3,380.7,75.6,380.7,75.8,380.7z"/>
<path class="Speckle--yellow" d="M284.7,309.5c0.1-0.8,0.1-1.3,0.3-1.7c0.1-0.1,0.8-0.2,0.8-0.1c0.2,0.5,0.3,1,0.3,1.5
  C286.1,309.2,285.5,309.3,284.7,309.5z"/>
<path class="Speckle--green" d="M161.4,253.3c0.1-0.6,0-1,0.1-1.1c0.3-0.1,0.7-0.1,1.1-0.1c0,0.3,0.1,0.7,0,0.8
  C162.4,253.1,162,253.1,161.4,253.3z"/>
<path class="Speckle--lavender" d="M354,370.4c0-0.8-0.2-1.3,0-1.5c0.2-0.2,0.8-0.2,1.1,0c0.2,0.1,0.3,0.7,0.2,0.9
  C355.1,370,354.7,370.1,354,370.4z"/>
<path class="Speckle--darkPurple" d="M300.3,362c0.6,0.1,1,0.1,1.2,0.2c0.4,0.4,0.3,0.9-0.1,1.1c-0.2,0.1-0.8,0.1-0.9-0.1
  C300.2,362.9,300.3,362.5,300.3,362z"/>
<path class="Speckle--purple" d="M236.8,514.4c0.3-0.8,0.6-1.5,1.6-1.5c0.2,0,0.4,0.2,0.4,0.3c0,0.2-0.1,0.5-0.2,0.6
  C238.1,514.1,237.4,514.2,236.8,514.4C236.8,514.4,236.8,514.4,236.8,514.4z"/>
<path class="Speckle--purple" d="M287.8,264.8c-0.4-0.2-0.7-0.3-0.9-0.5c-0.1-0.1,0-0.6,0-0.6c0.3,0,0.7-0.1,0.9,0.1
  C288,263.9,287.8,264.3,287.8,264.8z"/>
<path class="Speckle--darkPurple" d="M289.6,238.6c-0.4-0.2-0.7-0.3-1-0.5c-0.1,0,0.1-0.5,0.1-0.5c0.4,0.1,0.7,0.2,1.1,0.3
  C289.8,238,289.7,238.2,289.6,238.6z"/>
<path class="Speckle--lightBlue" d="M341.8,363c0-0.4,0-0.9,0.1-1c0.2-0.2,0.6,0,0.9,0c0,0.3,0.1,0.8,0,0.9C342.7,363.1,342.3,363,341.8,363z"/>
<path class="Speckle--darkPurple" d="M362.1,233.8c-0.4-0.1-0.8,0-1-0.1c-0.2-0.2-0.1-0.6-0.1-0.9c0.3,0,0.7-0.1,0.9,0.1
  C362.1,232.9,362,233.3,362.1,233.8z"/>
<path class="Speckle--darkPurple" d="M302.9,296.4c0-0.5,0-1,0-1.1c0.4-0.1,0.8-0.1,1.1,0c0.1,0,0.1,0.7,0,0.8C303.8,296.3,303.4,296.3,302.9,296.4z
  "/>
<path class="Speckle--purple" d="M419.8,227c-0.4,0-0.8,0.1-0.9-0.1c-0.2-0.2-0.3-0.5-0.4-0.8c0.4-0.1,0.8-0.2,1.2-0.1
  C419.7,226,419.7,226.5,419.8,227z"/>
<path class="Speckle--lavender" d="M400.4,314.4c0,0.5,0,1-0.1,1.3c-0.1,0.1-0.8,0.2-0.9,0c-0.2-0.3-0.2-0.8-0.2-1.2
  C399.5,314.5,399.8,314.4,400.4,314.4z"/>
<path class="Speckle--purple" d="M211.4,86.2c0-0.4,0-0.7,0-1c0.4,0,0.7,0,1.1,0c0,0.3,0.1,0.7-0.1,0.9C212.2,86.3,211.8,86.2,211.4,86.2z"/>
<path class="Speckle--green" d="M404.7,340.8c0.1-0.4,0-0.8,0.2-1c0.2-0.2,0.6-0.3,0.9-0.2c0.4,0.1,0.4,0.9,0,1.1
  C405.5,340.9,405.2,340.8,404.7,340.8z"/>
<path class="Speckle--green" d="M212.8,336.3c0.1-0.5,0.1-0.8,0.2-1c0.1-0.1,0.5-0.1,0.5-0.1c0.1,0.2,0.2,0.5,0.2,0.8
  C213.6,336.1,213.3,336.2,212.8,336.3z"/>
<path class="Speckle--darkPurple" d="M231.3,304.2c-0.1-0.3-0.1-0.5-0.2-0.8c0.3-0.1,0.6-0.2,0.8-0.1c0.1,0,0.2,0.5,0.2,0.6
  C231.9,304,231.6,304.1,231.3,304.2z"/>
<path class="Speckle--yellow" d="M497.1,221.8c0-0.2,0-0.4,0.1-0.6c0.3,0.1,0.5,0.1,0.8,0.2c-0.1,0.2-0.1,0.5-0.3,0.6
  C497.6,222,497.3,221.9,497.1,221.8z"/>
<path class="Speckle--green" d="M297.1,260.7c-0.2,0-0.4,0-0.6,0c0.1-0.3,0.1-0.5,0.2-0.8c0.2,0.1,0.5,0.1,0.6,0.3
  C297.4,260.2,297.2,260.5,297.1,260.7z"/>
<path class="Speckle--lightBlue" d="M438.1,306.8c0-0.5,0-0.8,0.1-1c0.1-0.1,0.5-0.3,0.6-0.2c0.2,0.2,0.4,0.6,0.3,0.8
  C439,306.5,438.6,306.6,438.1,306.8z"/>
<path class="Speckle--lightBlue" d="M282.7,210.3c0.1-0.5,0.1-0.8,0.2-1.1c0.2,0,0.4,0,0.6,0.1c0.1,0.1,0.2,0.4,0.2,0.6
  C283.4,210,283.2,210.1,282.7,210.3z"/>
<path class="Speckle--green" d="M419.5,329.4c-0.1-0.3-0.2-0.5-0.2-0.7c0.3-0.1,0.6-0.1,0.9-0.1c0.1,0,0.2,0.5,0.2,0.6
  C420.1,329.2,419.8,329.3,419.5,329.4z"/>
<path class="Speckle--blue" d="M378.8,377.3c0-0.4-0.1-0.7-0.1-1c0.3,0,0.7-0.2,0.8,0c0.2,0.1,0.2,0.5,0.2,0.8
  C379.5,377.1,379.2,377.2,378.8,377.3z"/>
<path class="Speckle--yellow" d="M334.9,326.6c0.4,0.1,0.7,0.1,0.9,0.2c0.4,0.3,0.3,0.8-0.1,1c-0.2,0.1-0.7-0.1-0.8-0.3
  C334.8,327.4,334.9,327,334.9,326.6z"/>
<path class="Speckle--purple" d="M382.2,278.8c-0.5,0-0.8,0.1-1.1,0c-0.1,0-0.2-0.5-0.2-0.6c0.2-0.2,0.6-0.4,0.8-0.4
  C381.9,278,382,278.4,382.2,278.8z"/>
<path class="Speckle--darkPurple" d="M353.6,203.3c-0.1,0.5-0.1,0.8-0.2,1c0,0-0.4,0-0.5-0.1c-0.1-0.1-0.2-0.4-0.2-0.5
  C352.8,203.5,353.1,203.4,353.6,203.3z"/>
<path class="Speckle--purple" d="M547.9,230.3c-0.3,0.1-0.5,0.1-0.7,0.2c-0.1-0.3-0.2-0.6-0.1-0.8c0-0.1,0.4-0.2,0.6-0.2
  C547.7,229.7,547.8,230,547.9,230.3z"/>
<path class="Speckle--lightBlue" d="M378,195.6c-0.5-0.1-0.9,0-1-0.1c-0.2-0.2-0.1-0.6-0.1-0.9c0.3,0,0.6-0.1,0.8,0.1
  C377.9,194.8,377.9,195.1,378,195.6z"/>
<path class="Speckle--blue" d="M404.9,179.8c-0.4,0.1-0.6,0.1-0.8,0.2c-0.1-0.3-0.1-0.6-0.2-0.9c0.2,0,0.5-0.2,0.6-0.1
  C404.7,179.2,404.8,179.5,404.9,179.8z"/>
<path class="Speckle--green" d="M265.9,354.5c0-0.2,0.1-0.4,0.1-0.6c0.3,0.1,0.5,0.2,0.8,0.3c-0.1,0.2-0.2,0.4-0.4,0.5
  C266.3,354.7,266,354.5,265.9,354.5z"/>
<path class="Speckle--purple" d="M607.1,266.8c-0.2,0-0.4,0-0.6,0c0-0.3,0.1-0.5,0.1-0.8c0.2,0.1,0.4,0.1,0.5,0.2
  C607.2,266.4,607.1,266.6,607.1,266.8z"/>
<path class="Speckle--purple" d="M345.9,522.3c0.2-0.4,0.2-0.9,0.4-0.9c0.2-0.1,0.5,0.1,0.8,0.3c0.1,0,0,0.5-0.1,0.6
  C346.7,522.3,346.4,522.3,345.9,522.3z"/>
<path class="Speckle--purple" d="M366.8,490.2c0-0.4-0.1-0.8,0-1c0-0.1,0.5-0.2,0.5-0.2c0.2,0.2,0.3,0.5,0.5,0.8
  C367.5,489.8,367.2,490,366.8,490.2z"/>
<path class="Speckle--lightBlue" d="M270.4,353.1c-0.5,0-0.9,0.1-1,0c-0.2-0.2-0.2-0.7-0.1-0.8c0.1-0.2,0.6-0.2,0.8-0.1
  C270.2,352.3,270.2,352.7,270.4,353.1z"/>
<path class="Speckle--purple" d="M354.7,267.6c-0.1-0.3-0.3-0.7-0.2-0.7c0.3-0.1,0.6-0.2,0.9-0.3c0.1,0.3,0.2,0.6,0.2,0.9
  C355.3,267.5,355,267.5,354.7,267.6z"/>
<path class="Speckle--lavender" d="M395.4,246.5c0.2-0.4,0.3-0.7,0.5-0.9c0.3,0.1,0.6,0.2,0.8,0.4c0.1,0.1-0.1,0.5-0.2,0.5
  C396.2,246.7,395.9,246.6,395.4,246.5z"/>
<path class="Speckle--purple" d="M314.4,473.4c0,0.4,0.1,0.8,0,1c0,0.1-0.5,0.2-0.5,0.2c-0.2-0.2-0.3-0.5-0.4-0.8
  C313.7,473.7,313.9,473.6,314.4,473.4z"/>
<path class="Speckle--green" d="M346.8,208.8c0-0.2,0.1-0.4,0.1-0.5c0.2,0,0.5,0.1,0.7,0.1c-0.1,0.2-0.1,0.4-0.3,0.5
  C347.2,209,347,208.9,346.8,208.8z"/>
<path class="Speckle--purple" d="M77.3,281.4c0,0.2-0.1,0.4-0.1,0.6c-0.3-0.1-0.5-0.1-0.8-0.2c0.1-0.2,0.1-0.5,0.3-0.5
  C76.9,281.3,77.1,281.4,77.3,281.4z"/>
<path class="Speckle--purple" d="M255.7,106.5c0-0.2,0-0.4,0-0.6c0.2,0.1,0.5,0.1,0.7,0.2c0,0.2-0.1,0.3-0.1,0.5
  C256,106.6,255.9,106.6,255.7,106.5z"/>
<path class="Speckle--darkPurple" d="M150.2,227c0-0.2,0.1-0.3,0.1-0.5c0.2,0.1,0.5,0.2,0.7,0.2c-0.1,0.2-0.2,0.4-0.3,0.5
  C150.6,227.3,150.4,227.1,150.2,227z"/>
<path class="Speckle--purple" d="M337.5,112.2c0.1-0.2,0.1-0.4,0.2-0.6c0.2,0.1,0.5,0.2,0.7,0.3c-0.1,0.2-0.2,0.5-0.3,0.5
  C337.9,112.4,337.7,112.3,337.5,112.2z"/>
<path class="Speckle--purple" d="M182.2,303c-0.1-0.3-0.2-0.5-0.3-0.7c0.3-0.1,0.5-0.2,0.8-0.1c0.1,0,0.2,0.4,0.2,0.5
  C182.7,302.8,182.4,302.9,182.2,303z"/>
<path class="Speckle--purple" d="M113.9,413.1c-0.1-0.1-0.3-0.3-0.4-0.4c0,0,0.1-0.2,0.1-0.3c0.1,0.1,0.3,0.3,0.4,0.4
  C114,412.8,114,412.9,113.9,413.1z"/>
<path class="Speckle--darkPurple" d="M378.3,386.4c-0.3,0.1-0.5,0.2-0.7,0.3c-0.1-0.3-0.2-0.5-0.3-0.8c0.2-0.1,0.4-0.2,0.5-0.1
  C378,385.9,378.1,386.1,378.3,386.4z"/>
<path class="Speckle--purple" d="M423.3,345.5c0,0.2,0.2,0.4,0.1,0.5c-0.1,0.2-0.3,0.2-0.5,0.3c-0.1-0.2-0.2-0.4-0.1-0.6
  C422.8,345.6,423.1,345.5,423.3,345.5z"/>
<path class="Speckle--green" d="M455.9,318.5c0.1-0.2,0.1-0.4,0.2-0.6c0.2,0.1,0.5,0.1,0.6,0.3c0.1,0.1-0.1,0.4-0.2,0.5
  C456.3,318.7,456.1,318.6,455.9,318.5z"/>
<path class="Speckle--purple" d="M527,278.5c0-0.1-0.1-0.2-0.1-0.3c0.2,0,0.4,0,0.6,0c0,0,0,0.3,0,0.3C527.3,278.4,527.1,278.4,527,278.5z"/>
<path class="Speckle--purple" d="M413.8,463.2c0-0.1,0.1-0.2,0.1-0.3c0.1,0,0.2,0.1,0.3,0.1c0,0.1-0.1,0.2-0.1,0.3
  C414,463.3,413.9,463.2,413.8,463.2z"/>
<path class="Speckle--purple" d="M622,255.9c-0.1-0.2-0.2-0.4-0.2-0.6c0.2-0.1,0.4-0.2,0.6-0.2c0.1,0,0.2,0.4,0.1,0.5
  C622.4,255.8,622.2,255.8,622,255.9z"/>
<path class="Speckle--purple" d="M436.8,446.2c0.2,0.1,0.4,0.2,0.6,0.2c-0.1,0.2-0.2,0.4-0.3,0.5c-0.1,0.1-0.4-0.1-0.5-0.2
  C436.7,446.6,436.8,446.4,436.8,446.2z"/>
<path class="Speckle--purple" d="M383.1,540.2c-0.1-0.2-0.1-0.4-0.2-0.6c0.3,0,0.5,0,0.8,0.1c0.1,0.1,0.1,0.4,0.1,0.6
  C383.5,540.2,383.3,540.2,383.1,540.2z"/>
<path class="Speckle--purple" d="M607.3,331.3c0-0.2,0-0.4,0-0.5c0.3,0.1,0.5,0.1,0.8,0.2c-0.1,0.2-0.1,0.4-0.3,0.5
  C607.8,331.5,607.5,331.4,607.3,331.3z"/>
<path class="Speckle--purple" d="M313.3,280.8c0-0.2-0.1-0.4-0.1-0.6c0.2,0,0.4,0,0.6,0c0,0,0.1,0.3,0.1,0.3
  C313.7,280.7,313.5,280.7,313.3,280.8z"/>
<path class="Speckle--purple" d="M306.7,323.9c-0.2-0.1-0.4-0.2-0.6-0.3c0.1-0.2,0.1-0.4,0.3-0.5c0.1-0.1,0.5,0.1,0.5,0.2
  C306.9,323.5,306.7,323.7,306.7,323.9z"/>
<path class="Speckle--darkPurple" d="M294.6,409.2c0-0.2,0-0.4,0.1-0.6c0.2,0,0.5,0.1,0.7,0.1c-0.1,0.2-0.1,0.5-0.2,0.6
  C295.1,409.4,294.8,409.3,294.6,409.2z"/>
<path class="Speckle--green" d="M293.7,415.8c-0.2,0-0.4,0-0.6,0c0-0.2,0-0.4,0.1-0.5c0,0,0.3-0.1,0.3,0C293.6,415.4,293.6,415.6,293.7,415.8z"
  />
<path class="Speckle--purple" d="M364.5,369.6c0-0.2-0.1-0.4-0.1-0.6c0.3,0,0.6,0.1,0.9,0.1c-0.1,0.2-0.1,0.5-0.2,0.6
  C365,369.8,364.7,369.6,364.5,369.6z"/>
<path class="Speckle--purple" d="M407.8,329.1c0.1,0.3,0.1,0.5,0.2,0.7c-0.3,0-0.6,0.2-0.8,0.1c-0.1,0-0.2-0.4-0.2-0.6
  C407.2,329.3,407.5,329.2,407.8,329.1z"/>
<path class="Speckle--purple" d="M421.4,337.9c-0.2-0.1-0.4-0.1-0.5-0.2c-0.1-0.1,0-0.3,0-0.5c0.2,0.1,0.4,0.1,0.5,0.2
  C421.5,337.5,421.4,337.7,421.4,337.9z"/>
<polygon class="Speckle--purple" points="357.1,400.3 357.3,400.1 357.4,400.4 "/>
<path class="Speckle--purple" d="M331.3,421.7c-0.1,0-0.2,0-0.2-0.1c0-0.1,0-0.2,0-0.2c0.1,0,0.2,0,0.2,0.1C331.3,421.5,331.3,421.6,331.3,421.7
  z"/>
<path class="Speckle--green" d="M486.1,214.6c0-0.1,0-0.2,0.1-0.3c0.1,0,0.2,0.1,0.4,0.1c-0.1,0.1-0.1,0.2-0.2,0.2
  C486.3,214.7,486.2,214.7,486.1,214.6z"/>
<path class="Speckle--purple" d="M431.4,265.8c-0.2-0.1-0.3-0.1-0.5-0.2c0,0,0-0.2,0-0.3c0.2,0.1,0.4,0.2,0.5,0.3
  C431.5,265.5,431.5,265.7,431.4,265.8z"/>
<path class="Speckle--purple" d="M213.3,480.4c-0.2,0-0.4,0.1-0.5,0.1c-0.1-0.2-0.1-0.4-0.1-0.5c0,0,0.3-0.1,0.3-0.1
  C213.1,480,213.2,480.2,213.3,480.4z"/>
<polygon class="Speckle--purple" points="458.7,233.2 458.9,233.1 458.8,233.3 "/>
<path class="Speckle--purple" d="M352.1,338.9c0-0.1,0.1-0.2,0.1-0.3c0.2,0.1,0.4,0.1,0.5,0.3c0,0,0,0.2,0,0.3
  C352.5,339.1,352.3,339,352.1,338.9z"/>
<polygon class="Speckle--purple" points="390.9,299.3 391.2,299.5 391,299.6 "/>
<path class="Speckle--green" d="M455.4,229.5c0.2,0,0.4,0,0.5,0.1c0.1,0.1,0,0.3,0,0.5c-0.1,0-0.3,0-0.3,0C455.5,229.9,455.5,229.7,455.4,229.5
  z"/>
<path class="Speckle--purple" d="M284.9,389.5c0-0.1-0.1-0.2-0.1-0.2c0.1,0,0.2-0.2,0.3-0.1c0.1,0,0.1,0.1,0.2,0.2
  C285.1,389.4,285,389.5,284.9,389.5z"/>
<path class="Speckle--lightBlue" d="M276.3,390c0-0.1-0.1-0.2-0.1-0.2c0.1-0.1,0.2-0.1,0.3-0.2c0,0.1,0.1,0.2,0.1,0.2
  C276.5,389.9,276.4,390,276.3,390z"/>
<path class="Speckle--purple" d="M476.3,184.9c0,0.1,0.1,0.2,0.1,0.3c-0.1,0-0.2,0.1-0.3,0.1c0,0-0.1-0.2-0.1-0.2
  C476.1,185,476.2,184.9,476.3,184.9z"/>
<path class="Speckle--purple" d="M488.3,171.4c0.2,0,0.4,0,0.6,0c0,0.2,0,0.3,0,0.5c0,0-0.3,0.1-0.3,0C488.4,171.8,488.4,171.6,488.3,171.4z"/>
<path class="Speckle--purple" d="M339.9,381.8c0-0.1,0-0.1-0.1-0.2c0.1,0,0.2,0.1,0.3,0.1C340.1,381.7,340,381.7,339.9,381.8z"/>
<path class="Speckle--purple" d="M363.9,346.5c0.2,0,0.3,0.1,0.5,0.1c-0.1,0.2-0.1,0.4-0.2,0.5c-0.1,0.1-0.3,0-0.5-0.1
  C363.7,346.9,363.8,346.7,363.9,346.5z"/>
<polygon class="Speckle--purple" points="452.3,254.6 452.1,254.7 452.2,254.4 "/>
<path class="Speckle--purple" d="M319,385c0.1-0.1,0.1-0.3,0.2-0.4c0.1,0.1,0.3,0.2,0.4,0.4c0,0,0,0.2-0.1,0.2C319.3,385.2,319.1,385.1,319,385z
  "/>
<path class="Speckle--purple" d="M514.6,369.9c-0.1-0.2-0.1-0.4-0.2-0.6c0.1,0,0.3,0,0.3,0c0.1,0.2,0.1,0.4,0.2,0.5
  C514.8,369.9,514.7,369.9,514.6,369.9z"/>
<path class="Speckle--purple" d="M402,485.2c-0.1,0.1-0.1,0.1-0.2,0.2c-0.1-0.2-0.2-0.3-0.3-0.5c0.1,0,0.2,0,0.3,0
  C401.9,485,401.9,485.2,402,485.2z"/>
<path class="Speckle--yellow" d="M505,397.7c0-0.2-0.1-0.4,0-0.5c0.1-0.1,0.4-0.1,0.5-0.1c0,0.1,0,0.3,0,0.3C505.4,397.6,505.2,397.6,505,397.7z
  "/>
<path class="Speckle--purple" d="M410.2,510c0.1,0,0.2-0.1,0.2-0.1c0,0.1,0,0.3,0,0.4c0,0-0.2,0-0.3,0C410.1,510.2,410.2,510.1,410.2,510z"/>
<path class="Speckle--purple" d="M486.6,440.8c0-0.1,0.1-0.2,0.1-0.2c0.1,0,0.2,0.1,0.3,0.2c0,0-0.1,0.1-0.1,0.2
  C486.8,440.8,486.7,440.8,486.6,440.8z"/>
<path class="Speckle--purple" d="M461.6,497c0-0.1,0-0.2,0-0.3c0.2,0.1,0.4,0.1,0.6,0.2c0,0,0,0.2,0,0.3C462,497.1,461.8,497,461.6,497z"/>
<path class="Speckle--purple" d="M525.8,451c0-0.1,0-0.2,0.1-0.3c0.1,0,0.2,0.1,0.4,0.1c-0.1,0.1-0.1,0.2-0.2,0.2C526,451.1,525.8,451,525.8,451
  z"/>
<path class="Speckle--purple" d="M459.5,526.2c0.1-0.2,0.1-0.4,0.3-0.5c0,0,0.2,0,0.3,0c-0.1,0.2-0.1,0.4-0.3,0.5
  C459.7,526.2,459.6,526.2,459.5,526.2z"/>
<path class="Speckle--purple" d="M356.4,415.1c-0.2-0.1-0.3-0.1-0.5-0.3c0,0,0-0.2,0.1-0.3c0.1,0,0.3,0,0.3,0
  C356.3,414.7,356.3,414.9,356.4,415.1z"/>
<path class="Speckle--purple" d="M392.9,386.8c0.1-0.1,0.1-0.3,0.2-0.4c0.1,0.1,0.3,0.2,0.4,0.3c0,0-0.1,0.2-0.1,0.2
  C393.2,386.9,393.1,386.9,392.9,386.8z"/>
<path class="Speckle--green" d="M422.3,375.4c0.1-0.2,0.1-0.4,0.3-0.5c0,0,0.2,0,0.3,0c-0.1,0.2-0.2,0.4-0.3,0.5
  C422.6,375.5,422.4,375.5,422.3,375.4z"/>
<path class="Speckle--purple" d="M392.7,434.7c0,0.1,0.1,0.1,0.1,0.2c-0.1,0-0.2-0.1-0.3-0.1C392.6,434.8,392.6,434.7,392.7,434.7z"/>
<path class="Speckle--purple" d="M542.7,295.9c0.1,0,0.3-0.1,0.3,0c0.1,0.2,0.2,0.3,0.2,0.5c-0.2-0.1-0.4-0.1-0.5-0.2
  C542.6,296.2,542.7,296,542.7,295.9z"/>
<path class="Speckle--purple" d="M373.7,490.9c0-0.1-0.1-0.2-0.1-0.2c0.1,0,0.3,0,0.4,0c0,0,0,0.2,0,0.3C373.9,490.9,373.8,490.9,373.7,490.9z"
  />
<polygon class="Speckle--purple" points="391.6,474.6 391.4,474.5 391.7,474.4 "/>
<path class="Speckle--purple" d="M409,457.7c-0.1,0-0.3,0.1-0.3,0c-0.1-0.2-0.1-0.4-0.1-0.5c0.2,0.1,0.4,0.1,0.5,0.2
  C409,457.4,409,457.6,409,457.7z"/>
<path class="Speckle--purple" d="M76.1,378.6c0,0.1,0,0.2-0.1,0.2c-0.1,0-0.2,0-0.3,0c0.1-0.1,0.1-0.3,0.2-0.4C76,378.5,76.1,378.6,76.1,378.6z"
  />
<path class="Speckle--purple" d="M273.9,184.2c-0.1,0-0.1,0.1-0.2,0.1c-0.1,0-0.2-0.1-0.2-0.1c0.1-0.1,0.2-0.2,0.3-0.2
  C273.9,184.1,273.9,184.2,273.9,184.2z"/>
<path class="Speckle--lavender" d="M249.8,210c0,0.1-0.1,0.2-0.1,0.3c-0.1-0.1-0.2-0.1-0.3-0.2c0.1-0.1,0.2-0.1,0.2-0.2
  C249.7,209.9,249.8,209.9,249.8,210z"/>
<path class="Speckle--darkPurple" d="M203.1,257.9c-0.2-0.1-0.4-0.2-0.5-0.3c0,0,0-0.3,0.1-0.3c0.1-0.1,0.3,0,0.3,0C203,257.5,203,257.7,203.1,257.9
  z"/>
<path class="Speckle--purple" d="M78.6,385.1c0-0.1-0.1-0.2-0.1-0.2c0.1-0.1,0.2-0.1,0.3-0.2c0,0.1,0.1,0.2,0.1,0.2
  C78.8,385,78.7,385,78.6,385.1z"/>
<path class="Speckle--purple" d="M133,349.8c-0.2,0-0.3,0-0.5,0c0-0.2,0-0.4,0-0.5c0,0,0.3-0.1,0.3,0C132.9,349.4,132.9,349.6,133,349.8z"/>
<path class="Speckle--purple" d="M85.4,408c0-0.1-0.1-0.2-0.1-0.2c0.1,0,0.2,0.1,0.4,0.1C85.6,407.9,85.5,407.9,85.4,408z"/>
<path class="Speckle--darkPurple" d="M250.5,247c-0.2-0.1-0.3-0.1-0.5-0.2c0,0,0-0.2,0.1-0.3c0.1,0,0.3,0,0.3,0C250.4,246.6,250.5,246.8,250.5,247z"
  />
<path class="Speckle--purple" d="M160.7,342.9c0.1,0,0.2,0.1,0.3,0.1c0,0-0.1,0.1-0.1,0.2c-0.1,0-0.2-0.1-0.2-0.2
  C160.6,343.1,160.6,343,160.7,342.9z"/>
<path class="Speckle--purple" d="M101.2,409c0.4-0.5,0.8-1,1.2-1.5c0,0-0.1,0-0.1,0C102.2,408.2,101.9,408.7,101.2,409
  C101.1,409,101.2,409,101.2,409z"/>
<path class="Speckle--purple" d="M310.8,62c-0.2-0.1-0.3-0.1-0.5-0.3c0,0,0-0.2,0-0.3c0.2,0.1,0.3,0.1,0.5,0.3C310.8,61.8,310.8,61.9,310.8,62z"
  />
<path class="Speckle--purple" d="M97.2,299.2c0,0.1-0.1,0.2-0.1,0.2c-0.1-0.1-0.2-0.2-0.3-0.2c0.1-0.1,0.2-0.1,0.2-0.1
  C97,299.1,97.1,299.2,97.2,299.2z"/>
<path class="Speckle--purple" d="M321.5,77.9c0.1-0.2,0.1-0.4,0.2-0.5c0,0,0.2,0,0.3,0c0.1,0.1,0.1,0.3,0,0.3C321.9,77.8,321.7,77.8,321.5,77.9z
  "/>
<path class="Speckle--green" d="M214,194.1c0.1-0.1,0.2-0.3,0.3-0.4c0.1,0.1,0.3,0.3,0.3,0.4c0,0-0.1,0.2-0.1,0.3
  C214.4,194.2,214.2,194.1,214,194.1z"/>
<polygon class="Speckle--purple" points="96.3,318.1 96.4,318.3 96.2,318.2 "/>
<path class="Speckle--purple" d="M27.7,393.4c0-0.1-0.1-0.2-0.1-0.2c0-0.1,0.2-0.2,0.2-0.1c0.1,0,0.1,0.2,0.2,0.2
  C27.9,393.3,27.8,393.4,27.7,393.4z"/>
<path class="Speckle--lightBlue" d="M159.8,272.2c0,0.1-0.1,0.2-0.1,0.2c-0.1-0.1-0.2-0.1-0.3-0.2c0.1-0.1,0.1-0.1,0.2-0.1
  C159.7,272.1,159.8,272.2,159.8,272.2z"/>
<path class="Speckle--orange" d="M267.2,174.7c-0.2,0-0.4,0-0.6-0.2c-0.1-0.1-0.1-0.3-0.1-0.5c0.2,0,0.4,0,0.5,0.1
  C267.2,174.2,267.1,174.5,267.2,174.7z"/>
<path class="Speckle--green" d="M394.9,200.3c0-0.1-0.1-0.3,0-0.3c0.2-0.1,0.3-0.1,0.5-0.2c-0.1,0.2-0.1,0.4-0.2,0.5
  C395.2,200.3,395,200.3,394.9,200.3z"/>
<path class="Speckle--lightBlue" d="M265.4,340.9c0.1,0,0.2,0,0.3,0c0,0.1-0.1,0.3-0.1,0.4c-0.1-0.1-0.2-0.1-0.2-0.2
  C265.3,341.1,265.4,341,265.4,340.9z"/>
<path class="Speckle--green" d="M296.3,311.7c-0.2-0.1-0.4-0.1-0.5-0.2c-0.1-0.1,0-0.3,0.1-0.5c0.2,0.1,0.4,0.1,0.5,0.2
  C296.4,311.3,296.3,311.5,296.3,311.7z"/>
<path class="Speckle--purple" d="M360.5,252c0,0-0.1,0.1-0.1,0.1c-0.1,0-0.2-0.1-0.2-0.1c0.1-0.1,0.2-0.1,0.3-0.2
  C360.5,251.8,360.5,251.9,360.5,252z"/>
<path class="Speckle--purple" d="M231.6,383.4c0-0.1,0.1-0.2,0.1-0.2c0.1,0,0.2,0.1,0.2,0.1c0,0-0.1,0.2-0.1,0.2
  C231.7,383.5,231.6,383.4,231.6,383.4z"/>
<path class="Speckle--purple" d="M372.3,243.5c0-0.1-0.1-0.2-0.1-0.3c0.1,0,0.3,0,0.4,0c0,0.1,0,0.2,0,0.3C372.5,243.5,372.4,243.5,372.3,243.5z
  "/>
<path class="Speckle--blue" d="M460.7,156.9c0-0.2,0-0.3,0-0.5c0.2,0.1,0.3,0.1,0.5,0.2c0,0,0,0.3-0.1,0.3C461,157,460.9,156.9,460.7,156.9z"
  />
<polygon class="Speckle--purple" points="289.9,328.9 290.2,329 290,329.1 "/>
<path class="Speckle--purple" d="M447.4,193.9c0-0.1-0.1-0.2-0.1-0.2c0.1,0,0.3,0,0.4,0c0,0.1,0,0.2,0,0.3C447.6,193.9,447.5,193.9,447.4,193.9z
  "/>
<polygon class="Speckle--purple" points="366.3,290.1 366.2,290.4 366.1,290.2 "/>
<path class="Speckle--purple" d="M382.4,276.1c0-0.2,0-0.4,0.1-0.6c0.1-0.1,0.3,0,0.5,0c0,0,0,0.3,0,0.3C382.8,275.9,382.6,276,382.4,276.1z"/>
<polygon class="Speckle--purple" points="236.3,273.4 236.1,273.3 236.3,273.2 "/>
<path class="Speckle--blue" d="M212.1,322.4c0.1-0.2,0.1-0.4,0.2-0.5c0.1-0.1,0.3,0,0.5,0.1c-0.1,0.2-0.1,0.4-0.2,0.5
  C212.6,322.6,212.3,322.5,212.1,322.4z"/>
<path class="Speckle--purple" d="M266.8,273c-0.1,0-0.1,0.1-0.2,0.1c-0.1,0-0.1-0.1-0.2-0.2c0.1-0.1,0.2-0.1,0.3-0.2
  C266.8,272.8,266.8,272.9,266.8,273z"/>
<path class="Speckle--lightBlue" d="M328.6,214.7c0-0.2,0.1-0.3,0.1-0.5c0.2,0.1,0.3,0.2,0.5,0.3c0,0,0,0.2,0,0.3
  C329,214.8,328.8,214.8,328.6,214.7z"/>
<polygon class="Speckle--purple" points="299.5,245.2 299.3,245.1 299.6,245 "/>
<path class="Speckle--purple" d="M280.4,267.2c0,0.1-0.1,0.2-0.1,0.3c-0.1-0.1-0.2-0.1-0.3-0.2c0.1-0.1,0.2-0.1,0.3-0.2
  C280.3,267.1,280.3,267.2,280.4,267.2z"/>
<path class="Speckle--purple" d="M119,443.6c-0.2-0.1-0.3-0.1-0.5-0.2c0,0,0-0.2,0-0.3c0.2,0.1,0.4,0.1,0.5,0.3C119,443.4,119,443.5,119,443.6z"
  />
<path class="Speckle--purple" d="M310.9,271c0-0.1-0.1-0.2-0.1-0.3c0.1,0,0.3,0.1,0.4,0.1c0,0.1,0,0.2-0.1,0.2C311.1,271,311,271,310.9,271z"/>
<path class="Speckle--purple" d="M350.5,237.4c0-0.1,0.1-0.2,0.1-0.3c0.1,0.1,0.2,0.2,0.4,0.3c-0.1,0.1-0.2,0.2-0.3,0.2
  C350.7,237.6,350.6,237.5,350.5,237.4z"/>
<path class="Speckle--purple" d="M354.7,234.6c0-0.2-0.1-0.5-0.1-0.5c0.2-0.1,0.4-0.1,0.6-0.2c0,0.1,0,0.3,0,0.3
  C355.1,234.4,354.9,234.4,354.7,234.6z"/>
<path class="Speckle--purple" d="M294.1,296.9c0-0.2,0-0.3,0.1-0.5c0.2,0.1,0.4,0.1,0.5,0.3c0,0,0,0.3-0.1,0.3
  C294.5,296.9,294.3,296.9,294.1,296.9z"/>
<path class="Speckle--green" d="M498,162.5c-1,2.2-1.5,4.2-3.3,5.8c-3.3,2.8-6.7,1.3-8.6-1.2c-1.2-1.6-2.1-3.4-2.9-5.2c-1-2.3-0.3-4.5,0.6-6.6
  c1-2.2,2.4-3.6,4.9-4.4c3.1-1,5.6,0,7.2,2.3C497.9,155.9,499.3,159.2,498,162.5z"/>
<path class="Speckle--purple" d="M258.3,214.6c-0.1-0.2-0.5-0.5-0.4-0.7c0.5-1.9,0.3-3.8,0.7-5.6c0.2-1.1,1.2-2.2,2.2-3.1c2-1.7,4.4-2.6,7-3
  c2.6-0.4,4.7,0.9,5.8,3.4c1.6,3.7,0.9,7.3-1,10.6c-1.2,2.1-4.6,3.2-6.8,2.3C263,217.6,260.3,216.5,258.3,214.6L258.3,214.6z"/>
<path class="Speckle--orange" d="M412.1,357.6c3.6,1.2,6,5.8,4.6,9.3c-1.4,3.6-4.9,5.6-9,4.8c-3.1-0.6-5.9-6-5.1-9.3
  C403.5,359.3,408.9,356.6,412.1,357.6z"/>
<path class="Speckle--lightBlue" d="M447.7,484.4c0.9,0.2,1.5,0.3,2,0.5c1.6,0.3,3,0.9,3.6,2.6c0.7,1.9,1.1,3.8,0,5.7c-0.7,1.2-1.8,1.9-3,2.3
  c-2,0.5-4.1,0.6-5.7-0.8c-1.9-1.6-2.3-3.9-1.7-6.3c0.2-0.8,0.8-1.5,1.5-2C445.3,485.7,446.5,485.1,447.7,484.4z"/>
<path class="Speckle--yellow" d="M388.8,208.3c1.2,1.1,2.4,2.1,3.4,3.3c1.2,1.3,1.2,2.8,0.5,4.4c-0.6,1.4-1.8,2.1-3.4,2.2
  c-2.5,0.2-4.5-0.7-5.8-2.7c-1.1-1.7-0.6-3.6,1.2-4.7C386,210,387.3,209.2,388.8,208.3z"/>
<path class="Speckle--lavender" d="M386.4,241.5c-1.8-0.6-2.7-2.2-2.2-3.9c0.6-1.8,2.6-2.7,4.5-2c1.6,0.5,2.4,2.4,1.8,4.2
  C390,241.4,388.3,242.1,386.4,241.5z"/>
<path class="Speckle--purple" d="M226.1,280.2c2.6,0.9,3.5,3.3,2,5.3c-1,1.3-3.5,1.5-5,0.5c-1.2-0.8-1.3-2.7-0.2-4.2
  C223.8,280.5,225.1,279.9,226.1,280.2z"/>
<path class="Speckle--yellow" d="M324.7,227.5c1.1,0.4,1.9,1.7,1.6,2.7c-0.4,1.4-2.1,2.3-3.4,1.8c-1.2-0.5-1.9-2.1-1.5-3.2
  C321.8,227.7,323.4,227.1,324.7,227.5z"/>
<path class="Speckle--purple" d="M440.7,136.9c0.5-1.5,1.9-2.2,3.4-1.6c1.1,0.4,1.7,1.5,1.3,2.8c-0.4,1.4-2,2.2-3.4,1.6
  C440.8,139.3,440.3,138.1,440.7,136.9z"/>
<path class="Speckle--yellow" d="M214.3,330.1c-1,0.4-1.7,1-2.3,0.9c-0.8,0-1.7-0.3-2.3-0.8c-1-0.7-0.9-2.1,0-3c0.7-0.8,2.3-0.8,3.1,0
  c0.4,0.4,0.5,1,0.8,1.5C213.7,329,213.9,329.4,214.3,330.1z"/>
<path class="Speckle--purple" d="M574.6,169.6c-0.3,1.3-1.7,2.1-3,1.8c-1.1-0.3-1.9-1.6-1.6-2.7c0.4-1.1,2-2.1,3.1-1.8
  C574.1,167.1,574.9,168.5,574.6,169.6z"/>
<path class="Speckle--lightBlue" d="M279.8,445.4c1.2,0.3,2.2,2.2,1.8,3.3c-0.3,0.7-1.7,1.4-2.5,1.2c-1.2-0.3-2.1-1.7-1.9-2.9
  C277.4,446.1,278.8,445.2,279.8,445.4z"/>
<path class="Speckle--orange" d="M300.1,299.6c1.1,0.3,1.7,1.5,1.3,2.7c-0.3,0.9-1.3,1.4-2.4,1.2c-1.3-0.2-2-1.3-1.6-2.4
  C297.7,299.9,298.9,299.3,300.1,299.6z"/>
<path class="Speckle--blue" d="M179.6,454.7c1,0.3,1.5,1.5,1.2,2.4c-0.4,0.9-1.6,1.5-2.4,1.3c-0.9-0.2-1.6-1.4-1.4-2.3
  C177.2,455,178.5,454.3,179.6,454.7z"/>
<path class="Speckle--yellow" d="M385.5,443.9c1,0.5,1.3,1.4,0.9,2.5c-0.4,1-1.7,1.4-2.8,0.8c-0.9-0.5-1.3-1.5-0.9-2.5
  C383.1,443.7,384.3,443.3,385.5,443.9z"/>
<path class="Speckle--darkPurple" d="M303.3,337.6c0.8,0.2,1.2,1,1.1,1.9c-0.2,0.9-1,1.5-1.8,1.3c-0.8-0.3-1.5-0.8-1.4-1.8
  C301.3,338.1,302.3,337.4,303.3,337.6z"/>
<path class="Speckle--yellow" d="M357.3,399.7c0.1,0.5,0.4,1.3,0.4,2c-0.1,0.8-1.2,1.2-2.1,0.9c-0.8-0.3-1.3-1.3-1.1-2
  C354.8,399.8,356.1,399.2,357.3,399.7z"/>
<path class="Speckle--purple" d="M272.5,363.5c0.1,0.4,0.5,1,0.5,1.6c-0.1,1-1.5,1.5-2.3,1c-0.7-0.4-0.8-1.1-0.6-1.8
  C270.5,363.4,271.4,363.1,272.5,363.5z"/>
<path class="Speckle--blue" d="M548.6,239.2c1.3,0.5,1.7,1.7,1.2,2.6c-0.4,0.7-1,1-1.8,0.7c-1-0.3-1.7-1.5-1.1-2.3
  C547.3,239.6,548.1,239.4,548.6,239.2z"/>
<path class="Speckle--orange" d="M181.1,227c0.2-1.2,1.1-1.7,2-1.5c0.9,0.2,1.4,1.1,1.2,1.9c-0.3,0.9-1.2,1.6-1.9,1.1
  C181.8,228.2,181.4,227.4,181.1,227z"/>
<path class="Speckle--blue" d="M398.7,127.5c1-0.2,1.6-0.6,2.2-0.4c0.8,0.2,1.1,1.4,0.8,2.1c-0.3,0.6-1.3,1-1.7,0.6
  C399.4,129.2,399.2,128.5,398.7,127.5z"/>
<path class="Speckle--lightBlue" d="M398.5,305.4c0.8,0.3,1.2,1.3,0.9,2c-0.4,0.7-1.5,1.1-2.1,0.7c-0.6-0.4-1-1-0.7-1.8
  C396.8,305.5,397.7,305.1,398.5,305.4z"/>
<path class="Speckle--orange" d="M510.2,199c-0.4,1.2-1.7,1.8-2.6,1.3c-0.7-0.3-1-1-0.8-1.8c0.3-0.9,1.5-1.5,2.4-1
  C509.7,197.9,509.9,198.7,510.2,199z"/>
<path class="Speckle--darkPurple" d="M364.4,400.1c0.4,0.8,0.8,1.4,0.8,1.9c-0.1,0.8-0.9,1-1.6,0.9c-0.8-0.1-1.5-1.3-1.1-1.8
  C363,400.7,363.7,400.5,364.4,400.1z"/>
<path class="Speckle--purple" d="M412.2,186.8c-1.1,0.4-1.8,0.9-2.5,0.9c-0.7,0-1.2-1.3-1-2.1c0.2-0.8,1.3-1.5,2-1
  C411.2,185,411.5,185.8,412.2,186.8z"/>
<path class="Speckle--orange" d="M266,401c0.3,1,0.6,1.6,0.5,2.2c0,0.6-1.2,0.9-1.8,0.6c-0.7-0.4-1.1-1.1-0.7-1.8
  C264.4,401.6,265.2,401.4,266,401z"/>
<path class="Speckle--darkPurple" d="M162.5,382.1c-0.5,1.1-1.6,1.4-2.3,1c-0.6-0.4-1-1-0.7-1.8c0.2-0.7,1.4-1.1,2.1-0.6
  C162.1,381,162.2,381.7,162.5,382.1z"/>
<path class="Speckle--blue" d="M328.3,389.8c-0.5,0.1-1.3,0.5-2,0.4c-0.3-0.1-0.7-1.1-0.6-1.7c0.1-0.8,1.2-1.2,2-0.7
  C328.4,388.1,328.8,388.7,328.3,389.8z"/>
<path class="Speckle--purple" d="M311.2,306.5c1.1-0.3,1.9-0.7,2.6-0.6c0.8,0,1.1,1.3,0.7,2.1c-0.4,0.8-1.5,1.1-2.1,0.5
  C311.9,308.1,311.7,307.4,311.2,306.5z"/>
<path class="Speckle--green" d="M311,376.3c-1,0.3-1.6,0.6-2.1,0.6c-0.8-0.1-1.3-0.6-1.2-1.5c0.1-0.8,1.2-1.4,1.9-1
  C310.1,374.8,310.4,375.5,311,376.3z"/>
<path class="Speckle--purple" d="M390.4,598.3c0.5,0.9,1.2,1.6,1.1,2.3c0,0.6-0.9,1-1.7,0.8c-0.9-0.2-1.6-1.1-1.2-1.8
  C388.9,599.1,389.6,598.9,390.4,598.3z"/>
<path class="Speckle--purple" d="M120.9,283.6c-0.4-0.8-0.9-1.4-0.9-1.9c0-0.8,0.7-1.1,1.4-1.1c0.8,0.1,1.6,1.2,1.3,1.8
  C122.4,282.8,121.7,283.1,120.9,283.6z"/>
<path class="Speckle--purple" d="M267.2,330.8c-0.4,0.7-0.9,1.5-1.9,1.4c-0.7-0.1-1.4-0.8-1.3-1.4c0.1-0.7,0.8-1.3,1.6-1
  c0.6,0.3,1.2,0.7,1.8,1.1L267.2,330.8z"/>
<path class="Speckle--orange" d="M323.6,333.2c-0.4-0.9-0.8-1.4-0.9-2c-0.1-0.8,1.1-1.3,1.8-1c0.7,0.3,1.1,1.1,0.8,1.7
  C325.1,332.4,324.4,332.7,323.6,333.2z"/>
<path class="Speckle--yellow" d="M304.7,434.7c-0.9,0.2-1.4,0.5-1.8,0.4c-0.7-0.3-1.1-1-0.6-1.7c0.2-0.4,1.1-0.7,1.3-0.6
  C304,433.2,304.2,433.8,304.7,434.7z"/>
<path class="Speckle--green" d="M341.6,328.4c0.4,0.7,0.7,1.2,0.8,1.6c0.1,0.7-0.9,1.3-1.4,1c-0.4-0.3-0.7-0.9-0.6-1.3
  C340.4,329.3,341,329,341.6,328.4z"/>
<path class="Speckle--yellow" d="M152.1,247.8c0.2,0.4,0.7,1,0.6,1.5c-0.1,0.8-0.9,1.1-1.7,0.8c-0.4-0.2-0.7-0.8-0.7-1.3
  C150.3,247.9,151,247.5,152.1,247.8z"/>
<path class="Speckle--darkPurple" d="M210.3,255.6c0.2,0.7,0.5,1,0.4,1.3c-0.2,0.8-0.9,1.2-1.6,0.9c-0.3-0.1-0.7-1.2-0.6-1.3
  C208.9,256.1,209.6,255.9,210.3,255.6z"/>
<path class="Speckle--green" d="M113.8,236c0.8-0.3,1.3-0.7,1.7-0.6c0.4,0.1,0.8,0.7,0.8,1.1c0,0.4-0.6,0.7-1,1.1
  C114.9,237.1,114.5,236.7,113.8,236z"/>
<path class="Speckle--blue" d="M65.8,396.4c1-0.2,1.6-0.5,2.2-0.4c0.3,0.1,0.8,0.9,0.7,1.2c-0.2,0.7-1,1-1.7,0.6
  C66.6,397.7,66.3,397.1,65.8,396.4z"/>
<path class="Speckle--yellow" d="M372.5,339.4c0.7-0.2,1.3-0.4,1.7-0.4c0.7,0.1,1.1,1.1,0.7,1.7c-0.4,0.6-1.4,0.9-1.8,0.4
  C372.8,340.8,372.8,340.2,372.5,339.4z"/>
<path class="Speckle--lavender" d="M271.9,380.1c0.3-0.9,1.3-1.4,1.8-0.9c0.3,0.2,0.5,0.7,0.5,1c-0.1,0.8-0.9,1.4-1.5,1
  C272.3,381,272.1,380.4,271.9,380.1z"/>
<path class="Speckle--purple" d="M286.9,454.5c0.8-0.3,1.3-0.7,1.8-0.7c0.7,0,1.2,1.1,0.8,1.6c-0.3,0.3-1,0.6-1.4,0.5
  C287.6,455.8,287.4,455.2,286.9,454.5z"/>
<path class="Speckle--green" d="M309.8,247.6c-0.5-1.6-0.8-2.2-0.9-2.8c0-0.3,0.4-0.8,0.6-0.8c0.3,0,0.9,0.4,0.9,0.5
  C310.4,245.3,310.1,246,309.8,247.6z"/>
<path class="Speckle--darkPurple" d="M230.7,312.7c0.4,0.8,0.8,1.3,0.7,1.7c-0.1,0.4-0.7,0.7-1.2,0.8c-0.6,0-1-0.5-0.8-1.1
  C229.7,313.6,230.1,313.3,230.7,312.7z"/>
<path class="Speckle--purple" d="M456.2,0c0.2,0.4,0.6,1,0.6,1.5c0,0.3-0.8,0.7-1.3,0.8c-0.6,0.1-1-0.4-1-1.1C454.6,0.5,455.2-0.1,456.2,0z"/>
<path class="Speckle--blue" d="M267.3,331c0.5-0.5,0.9-1,1.5-1.3c0.2-0.1,0.9,0,1.1,0.2c0.2,0.2,0.3,0.8,0.2,1.1c-0.1,0.3-0.6,0.6-0.9,0.5
  c-0.7-0.1-1.3-0.4-1.9-0.7C267.2,330.8,267.3,331,267.3,331z"/>
<path class="Speckle--yellow" d="M239.8,407c0.9-0.3,1.4-0.7,1.7-0.6c0.4,0.1,0.8,0.7,0.8,1.1c0,0.6-0.6,0.9-1.1,0.7
  C240.8,408.1,240.5,407.6,239.8,407z"/>
<path class="Speckle--lavender" d="M267.2,189.1c-0.8,0.1-1.4,0.4-1.7,0.2c-0.3-0.2-0.4-0.8-0.5-1.3c0.5-0.2,1-0.6,1.4-0.4
  C266.6,187.7,266.8,188.3,267.2,189.1z"/>
<path class="Speckle--purple" d="M537.9,55.6c0.1-0.5,0.1-1.1,0.2-1.6c0.2-0.5,0.6-1.1,1.1-0.7c0.3,0.2,0.2,1,0.1,1.4
  C539.2,55.5,538.7,55.9,537.9,55.6L537.9,55.6z"/>
<path class="Speckle--purple" d="M510.7,58.5c-0.4-0.1-1.1,0-1.1-0.2c-0.3-0.7-0.3-1.5-0.6-2.7c1.8,0.8,1.5,2,1.6,3L510.7,58.5z"/>
<path class="Speckle--purple" d="M537.9,55.5c0.1,1.2,0.3,2.4-1,3.6c-0.3-1.5,0.5-2.5,1.1-3.5C537.9,55.6,537.9,55.5,537.9,55.5z"/>
<path class="Speckle--orange" d="M140.9,578.6c0.4,0.8,0.9,1.3,0.8,1.6c-0.1,0.3-0.8,0.6-1.2,0.7c-0.2,0-0.7-0.6-0.7-0.9
  C139.9,579.6,140.4,579.3,140.9,578.6z"/>
<path class="Speckle--purple" d="M554.2,75.2c-0.2-0.3-0.6-0.5-0.5-0.7c0.2-0.5,0.4-0.9,0.8-1.2c0.1-0.1,0.7,0.3,1,0.5c-0.2,0.3-0.4,0.7-0.6,1
  C554.8,75,554.5,75.1,554.2,75.2z"/>
<path class="Speckle--yellow" d="M365.7,270.4c0.3,1,0.6,1.5,0.6,2.1c0,0.2-0.8,0.7-0.8,0.6c-0.4-0.4-0.9-0.9-1.1-1.4
  C364.3,271.5,365,271,365.7,270.4z"/>
<path class="Speckle--green" d="M532.1,262.7c0.3,0.7,0.6,1.2,0.5,1.3c-0.3,0.3-0.8,0.5-1.2,0.7c-0.2-0.3-0.6-0.7-0.5-0.9
  C531.2,263.4,531.6,263.1,532.1,262.7z"/>
<path class="Speckle--lavender" d="M255.8,242.7c0.4,0.8,0.9,1.4,0.8,1.7c-0.1,0.4-0.8,0.6-1.2,0.7c-0.2,0-0.7-0.6-0.7-0.8
  C254.8,243.8,255.2,243.5,255.8,242.7z"/>
<path class="Speckle--darkPurple" d="M319.3,221.7c-0.7,0.2-1.1,0.5-1.4,0.4c-0.6-0.2-0.8-0.8-0.5-1.3c0.2-0.3,0.8-0.5,1-0.4
  C318.8,220.7,318.9,221.2,319.3,221.7z"/>
<path class="Speckle--purple" d="M258.2,214.6c0.1,1,0.1,2-1,2.5c-0.2,0.1-0.6,0-0.7-0.1c-0.1-0.2-0.2-0.6-0.1-0.7
  C257,215.7,257.7,215.2,258.2,214.6C258.3,214.6,258.2,214.6,258.2,214.6z"/>
<path class="Speckle--purple" d="M387.5,321c0.6,0,0.9-0.1,1.3,0c0.2,0.1,0.4,0.7,0.3,0.7c-0.3,0.2-0.7,0.5-1,0.4
  C387.8,322.1,387.7,321.6,387.5,321z"/>
<path class="Speckle--darkPurple" d="M400.2,350.7c0.5,0,0.9,0,1.4,0c0.1,0,0.2,0.6,0.2,0.6c-0.4,0.1-0.9,0.2-1.4,0.4
  C400.4,351.4,400.3,351.2,400.2,350.7z"/>
<path class="Speckle--lightBlue" d="M273.3,243.9c0.2,0.5,0.5,0.9,0.4,1.2c-0.1,0.3-0.6,0.4-1,0.6c-0.2-0.4-0.6-0.8-0.5-1.1
  C272.2,244.3,272.8,244.2,273.3,243.9z"/>
<path class="Speckle--darkPurple" d="M323.7,396.6c0.5-0.2,0.9-0.5,1.2-0.4c0.3,0.1,0.4,0.6,0.6,0.9c-0.3,0.2-0.7,0.5-1,0.4
  C324.2,397.6,324,397.1,323.7,396.6z"/>
<path class="Speckle--darkPurple" d="M353.2,295c0.3,0.6,0.6,1.1,0.6,1.2c-0.3,0.3-0.8,0.5-1.2,0.7c-0.1,0-0.6-0.7-0.5-0.9
  C352.3,295.6,352.8,295.3,353.2,295z"/>
<path class="Speckle--purple" d="M264.4,436.5c0.4-0.2,0.8-0.5,1.1-0.5c0.3,0.1,0.6,0.4,0.9,0.7c-0.4,0.3-0.8,0.6-1.2,0.8
  C265.1,437.5,264.7,436.9,264.4,436.5z"/>
<path class="Speckle--lavender" d="M236.6,330c-0.3-0.6-0.6-1-0.6-1.5c0-0.2,0.8-0.7,1-0.6c0.4,0.3,0.6,0.8,0.9,1.2
  C237.5,329.4,237.2,329.6,236.6,330z"/>
<path class="Speckle--purple" d="M571.3,473.4c0.2,0.4,0.4,0.7,0.6,1.1c-0.4,0.2-0.8,0.4-1.2,0.6c-0.1-0.3-0.5-0.7-0.4-1
  C570.4,473.8,570.9,473.6,571.3,473.4z"/>
<path class="Speckle--green" d="M216.9,303.5c0.2,0.5,0.4,0.9,0.3,1.1c-0.1,0.3-0.5,0.6-0.8,0.7c-0.5,0.1-0.9-0.8-0.6-1.2
  C216,303.9,216.4,303.8,216.9,303.5z"/>
<path class="Speckle--green" d="M429.3,200.7c0.2,0.6,0.3,0.9,0.3,1.2c0,0.1-0.5,0.4-0.5,0.4c-0.3-0.2-0.5-0.5-0.7-0.7
  C428.6,201.3,428.9,201.1,429.3,200.7z"/>
<path class="Speckle--darkPurple" d="M427.1,246.3c0.3,0.3,0.5,0.5,0.6,0.7c-0.3,0.2-0.5,0.5-0.8,0.6c-0.1,0-0.6-0.4-0.5-0.5
  C426.6,246.8,426.9,246.5,427.1,246.3z"/>
<path class="Speckle--yellow" d="M182.7,485.5c0.1,0.2,0.2,0.5,0.3,0.7c-0.3,0.1-0.6,0.2-1,0.3c0-0.3-0.1-0.6,0-0.8
  C182.1,485.6,182.5,485.6,182.7,485.5z"/>
<path class="Speckle--green" d="M379.6,330.7c0.2-0.1,0.4-0.2,0.7-0.3c0.1,0.3,0.2,0.6,0.3,1c-0.3,0-0.6,0.2-0.8,0.1
  C379.6,331.4,379.6,331,379.6,330.7z"/>
<path class="Speckle--lightBlue" d="M199.5,359.4c0.3,0.6,0.5,0.9,0.5,1.2c0,0.2-0.4,0.6-0.5,0.6c-0.3-0.2-0.8-0.4-0.8-0.7
  C198.7,360.3,199.1,360,199.5,359.4z"/>
<path class="Speckle--lightBlue" d="M423.7,377.7c0.2,0.6,0.3,1,0.4,1.3c-0.2,0.1-0.5,0.2-0.7,0.2c-0.2-0.1-0.4-0.3-0.6-0.5
  C423,378.4,423.2,378.2,423.7,377.7z"/>
<path class="Speckle--green" d="M207.2,324.3c0.3,0.3,0.5,0.5,0.7,0.7c-0.3,0.2-0.6,0.5-0.9,0.6c-0.1,0-0.5-0.5-0.5-0.5
  C206.7,324.8,207,324.6,207.2,324.3z"/>
<path class="Speckle--blue" d="M224.8,249.1c0.3,0.4,0.5,0.7,0.7,1c-0.3,0.2-0.6,0.5-0.9,0.5c-0.3,0-0.5-0.5-0.7-0.7
  C224.2,249.7,224.4,249.4,224.8,249.1z"/>
<path class="Speckle--yellow" d="M301.3,279.9c-0.5,0.1-0.8,0.3-1.1,0.2c-0.6-0.2-0.8-0.7-0.4-1.2c0.2-0.2,0.8-0.3,1-0.1
  C301,278.9,301,279.4,301.3,279.9z"/>
<path class="Speckle--purple" d="M276.3,358.7c0.5-0.3,0.8-0.5,1.2-0.6c0.1,0,0.5,0.4,0.5,0.5c-0.1,0.3-0.4,0.8-0.6,0.8
  C277.1,359.4,276.8,359,276.3,358.7z"/>
<path class="Speckle--darkPurple" d="M350.1,425.2c-0.2-0.6-0.3-0.9-0.3-1.2c0,0,0.4-0.2,0.6-0.2c0.2,0.1,0.4,0.3,0.5,0.5
  C350.8,424.5,350.5,424.8,350.1,425.2z"/>
<path class="Speckle--purple" d="M122.5,504.8c0.3-0.3,0.5-0.4,0.7-0.6c0.2,0.3,0.5,0.5,0.6,0.8c0,0.1-0.3,0.4-0.5,0.6
  C123,505.3,122.7,505,122.5,504.8z"/>
<path class="Speckle--lightBlue" d="M327.7,447.4c0.5-0.2,0.9-0.5,1.2-0.4c0.3,0.1,0.4,0.6,0.6,0.9c-0.3,0.1-0.7,0.5-0.9,0.4
  C328.3,448.2,328.1,447.8,327.7,447.4z"/>
<path class="Speckle--blue" d="M307.2,479.7c0.3-0.3,0.5-0.5,0.7-0.6c0.2,0.3,0.5,0.6,0.7,0.8c-0.2,0.1-0.4,0.4-0.6,0.4
  C307.7,480.2,307.5,479.9,307.2,479.7z"/>
<path class="Speckle--green" d="M361.1,210.6c0.1,0.2,0.1,0.5,0.2,0.7c-0.3,0-0.7,0.1-1,0.1c0-0.3,0-0.6,0.1-0.8
  C360.5,210.6,360.9,210.7,361.1,210.6z"/>
<path class="Speckle--purple" d="M37.2,498c0.2-0.1,0.4-0.2,0.6-0.4c0.1,0.3,0.2,0.6,0.4,1c-0.2,0-0.5,0.1-0.7,0C37.3,498.6,37.3,498.3,37.2,498
  z"/>
<path class="Speckle--purple" d="M179.3,72.1c0.1,0.6,0.3,1.1,0.1,1.2c-0.2,0.2-0.7,0.2-1,0.1c-0.1,0-0.3-0.6-0.2-0.7
  C178.5,72.5,178.8,72.4,179.3,72.1z"/>
<path class="Speckle--purple" d="M174.6,119c0.3,0.5,0.5,0.8,0.6,1.1c0,0.1-0.4,0.5-0.5,0.5c-0.3-0.1-0.6-0.4-0.9-0.6
  C174,119.7,174.2,119.4,174.6,119z"/>
<path class="Speckle--lightBlue" d="M357,214.6c0.5-0.3,0.9-0.6,1.1-0.6c0.3,0.1,0.6,0.6,0.6,0.9c0,0.3-0.6,0.6-0.9,0.6
  C357.6,215.5,357.3,215,357,214.6z"/>
<path class="Speckle--purple" d="M312.8,355.5c0.3,0.3,0.7,0.6,0.6,0.6c-0.2,0.3-0.5,0.6-0.8,0.9c-0.2-0.3-0.5-0.5-0.7-0.8
  C312.2,356,312.5,355.8,312.8,355.5z"/>
<path class="Speckle--lavender" d="M280.1,401.4c0,0.6,0,0.9,0,1.2c-0.4,0-0.8,0.1-1.1,0c-0.1,0-0.2-0.6-0.1-0.7
  C279.2,401.7,279.5,401.6,280.1,401.4z"/>
<path class="Speckle--purple" d="M241.3,107.8c-0.3-0.5-0.5-0.8-0.6-1.1c0-0.1,0.4-0.5,0.5-0.5c0.3,0.1,0.6,0.4,0.9,0.6
  C241.9,107.1,241.7,107.4,241.3,107.8z"/>
<path class="Speckle--green" d="M354.4,415.3c0.1,0.2,0.1,0.4,0.2,0.6c-0.3,0.1-0.6,0.2-0.9,0.2c0-0.2-0.1-0.5,0-0.7
  C353.9,415.4,354.2,415.4,354.4,415.3z"/>
<path class="Speckle--purple" d="M608.3,184.6c-0.1-0.2-0.2-0.5-0.2-0.7c0.3-0.1,0.6-0.2,0.9-0.3c0,0.2,0.1,0.6,0,0.7
  C608.8,184.6,608.5,184.6,608.3,184.6z"/>
<path class="Speckle--purple" d="M511.5,476.1c0.1,0.2,0.2,0.4,0.4,0.6c-0.3,0.1-0.6,0.1-0.9,0.2c0-0.2-0.1-0.4-0.1-0.6
  C511,476.1,511.2,476.1,511.5,476.1z"/>
<path class="Speckle--darkPurple" d="M559.2,285.1c0.1,0.2,0.1,0.4,0.2,0.6c-0.3,0.1-0.6,0.1-0.9,0.2c0-0.2,0-0.6,0.1-0.7
  C558.6,285,558.9,285.1,559.2,285.1z"/>
<path class="Speckle--purple" d="M418.9,515.8c0.1,0.3,0.1,0.5,0.2,0.8c-0.3,0-0.7,0-1,0c0-0.2-0.1-0.6,0.1-0.7
  C418.3,515.7,418.6,515.8,418.9,515.8z"/>
<path class="Speckle--purple" d="M481.5,219.9c0.3,0.3,0.5,0.5,0.7,0.6c-0.3,0.2-0.5,0.5-0.8,0.6c-0.1,0-0.4-0.3-0.6-0.5
  C481.1,220.4,481.3,220.2,481.5,219.9z"/>
<path class="Speckle--purple" d="M494.4,61.3c0.2,0.1,0.5,0.1,0.7,0.2c0.1,0,0,0.2,0.1,0.3c-0.2-0.1-0.5-0.1-0.7-0.2
  C494.4,61.6,494.4,61.4,494.4,61.3z"/>
<path class="Speckle--darkPurple" d="M220.3,238.9c0.3-0.3,0.4-0.5,0.6-0.7c0.2,0.2,0.5,0.5,0.7,0.7c-0.2,0.2-0.4,0.5-0.5,0.4
  C220.8,239.3,220.6,239,220.3,238.9z"/>
<path class="Speckle--purple" d="M194.1,308.9c-0.2-0.2-0.4-0.3-0.4-0.5c0-0.2,0.3-0.4,0.4-0.6c0.2,0.2,0.5,0.4,0.5,0.5
  C194.5,308.5,194.2,308.7,194.1,308.9z"/>
<path class="Speckle--green" d="M173.6,356.7c0,0.2,0.1,0.5,0.1,0.7c-0.3,0-0.6,0.1-0.8,0c-0.1-0.1-0.1-0.5-0.1-0.7
  C173,356.7,173.3,356.7,173.6,356.7z"/>
<path class="Speckle--purple" d="M118.3,440.3c0.1,0.1,0.2,0.2,0.3,0.3c-0.2,0.1-0.4,0.2-0.7,0.3c0,0-0.2-0.3-0.2-0.3
  C117.9,440.6,118.1,440.5,118.3,440.3z"/>
<path class="Speckle--purple" d="M138.3,174.8c0,0.1,0.1,0.3,0,0.4c-0.1,0.1-0.2,0-0.4,0c0-0.1-0.1-0.3,0-0.4C138,174.8,138.2,174.8,138.3,174.8
  z"/>
<path class="Speckle--purple" d="M27.1,518.4c0.2,0.2,0.4,0.3,0.6,0.5c-0.2,0.2-0.3,0.4-0.6,0.5c-0.1,0-0.4-0.3-0.4-0.4
  C26.7,518.7,26.9,518.6,27.1,518.4z"/>
<path class="Speckle--purple" d="M122.7,206.3c-0.3,0-0.5,0-0.8,0.1c0-0.3-0.1-0.6,0-0.8c0.1-0.1,0.4-0.1,0.7-0.1
  C122.6,205.8,122.6,206,122.7,206.3z"/>
<path class="Speckle--purple" d="M128.7,73.4c0.2,0.2,0.4,0.3,0.6,0.5c-0.3,0.1-0.6,0.3-0.9,0.3c-0.1,0-0.3-0.4-0.4-0.6
  C128.2,73.5,128.5,73.5,128.7,73.4z"/>
<path class="Speckle--purple" d="M0.8,427.7c0.1,0.2,0.2,0.4,0.3,0.6c-0.3,0.1-0.7,0.1-1,0.2c0-0.2-0.1-0.6,0-0.7C0.2,427.7,0.5,427.7,0.8,427.7
  z"/>
<path class="Speckle--purple" d="M350.6,317.8c0.1,0.2,0.3,0.4,0.4,0.6c-0.2,0.1-0.4,0.2-0.6,0.3c-0.1,0-0.3-0.2-0.2-0.3
  C350.3,318.2,350.4,318,350.6,317.8z"/>
<path class="Speckle--purple" d="M333.7,267c0.3,0,0.5,0,0.8-0.1c0,0.2,0.1,0.5,0,0.7c-0.1,0.1-0.6,0.2-0.6,0.1
  C333.7,267.6,333.7,267.3,333.7,267z"/>
<path class="Speckle--darkPurple" d="M298.9,166.9c0.1,0.2,0.2,0.4,0.3,0.6c-0.3,0.1-0.6,0.2-0.9,0.3c0-0.3-0.2-0.6-0.1-0.7
  C298.3,167,298.7,167,298.9,166.9z"/>
<path class="Speckle--green" d="M296.3,159.2c0.2-0.1,0.4-0.2,0.6-0.4c0.1,0.2,0.2,0.4,0.2,0.7c0,0.1-0.3,0.2-0.3,0.2
  C296.6,159.6,296.4,159.4,296.3,159.2z"/>
<path class="Speckle--purple" d="M244.7,249.5c0.1,0.2,0.3,0.4,0.4,0.6c-0.3,0.1-0.7,0.2-1,0.4c0-0.3-0.2-0.6-0.1-0.7
  C244.1,249.6,244.5,249.6,244.7,249.5z"/>
<path class="Speckle--purple" d="M220.2,318c-0.3-0.3-0.4-0.4-0.6-0.6c0.3-0.2,0.5-0.5,0.8-0.6c0.1,0,0.4,0.3,0.6,0.5
  C220.7,317.5,220.4,317.8,220.2,318z"/>
<path class="Speckle--purple" d="M200.4,316.1c0.2,0,0.5-0.1,0.7,0c0.1,0.1,0.2,0.4,0.2,0.6c-0.2,0-0.5,0.1-0.7,0
  C200.4,316.6,200.4,316.3,200.4,316.1z"/>
<polygon class="Speckle--purple" points="235.7,211.8 235.6,212.1 235.3,211.8 "/>
<path class="Speckle--purple" d="M251.8,173.9c0.1,0,0.2,0,0.3,0c0.1,0,0.1,0.2,0.2,0.2c-0.1,0-0.2,0.1-0.3,0C251.9,174.1,251.9,174,251.8,173.9
  z"/>
<path class="Speckle--green" d="M198.8,487.2c0,0.1,0.1,0.2,0.1,0.3c-0.2,0-0.3,0.1-0.5,0.1c0-0.1,0-0.3,0.1-0.3
  C198.6,487.2,198.7,487.2,198.8,487.2z"/>
<path class="Speckle--purple" d="M229.9,400.6c0.2,0,0.4,0,0.7,0c0.1,0,0.1,0.2,0.1,0.3c-0.2,0-0.5,0-0.7,0C229.9,401,229.9,400.7,229.9,400.6z"
  />
<path class="Speckle--purple" d="M347.9,43.4c0.2-0.1,0.4-0.4,0.5-0.3c0.2,0.1,0.3,0.3,0.4,0.5c0,0-0.2,0.3-0.3,0.2
  C348.3,43.7,348.2,43.6,347.9,43.4z"/>
<polygon class="Speckle--purple" points="218.4,451.5 218.2,451.7 218.2,451.4 "/>
<path class="Speckle--purple" d="M275.6,276.1c0,0.1,0.1,0.3,0.1,0.4c-0.2,0-0.5,0-0.7,0c-0.1,0-0.1-0.2-0.2-0.4
  C275.1,276.1,275.3,276.1,275.6,276.1z"/>
<polygon class="Speckle--purple" points="255.3,341.2 255,341.1 255.1,340.9 "/>
<path class="Speckle--green" d="M224.1,453.7c-0.2,0.1-0.5,0.3-0.6,0.2c-0.1,0-0.2-0.4-0.3-0.6c0.1-0.1,0.3-0.2,0.4-0.1
  C223.7,453.4,223.9,453.5,224.1,453.7z"/>
<path class="Speckle--purple" d="M320.7,183c0.1,0.1,0.2,0.1,0.3,0.2c-0.1,0.1-0.1,0.3-0.2,0.3c-0.1,0-0.2-0.1-0.3-0.2
  C320.5,183.2,320.6,183.1,320.7,183z"/>
<path class="Speckle--lightBlue" d="M329.7,177.7c0.1,0.1,0.2,0.1,0.2,0.2c0,0.1-0.1,0.2-0.2,0.3c-0.1-0.1-0.3-0.2-0.2-0.2
  C329.5,177.9,329.6,177.8,329.7,177.7z"/>
<path class="Speckle--purple" d="M226.2,514.2c-0.1-0.1-0.2-0.2-0.3-0.2c0.1-0.1,0.2-0.2,0.3-0.3c0,0,0.2,0.2,0.2,0.2
  C226.4,514,226.3,514.1,226.2,514.2z"/>
<path class="Speckle--purple" d="M220.7,535.7c-0.2,0.1-0.4,0.2-0.6,0.3c-0.1-0.2-0.2-0.4-0.2-0.6c0,0,0.2-0.2,0.3-0.2
  C220.3,535.4,220.5,535.6,220.7,535.7z"/>
<path class="Speckle--purple" d="M264.8,222.4c0.1,0.1,0.1,0.1,0.2,0.2c-0.1,0-0.2,0-0.4,0.1C264.7,222.5,264.7,222.4,264.8,222.4z"/>
<path class="Speckle--purple" d="M258.4,274.4c-0.2,0-0.4,0.1-0.6,0.1c0-0.2-0.1-0.5,0-0.6c0.1-0.1,0.4-0.1,0.6-0.2
  C258.4,273.9,258.4,274.1,258.4,274.4z"/>
<polygon class="Speckle--purple" points="213.3,424.6 213.6,424.3 213.5,424.7 "/>
<path class="Speckle--purple" d="M285.9,207c0,0.2,0,0.4,0,0.5c-0.2-0.1-0.4-0.1-0.6-0.2c-0.1,0-0.1-0.2-0.1-0.3
  C285.4,207.1,285.7,207,285.9,207z"/>
<path class="Speckle--purple" d="M80.5,333.4c0.2,0.2,0.4,0.3,0.5,0.5c-0.1,0.1-0.3,0.2-0.4,0.1c-0.2-0.1-0.4-0.3-0.5-0.5
  C80.2,333.5,80.4,333.5,80.5,333.4z"/>
<path class="Speckle--purple" d="M138.9,144.1c0-0.1,0.1-0.2,0.1-0.3c0.2,0.1,0.4,0.2,0.5,0.4c-0.1,0.1-0.2,0.2-0.3,0.2
  C139.1,144.3,139,144.1,138.9,144.1z"/>
<path class="Speckle--yellow" d="M75.4,297.6c0.1,0.2,0.3,0.5,0.3,0.6c-0.1,0.2-0.4,0.3-0.5,0.4c-0.1-0.1-0.2-0.3-0.2-0.4
  C75,298,75.2,297.8,75.4,297.6z"/>
<path class="Speckle--purple" d="M116,121.6c-0.1,0.1-0.1,0.2-0.2,0.3c-0.1-0.1-0.2-0.3-0.2-0.4c0,0,0.2-0.1,0.3-0.2
  C115.9,121.3,116,121.5,116,121.6z"/>
<path class="Speckle--purple" d="M71.3,240.2c0,0.1,0,0.2,0,0.3c-0.1,0-0.3,0-0.4,0c0,0,0-0.2,0-0.3C71,240.2,71.2,240.2,71.3,240.2z"/>
<path class="Speckle--purple" d="M67.1,164.7c0.1,0.1,0.1,0.2,0.2,0.4c-0.2,0-0.5,0.1-0.7,0.1c0,0-0.1-0.2-0.1-0.4
  C66.6,164.8,66.8,164.7,67.1,164.7z"/>
<path class="Speckle--purple" d="M22.7,251c0,0.1,0.1,0.2,0.1,0.3c-0.2,0-0.3,0.1-0.5,0.1c0-0.1,0-0.3,0.1-0.3C22.5,251,22.6,251,22.7,251z"/>
<path class="Speckle--purple" d="M53,131.6c0,0.2,0,0.5,0,0.7c0,0.1-0.2,0.1-0.3,0.2c0-0.2,0-0.5,0-0.7C52.7,131.7,52.9,131.7,53,131.6z"/>
<path class="Speckle--purple" d="M228.1,195.1c0.2,0,0.5,0,0.7,0c0,0,0.1,0.3,0.1,0.3c0,0.1-0.3,0.2-0.3,0.2
  C228.4,195.5,228.3,195.3,228.1,195.1z"/>
<path class="Speckle--purple" d="M204.1,246.6c0,0.2,0,0.4,0,0.6c-0.2,0-0.4-0.1-0.6-0.1c-0.1,0-0.1-0.3-0.1-0.3
  C203.6,246.6,203.8,246.6,204.1,246.6z"/>
<path class="Speckle--green" d="M178.3,275.5c0,0.2,0,0.5,0,0.7c0,0.1-0.2,0.1-0.3,0.1c0-0.2,0-0.5,0-0.7C177.9,275.6,178.2,275.6,178.3,275.5z
  "/>
<path class="Speckle--purple" d="M177.4,194.1c-0.1-0.1-0.1-0.1-0.2-0.2c0.1,0,0.3,0,0.4-0.1C177.5,194,177.4,194,177.4,194.1z"/>
<path class="Speckle--purple" d="M91.4,430.1c-0.1,0.1-0.3,0.2-0.3,0.2c-0.2-0.1-0.4-0.3-0.5-0.4c0.2,0,0.5-0.1,0.7-0.1
  C91.2,429.8,91.3,430,91.4,430.1z"/>
<path class="Speckle--purple" d="M166.6,122c0.1,0.1,0.2,0.1,0.3,0.2c-0.1,0.1-0.3,0.1-0.4,0.2c0,0-0.1-0.2-0.2-0.3
  C166.4,122.1,166.5,122,166.6,122z"/>
<polygon class="Speckle--purple" points="156.2,149.8 156.5,149.9 156.3,150.2 "/>
<path class="Speckle--purple" d="M146.7,178.1c0.1-0.1,0.3-0.2,0.3-0.2c0.2,0.1,0.3,0.3,0.5,0.5c-0.2,0-0.5,0.1-0.7,0.1
  C146.8,178.5,146.7,178.2,146.7,178.1z"/>
<path class="Speckle--purple" d="M555,77.7c0-0.1-0.1-0.2,0-0.3c0-0.1,0.2-0.1,0.2-0.2c0,0.2,0,0.3,0.1,0.5C555.2,77.7,555.1,77.7,555,77.7z"/>
<path class="Speckle--purple" d="M447.8,401.3c0-0.1,0-0.2,0.1-0.2c0.1,0,0.2,0,0.3,0c-0.1,0.1-0.1,0.3-0.2,0.4
  C448,401.4,447.9,401.4,447.8,401.3z"/>
<path class="Speckle--lavender" d="M459.8,359.6c0-0.1,0-0.2,0-0.3c0.2,0,0.3,0,0.5,0c-0.1,0.1-0.1,0.2-0.2,0.3C460,359.7,459.9,359.6,459.8,359.6
  z"/>
<path class="Speckle--darkPurple" d="M484,281c0.2,0,0.5,0,0.7,0c0.1,0,0.2,0.3,0.1,0.4c0,0.1-0.3,0.2-0.4,0.2C484.3,281.4,484.2,281.2,484,281z"/>
<path class="Speckle--purple" d="M548.7,72c0.1,0.1,0.2,0.1,0.2,0.2c0,0.1-0.1,0.2-0.2,0.3c-0.1-0.1-0.2-0.2-0.2-0.2
  C548.6,72.2,548.7,72.1,548.7,72z"/>
<path class="Speckle--purple" d="M509.1,141.2c0.2-0.1,0.4-0.2,0.5-0.3c0.1,0.2,0.2,0.4,0.3,0.6c0,0-0.3,0.2-0.3,0.2
  C509.4,141.5,509.2,141.3,509.1,141.2z"/>
<path class="Speckle--purple" d="M528.4,50.8c0.1,0.1,0.1,0.1,0.2,0.2c-0.1,0-0.3,0.1-0.4,0.1C528.3,51,528.3,50.9,528.4,50.8z"/>
<path class="Speckle--darkPurple" d="M438.3,319.5c0.2,0,0.4,0,0.6,0c0.1,0,0.1,0.2,0.1,0.3c0,0.1-0.3,0.2-0.3,0.2
  C438.5,319.9,438.4,319.7,438.3,319.5z"/>
<path class="Speckle--purple" d="M482.6,164.2c-0.1,0-0.2,0-0.4,0c0,0,0-0.2,0-0.3c0.1,0,0.2,0,0.3,0C482.7,164,482.6,164.2,482.6,164.2z"/>
<path class="Speckle--purple" d="M510.6,58.6c-0.1,0.8-0.3,1.6-0.4,2.3c0,0,0.1-0.1,0.1-0.1C509.9,60,510,59.2,510.6,58.6
  C510.7,58.5,510.6,58.6,510.6,58.6z"/>
<path class="Speckle--purple" d="M476.2,555.6c0.2,0,0.4,0,0.7,0c0.1,0,0.1,0.2,0.2,0.3c-0.2,0-0.5,0-0.7,0C476.3,556,476.3,555.7,476.2,555.6z"
  />
<path class="Speckle--purple" d="M576.6,176.4c0-0.1,0-0.2,0-0.3c0.2,0,0.3,0.1,0.5,0.1c-0.1,0.1-0.1,0.2-0.2,0.3
  C576.8,176.4,576.7,176.4,576.6,176.4z"/>
<path class="Speckle--purple" d="M455.6,544.3c0,0.2,0.1,0.4,0.1,0.7c0,0.1-0.2,0.2-0.3,0.1c-0.1,0-0.2-0.3-0.2-0.3
  C455.2,544.6,455.4,544.5,455.6,544.3z"/>
<path class="Speckle--green" d="M507.9,356.9c0,0.2-0.1,0.4-0.1,0.6c-0.2-0.1-0.4-0.1-0.6-0.2c-0.1,0,0-0.2,0-0.3
  C507.4,357,507.6,356.9,507.9,356.9z"/>
<polygon class="Speckle--purple" points="567,155.2 566.7,155 567,155 "/>
<path class="Speckle--purple" d="M599.6,34.4c0.1,0.1,0.3,0.1,0.3,0.2c0,0.1-0.1,0.3-0.2,0.3c-0.1,0-0.2-0.1-0.3-0.2
  C599.5,34.6,599.5,34.5,599.6,34.4z"/>
<path class="Speckle--lightBlue" d="M523.3,241c0-0.1,0-0.2,0-0.3c0.1,0,0.3,0,0.4,0c-0.1,0.1-0.1,0.2-0.2,0.3C523.5,241.1,523.3,241,523.3,241z"/>
<path class="Speckle--orange" d="M460.6,408c0.2-0.1,0.5-0.2,0.7-0.2c0.2,0,0.3,0.3,0.4,0.5c-0.2,0.1-0.5,0.2-0.6,0.2
  C460.9,408.5,460.8,408.2,460.6,408z"/>
<path class="Speckle--green" d="M306.6,451.6c0.1,0.1,0.2,0.3,0.2,0.3c-0.1,0.2-0.3,0.4-0.4,0.5c0-0.2-0.1-0.4-0.1-0.7
  C306.3,451.8,306.5,451.7,306.6,451.6z"/>
<path class="Speckle--lightBlue" d="M369.2,225.2c-0.1,0-0.2,0.1-0.4,0.1c0-0.2-0.1-0.4-0.1-0.6c0.1,0,0.3,0,0.4,0.1
  C369.2,224.9,369.2,225.1,369.2,225.2z"/>
<path class="Speckle--green" d="M351.8,274.5c0.3,0,0.5-0.1,0.7,0c0.1,0,0.1,0.4,0.2,0.6c-0.2,0-0.5,0.1-0.7,0
  C351.9,275,351.9,274.7,351.8,274.5z"/>
<path class="Speckle--purple" d="M315.1,375.8c0-0.1,0.1-0.2,0.1-0.2c0.1,0,0.2,0,0.3,0c-0.1,0.1-0.1,0.3-0.2,0.4
  C315.3,376,315.2,375.9,315.1,375.8z"/>
<path class="Speckle--purple" d="M382.4,159.8c0,0.1,0,0.3,0,0.3c-0.1,0.1-0.2,0-0.3,0c0,0,0-0.3,0-0.3C382.2,159.7,382.3,159.8,382.4,159.8z"/>
<path class="Speckle--purple" d="M307.1,391.7c0.1,0.1,0.2,0.2,0.3,0.2c-0.2,0.1-0.3,0.2-0.5,0.3c0-0.1-0.2-0.2-0.1-0.3
  C306.8,391.8,307,391.8,307.1,391.7z"/>
<path class="Speckle--blue" d="M259,536c0.1,0.2,0.1,0.4,0.2,0.5c-0.2,0-0.5,0.1-0.7,0c0,0-0.1-0.3-0.1-0.3C258.6,536.2,258.8,536.1,259,536z"
  />
<polygon class="Speckle--purple" points="349.2,252.1 348.8,252.1 348.9,251.9 "/>
<path class="Speckle--purple" d="M252.8,488.2c0.1,0.1,0.2,0.1,0.3,0.2c-0.1,0.1-0.3,0.2-0.4,0.2c-0.1-0.1-0.1-0.2-0.2-0.3
  C252.5,488.3,252.7,488.2,252.8,488.2z"/>
<polygon class="Speckle--purple" points="287.4,337.4 287.4,337 287.7,337.2 "/>
<path class="Speckle--purple" d="M277.7,361.8c0.1,0.2,0.3,0.5,0.2,0.7c0,0.1-0.4,0.2-0.6,0.3c0,0-0.2-0.3-0.2-0.3
  C277.3,362.2,277.5,362,277.7,361.8z"/>
<polygon class="Speckle--purple" points="439,282.7 439.2,282.7 439.1,282.9 "/>
<path class="Speckle--blue" d="M437.8,215.5c0,0.2,0.1,0.5,0.1,0.7c-0.1,0.1-0.4,0.1-0.6,0.2c0-0.2-0.1-0.5-0.1-0.7
  C437.3,215.6,437.6,215.6,437.8,215.5z"/>
<path class="Speckle--purple" d="M405.8,300.3c0-0.1,0.1-0.2,0.1-0.3c0.1,0,0.2,0,0.3,0c-0.1,0.1-0.1,0.3-0.2,0.4
  C406,300.4,405.9,300.3,405.8,300.3z"/>
<path class="Speckle--lightBlue" d="M371,398.7c0.1,0.2,0.1,0.4,0.2,0.6c-0.2,0-0.5,0-0.7-0.1c-0.1,0-0.1-0.2-0.1-0.4
  C370.5,398.8,370.7,398.7,371,398.7z"/>
<polygon class="Speckle--purple" points="385.7,348.9 385.9,349 385.7,349.3 "/>
<path class="Speckle--purple" d="M394.2,314.2c0-0.1,0-0.2,0-0.4c0.2,0,0.3,0,0.5,0c-0.1,0.1-0.1,0.2-0.2,0.3
  C394.4,314.3,394.3,314.2,394.2,314.2z"/>
<path class="Speckle--purple" d="M471.7,30.7c0.2,0,0.5,0,0.7,0c0.1,0,0.1,0.2,0.1,0.3c-0.2,0-0.5,0-0.7,0C471.7,31,471.7,30.8,471.7,30.7z"/>
<path class="Speckle--purple" d="M358.7,327.2c0.1,0.1,0.2,0.1,0.3,0.2c-0.2,0-0.3,0.1-0.5,0.1c0-0.1-0.1-0.2-0.1-0.3
  C358.5,327.2,358.6,327.2,358.7,327.2z"/>
<path class="Speckle--purple" d="M334.2,386.2c0,0.1,0,0.2,0,0.4c-0.2,0-0.4-0.1-0.6-0.1c0.1-0.1,0.1-0.3,0.2-0.3
  C334,386.1,334.1,386.1,334.2,386.2z"/>
<path class="Speckle--purple" d="M331.3,391.6c0.1,0.2,0.4,0.4,0.3,0.5c-0.1,0.2-0.4,0.4-0.6,0.5c-0.1-0.1-0.2-0.3-0.2-0.4
  C331,392.1,331.2,391.9,331.3,391.6z"/>
<path class="Speckle--purple" d="M362.6,289.5c0.1,0.2,0.1,0.4,0.2,0.6c-0.2,0-0.5,0-0.7,0c0,0-0.1-0.3-0.1-0.4
  C362.2,289.6,362.4,289.5,362.6,289.5z"/>
</svg>
